<?xml version="1.0" encoding="UTF-8" standalone="no"?>
<svg
   viewBox="0 0 24 24"
   width="24px"
   height="24px"
   version="1.1"
   id="svg4"
   sodipodi:docname="icons8-bluesky-logo.svg"
   inkscape:version="1.2.2 (b0a8486541, 2022-12-01)"
   xmlns:inkscape="http://www.inkscape.org/namespaces/inkscape"
   xmlns:sodipodi="http://sodipodi.sourceforge.net/DTD/sodipodi-0.dtd"
   xmlns="http://www.w3.org/2000/svg"
   xmlns:svg="http://www.w3.org/2000/svg">
  <defs
     id="defs8" />
  <sodipodi:namedview
     id="namedview6"
     pagecolor="#ffffff"
     bordercolor="#000000"
     borderopacity="0.25"
     inkscape:showpageshadow="2"
     inkscape:pageopacity="0.0"
     inkscape:pagecheckerboard="0"
     inkscape:deskcolor="#d1d1d1"
     showgrid="false"
     inkscape:zoom="12.344906"
     inkscape:cx="-9.2345782"
     inkscape:cy="14.21639"
     inkscape:window-width="1920"
     inkscape:window-height="988"
     inkscape:window-x="1920"
     inkscape:window-y="0"
     inkscape:window-maximized="1"
     inkscape:current-layer="svg4" />
  <path
     d="M5.769,3.618C8.291,5.512,11.004,9.352,12,11.412c0.996-2.06,3.709-5.9,6.231-7.793C20.051,2.252,23,1.195,23,4.559 c0,0.672-0.385,5.644-0.611,6.451c-0.785,2.806-3.647,3.522-6.192,3.089c4.449,0.757,5.581,3.265,3.137,5.774 c-4.643,4.764-6.672-1.195-7.193-2.722c-0.095-0.28-0.14-0.411-0.14-0.3c-0.001-0.112-0.045,0.019-0.14,0.3 c-0.521,1.527-2.55,7.486-7.193,2.722c-2.445-2.509-1.313-5.017,3.137-5.774c-2.546,0.433-5.407-0.282-6.192-3.089 C1.385,10.203,1,5.231,1,4.559C1,1.195,3.949,2.252,5.769,3.618L5.769,3.618z"
     id="path2"
     style="fill:#535353;fill-opacity:1" />
</svg>
