<?xml version="1.0" encoding="UTF-8" standalone="no"?>
<!-- Created with Inkscape (http://www.inkscape.org/) -->

<svg
   width="175.69687mm"
   height="150.94484mm"
   viewBox="0 0 175.69687 150.94484"
   version="1.1"
   id="svg5"
   inkscape:version="1.4.2 (ebf0e940d0, 2025-05-08)"
   sodipodi:docname="drawing2.svg"
   xmlns:inkscape="http://www.inkscape.org/namespaces/inkscape"
   xmlns:sodipodi="http://sodipodi.sourceforge.net/DTD/sodipodi-0.dtd"
   xmlns="http://www.w3.org/2000/svg"
   xmlns:svg="http://www.w3.org/2000/svg">
  <sodipodi:namedview
     id="namedview7"
     pagecolor="#ffffff"
     bordercolor="#000000"
     borderopacity="0.25"
     inkscape:showpageshadow="2"
     inkscape:pageopacity="0.0"
     inkscape:pagecheckerboard="0"
     inkscape:deskcolor="#d1d1d1"
     inkscape:document-units="mm"
     showgrid="false"
     showguides="true"
     inkscape:zoom="0.90509668"
     inkscape:cx="197.2165"
     inkscape:cy="461.27669"
     inkscape:window-width="1920"
     inkscape:window-height="988"
     inkscape:window-x="1920"
     inkscape:window-y="0"
     inkscape:window-maximized="1"
     inkscape:current-layer="layer1" />
  <defs
     id="defs2">
    <inkscape:path-effect
       effect="parallel"
       offset_pt="-260.61458,108.47917"
       id="path-effect7"
       is_visible="true"
       lpeversion="1"
       length-left="150"
       length-right="150" />
    <inkscape:path-effect
       effect="parallel"
       offset_pt="-245.00416,106.24202"
       id="path-effect6"
       is_visible="true"
       lpeversion="1"
       length-left="150"
       length-right="150" />
    <inkscape:path-effect
       effect="circle_with_radius"
       id="path-effect5"
       is_visible="true"
       lpeversion="1" />
    <inkscape:path-effect
       effect="spiro"
       id="path-effect4"
       is_visible="true"
       lpeversion="1" />
    <inkscape:path-effect
       effect="spiro"
       id="path-effect3"
       is_visible="true"
       lpeversion="1" />
    <inkscape:path-effect
       effect="spiro"
       id="path-effect2"
       is_visible="true"
       lpeversion="1" />
    <inkscape:path-effect
       effect="circle_3pts"
       id="path-effect1"
       is_visible="true"
       lpeversion="1" />
    <inkscape:path-effect
       effect="spiro"
       id="path-effect2803"
       is_visible="true"
       lpeversion="1" />
    <inkscape:path-effect
       effect="spiro"
       id="path-effect2576"
       is_visible="true"
       lpeversion="1" />
  </defs>
  <g
     inkscape:label="Layer 1"
     inkscape:groupmode="layer"
     id="layer1"
     transform="translate(-12.151574,-6.8236051)">
    <path
       id="text236"
       style="font-weight:600;font-size:9.61353px;font-family:FreeSans;-inkscape-font-specification:'FreeSans Semi-Bold';text-align:center;text-anchor:middle;fill:#272727;stroke-width:2.47168;stroke-linecap:square;paint-order:stroke markers fill"
       d="M 69.495361 6.8236051 C 68.43034 6.8236051 67.600085 7.1985864 67.005073 7.948601 C 66.285059 8.8586188 65.925036 10.348572 65.925036 12.418612 C 65.925036 14.528654 66.252908 15.996428 66.907922 16.821444 C 67.562934 17.64146 68.42534 18.051344 69.495361 18.051344 C 70.560381 18.051344 71.390119 17.676362 71.985131 16.926348 C 72.705145 16.01633 73.065169 14.521391 73.065169 12.44135 C 73.065169 10.356309 72.707897 8.8636047 71.992883 7.9635872 C 71.392871 7.2035723 70.560381 6.8236051 69.495361 6.8236051 z M 81.6972 6.8236051 C 80.632179 6.8236051 79.801924 7.1985864 79.206913 7.948601 C 78.486899 8.8586188 78.126875 10.348572 78.126875 12.418612 C 78.126875 14.528654 78.454748 15.996428 79.109761 16.821444 C 79.764774 17.64146 80.627179 18.051344 81.6972 18.051344 C 82.762221 18.051344 83.591959 17.676362 84.18697 16.926348 C 84.906984 16.01633 85.267008 14.521391 85.267008 12.44135 C 85.267008 10.356309 84.909736 8.8636047 84.194722 7.9635872 C 83.59471 7.2035723 82.762221 6.8236051 81.6972 6.8236051 z M 106.10088 6.8236051 C 105.03586 6.8236051 104.20612 7.1985864 103.61111 7.948601 C 102.89109 8.8586188 102.53107 10.348572 102.53107 12.418612 C 102.53107 14.528654 102.85843 15.996428 103.51344 16.821444 C 104.16845 17.64146 105.03086 18.051344 106.10088 18.051344 C 107.1659 18.051344 107.99615 17.676362 108.59117 16.926348 C 109.31118 16.01633 109.6712 14.521391 109.6712 12.44135 C 109.6712 10.356309 109.31341 8.8636047 108.5984 7.9635872 C 107.99839 7.2035723 107.1659 6.8236051 106.10088 6.8236051 z M 130.50456 6.8236051 C 129.43954 6.8236051 128.6098 7.1985864 128.01479 7.948601 C 127.29477 8.8586188 126.93475 10.348572 126.93475 12.418612 C 126.93475 14.528654 127.2621 15.996428 127.91712 16.821444 C 128.57213 17.64146 129.43454 18.051344 130.50456 18.051344 C 131.56958 18.051344 132.39983 17.676362 132.99484 16.926348 C 133.71486 16.01633 134.07488 14.521391 134.07488 12.44135 C 134.07488 10.356309 133.71709 8.8636047 133.00208 7.9635872 C 132.40207 7.2035723 131.56958 6.8236051 130.50456 6.8236051 z M 154.90875 6.8236051 C 153.84373 6.8236051 153.01348 7.1985864 152.41846 7.948601 C 151.69845 8.8586188 151.33843 10.348572 151.33843 12.418612 C 151.33843 14.528654 151.66578 15.996428 152.3208 16.821444 C 152.97581 17.64146 153.83873 18.051344 154.90875 18.051344 C 155.97377 18.051344 156.80351 17.676362 157.39852 16.926348 C 158.11854 16.01633 158.47856 14.521391 158.47856 12.44135 C 158.47856 10.356309 158.12129 8.8636047 157.40627 7.9635872 C 156.80626 7.2035723 155.97377 6.8236051 154.90875 6.8236051 z M 45.211572 6.9171394 C 44.971567 7.5871525 44.529017 8.1748127 43.884004 8.6798225 C 43.238991 9.1798323 42.641359 9.5199118 42.091349 9.6999153 L 42.091349 11.61246 C 43.136369 11.267453 44.043648 10.735156 44.813663 10.015142 L 44.813663 17.957809 L 46.921545 17.957809 L 46.921545 6.9171394 L 45.211572 6.9171394 z M 57.413411 6.9171394 C 57.173406 7.5871525 56.730856 8.1748127 56.085843 8.6798225 C 55.440831 9.1798323 54.843198 9.5199118 54.293188 9.6999153 L 54.293188 11.61246 C 55.338208 11.267453 56.246004 10.735156 57.016019 10.015142 L 57.016019 17.957809 L 59.123384 17.957809 L 59.123384 6.9171394 L 57.413411 6.9171394 z M 94.018928 6.9171394 C 93.778924 7.5871525 93.336373 8.1748127 92.691361 8.6798225 C 92.046348 9.1798323 91.449233 9.5199118 90.899222 9.6999153 L 90.899222 11.61246 C 91.944243 11.267453 92.851522 10.735156 93.621537 10.015142 L 93.621537 17.957809 L 95.728901 17.957809 L 95.728901 6.9171394 L 94.018928 6.9171394 z M 118.42312 6.9171394 C 118.18312 7.5871525 117.74057 8.1748127 117.09556 8.6798225 C 116.45054 9.1798323 115.85291 9.5199118 115.3029 9.6999153 L 115.3029 11.61246 C 116.34792 11.267453 117.25519 10.735156 118.02521 10.015142 L 118.02521 17.957809 L 120.1331 17.957809 L 120.1331 6.9171394 L 118.42312 6.9171394 z M 142.8268 6.9171394 C 142.5868 7.5871525 142.14425 8.1748127 141.49923 8.6798225 C 140.85422 9.1798323 140.25659 9.5199118 139.70658 9.6999153 L 139.70658 11.61246 C 140.75161 11.267453 141.6594 10.735156 142.42941 10.015142 L 142.42941 17.957809 L 144.53678 17.957809 L 144.53678 6.9171394 L 142.8268 6.9171394 z M 69.495361 8.571302 C 69.750366 8.571302 69.975251 8.6538289 70.170255 8.8188322 C 70.370259 8.9788353 70.535312 9.3012055 70.665315 9.786215 C 70.795318 10.266224 70.860135 11.151325 70.860135 12.44135 C 70.860135 13.731375 70.78758 14.646391 70.642577 15.186402 C 70.532575 15.60641 70.37801 15.898865 70.178006 16.063868 C 69.978003 16.223871 69.750366 16.303647 69.495361 16.303647 C 69.240356 16.303647 69.012719 16.223871 68.812715 16.063868 C 68.617711 15.903865 68.455409 15.583729 68.325406 15.10372 C 68.195404 14.618711 68.130069 13.731375 68.130069 12.44135 C 68.130069 11.151325 68.202624 10.233557 68.347627 9.6885465 C 68.457629 9.2685383 68.612711 8.9788353 68.812715 8.8188322 C 69.012719 8.6538289 69.240356 8.571302 69.495361 8.571302 z M 81.6972 8.571302 C 81.952205 8.571302 82.17709 8.6538289 82.372094 8.8188322 C 82.572098 8.9788353 82.737152 9.3012055 82.867154 9.786215 C 82.997157 10.266224 83.061974 11.151325 83.061974 12.44135 C 83.061974 13.731375 82.989936 14.646391 82.844933 15.186402 C 82.734931 15.60641 82.579849 15.898865 82.379845 16.063868 C 82.179841 16.223871 81.952205 16.303647 81.6972 16.303647 C 81.442195 16.303647 81.214558 16.223871 81.014554 16.063868 C 80.81955 15.903865 80.657247 15.583729 80.527245 15.10372 C 80.397243 14.618711 80.331908 13.731375 80.331908 12.44135 C 80.331908 11.151325 80.404464 10.233557 80.549466 9.6885465 C 80.659468 9.2685383 80.81455 8.9788353 81.014554 8.8188322 C 81.214558 8.6538289 81.442195 8.571302 81.6972 8.571302 z M 106.10088 8.571302 C 106.35588 8.571302 106.58077 8.6538289 106.77577 8.8188322 C 106.97578 8.9788353 107.14083 9.3012055 107.27083 9.786215 C 107.40083 10.266224 107.46617 11.151325 107.46617 12.44135 C 107.46617 13.731375 107.39361 14.646391 107.24861 15.186402 C 107.13861 15.60641 106.98353 15.898865 106.78352 16.063868 C 106.58352 16.223871 106.35588 16.303647 106.10088 16.303647 C 105.84587 16.303647 105.61824 16.223871 105.41823 16.063868 C 105.22323 15.903865 105.06092 15.583729 104.93092 15.10372 C 104.80092 14.618711 104.7361 13.731375 104.7361 12.44135 C 104.7361 11.151325 104.80865 10.233557 104.95366 9.6885465 C 105.06366 9.2685383 105.21823 8.9788353 105.41823 8.8188322 C 105.61824 8.6538289 105.84587 8.571302 106.10088 8.571302 z M 130.50456 8.571302 C 130.75956 8.571302 130.98497 8.6538289 131.17997 8.8188322 C 131.37997 8.9788353 131.54503 9.3012055 131.67503 9.786215 C 131.80503 10.266224 131.86985 11.151325 131.86985 12.44135 C 131.86985 13.731375 131.7973 14.646391 131.65229 15.186402 C 131.54229 15.60641 131.38721 15.898865 131.1872 16.063868 C 130.9872 16.223871 130.75956 16.303647 130.50456 16.303647 C 130.24955 16.303647 130.02243 16.223871 129.82243 16.063868 C 129.62742 15.903865 129.4646 15.583729 129.3346 15.10372 C 129.2046 14.618711 129.13978 13.731375 129.13978 12.44135 C 129.13978 11.151325 129.21233 10.233557 129.35734 9.6885465 C 129.46734 9.2685383 129.62242 8.9788353 129.82243 8.8188322 C 130.02243 8.6538289 130.24955 8.571302 130.50456 8.571302 z M 154.90875 8.571302 C 155.16376 8.571302 155.38865 8.6538289 155.58365 8.8188322 C 155.78365 8.9788353 155.94871 9.3012055 156.07871 9.786215 C 156.20871 10.266224 156.27353 11.151325 156.27353 12.44135 C 156.27353 13.731375 156.20097 14.646391 156.05597 15.186402 C 155.94597 15.60641 155.79089 15.898865 155.59088 16.063868 C 155.39088 16.223871 155.16376 16.303647 154.90875 16.303647 C 154.65375 16.303647 154.42611 16.223871 154.22611 16.063868 C 154.03111 15.903865 153.8688 15.583729 153.7388 15.10372 C 153.6088 14.618711 153.54346 13.731375 153.54346 12.44135 C 153.54346 11.151325 153.61601 10.233557 153.76102 9.6885465 C 153.87102 9.2685383 154.02611 8.9788353 154.22611 8.8188322 C 154.42611 8.6538289 154.65375 8.571302 154.90875 8.571302 z M 45.091682 23.983798 C 44.026661 23.983798 43.196406 24.358779 42.601395 25.108794 C 41.881381 26.018812 41.521358 27.508765 41.521358 29.578805 C 41.521358 31.688847 41.848714 33.156621 42.503727 33.981637 C 43.158739 34.801653 44.021661 35.211536 45.091682 35.211536 C 46.156703 35.211536 46.986441 34.836555 47.581453 34.08654 C 48.301467 33.176523 48.66149 31.681584 48.66149 29.601543 C 48.66149 27.516502 48.304218 26.023798 47.589204 25.12378 C 46.989193 24.363765 46.156703 23.983798 45.091682 23.983798 z M 154.90875 23.983798 C 153.84373 23.983798 153.01348 24.358779 152.41846 25.108794 C 151.69845 26.018812 151.33843 27.508765 151.33843 29.578805 C 151.33843 31.688847 151.66578 33.156621 152.3208 33.981637 C 152.97581 34.801653 153.83873 35.211536 154.90875 35.211536 C 155.97377 35.211536 156.80351 34.836555 157.39852 34.08654 C 158.11854 33.176523 158.47856 31.681584 158.47856 29.601543 C 158.47856 27.516502 158.12129 26.023798 157.40627 25.12378 C 156.80626 24.363765 155.97377 23.983798 154.90875 23.983798 z M 57.413411 24.077849 C 57.173406 24.747862 56.730856 25.335006 56.085843 25.840015 C 55.440831 26.340025 54.843198 26.680105 54.293188 26.860108 L 54.293188 28.772653 C 55.338208 28.427646 56.246004 27.895348 57.016019 27.175334 L 57.016019 35.118002 L 59.123384 35.118002 L 59.123384 24.077849 L 57.413411 24.077849 z M 69.61525 24.077849 C 69.375245 24.747862 68.932694 25.335006 68.287682 25.840015 C 67.64267 26.340025 67.045038 26.680105 66.495027 26.860108 L 66.495027 28.772653 C 67.540047 28.427646 68.447843 27.895348 69.217858 27.175334 L 69.217858 35.118002 L 71.325223 35.118002 L 71.325223 24.077849 L 69.61525 24.077849 z M 81.817089 24.077849 C 81.577084 24.747862 81.134534 25.335006 80.489522 25.840015 C 79.844509 26.340025 79.246877 26.680105 78.696866 26.860108 L 78.696866 28.772653 C 79.741886 28.427646 80.649682 27.895348 81.419697 27.175334 L 81.419697 35.118002 L 83.527062 35.118002 L 83.527062 24.077849 L 81.817089 24.077849 z M 94.018928 24.077849 C 93.778924 24.747862 93.336373 25.335006 92.691361 25.840015 C 92.046348 26.340025 91.449233 26.680105 90.899222 26.860108 L 90.899222 28.772653 C 91.944243 28.427646 92.851522 27.895348 93.621537 27.175334 L 93.621537 35.118002 L 95.728901 35.118002 L 95.728901 24.077849 L 94.018928 24.077849 z M 106.22077 24.077849 C 105.98076 24.747862 105.53821 25.335006 104.8932 25.840015 C 104.24819 26.340025 103.65107 26.680105 103.10106 26.860108 L 103.10106 28.772653 C 104.14608 28.427646 105.05336 27.895348 105.82338 27.175334 L 105.82338 35.118002 L 107.93126 35.118002 L 107.93126 24.077849 L 106.22077 24.077849 z M 118.42312 24.077849 C 118.18312 24.747862 117.74057 25.335006 117.09556 25.840015 C 116.45054 26.340025 115.85291 26.680105 115.3029 26.860108 L 115.3029 28.772653 C 116.34792 28.427646 117.25519 27.895348 118.02521 27.175334 L 118.02521 35.118002 L 120.1331 35.118002 L 120.1331 24.077849 L 118.42312 24.077849 z M 130.62496 24.077849 C 130.38496 24.747862 129.9424 25.335006 129.2974 25.840015 C 128.65238 26.340025 128.05475 26.680105 127.50474 26.860108 L 127.50474 28.772653 C 128.54976 28.427646 129.45704 27.895348 130.22705 27.175334 L 130.22705 35.118002 L 132.33494 35.118002 L 132.33494 24.077849 L 130.62496 24.077849 z M 142.8268 24.077849 C 142.5868 24.747862 142.14425 25.335006 141.49923 25.840015 C 140.85422 26.340025 140.25659 26.680105 139.70658 26.860108 L 139.70658 28.772653 C 140.75161 28.427646 141.6594 27.895348 142.42941 27.175334 L 142.42941 35.118002 L 144.53678 35.118002 L 144.53678 24.077849 L 142.8268 24.077849 z M 45.091682 25.731495 C 45.346687 25.731495 45.571572 25.814022 45.766576 25.979025 C 45.96658 26.139028 46.131634 26.461399 46.261637 26.946408 C 46.391639 27.426417 46.456457 28.311518 46.456457 29.601543 C 46.456457 30.891568 46.383902 31.806585 46.238899 32.346595 C 46.128897 32.766604 45.973815 33.059058 45.773811 33.224061 C 45.573807 33.384064 45.346687 33.464356 45.091682 33.464356 C 44.836677 33.464356 44.609041 33.384064 44.409037 33.224061 C 44.214033 33.064058 44.051214 32.743922 43.921211 32.263913 C 43.791208 31.778903 43.726391 30.891568 43.726391 29.601543 C 43.726391 28.311518 43.798946 27.39375 43.943949 26.848739 C 44.053951 26.428731 44.209033 26.139028 44.409037 25.979025 C 44.609041 25.814022 44.836677 25.731495 45.091682 25.731495 z M 154.90875 25.731495 C 155.16376 25.731495 155.38865 25.814022 155.58365 25.979025 C 155.78365 26.139028 155.94871 26.461399 156.07871 26.946408 C 156.20871 27.426417 156.27353 28.311518 156.27353 29.601543 C 156.27353 30.891568 156.20097 31.806585 156.05597 32.346595 C 155.94597 32.766604 155.79089 33.059058 155.59088 33.224061 C 155.39088 33.384064 155.16376 33.464356 154.90875 33.464356 C 154.65375 33.464356 154.42611 33.384064 154.22611 33.224061 C 154.03111 33.064058 153.8688 32.743922 153.7388 32.263913 C 153.6088 31.778903 153.54346 30.891568 153.54346 29.601543 C 153.54346 28.311518 153.61601 27.39375 153.76102 26.848739 C 153.87102 26.428731 154.02611 26.139028 154.22611 25.979025 C 154.42611 25.814022 154.65375 25.731495 154.90875 25.731495 z M 45.091682 41.144508 C 44.026661 41.144508 43.196406 41.519489 42.601395 42.269504 C 41.881381 43.179521 41.521358 44.669474 41.521358 46.739515 C 41.521358 48.849556 41.848714 50.316814 42.503727 51.14183 C 43.158739 51.961846 44.021661 52.372246 45.091682 52.372246 C 46.156703 52.372246 46.986441 51.996748 47.581453 51.246733 C 48.301467 50.336715 48.66149 48.841776 48.66149 46.761736 C 48.66149 44.676695 48.304218 43.184507 47.589204 42.28449 C 46.989193 41.524475 46.156703 41.144508 45.091682 41.144508 z M 57.293521 41.144508 C 56.228501 41.144508 55.398246 41.519489 54.803234 42.269504 C 54.08322 43.179521 53.723197 44.669474 53.723197 46.739515 C 53.723197 48.849556 54.050553 50.316814 54.705566 51.14183 C 55.360578 51.961846 56.2235 52.372246 57.293521 52.372246 C 58.358542 52.372246 59.188281 51.996748 59.783292 51.246733 C 60.503307 50.336715 60.863329 48.841776 60.863329 46.761736 C 60.863329 44.676695 60.506057 43.184507 59.791043 42.28449 C 59.191031 41.524475 58.358542 41.144508 57.293521 41.144508 z M 69.495361 41.144508 C 68.43034 41.144508 67.600085 41.519489 67.005073 42.269504 C 66.285059 43.179521 65.925036 44.669474 65.925036 46.739515 C 65.925036 48.849556 66.252908 50.316814 66.907922 51.14183 C 67.562934 51.961846 68.42534 52.372246 69.495361 52.372246 C 70.560381 52.372246 71.390119 51.996748 71.985131 51.246733 C 72.705145 50.336715 73.065169 48.841776 73.065169 46.761736 C 73.065169 44.676695 72.707897 43.184507 71.992883 42.28449 C 71.392871 41.524475 70.560381 41.144508 69.495361 41.144508 z M 130.50456 41.144508 C 129.43954 41.144508 128.6098 41.519489 128.01479 42.269504 C 127.29477 43.179521 126.93475 44.669474 126.93475 46.739515 C 126.93475 48.849556 127.2621 50.316814 127.91712 51.14183 C 128.57213 51.961846 129.43454 52.372246 130.50456 52.372246 C 131.56958 52.372246 132.39983 51.996748 132.99484 51.246733 C 133.71486 50.336715 134.07488 48.841776 134.07488 46.761736 C 134.07488 44.676695 133.71709 43.184507 133.00208 42.28449 C 132.40207 41.524475 131.56958 41.144508 130.50456 41.144508 z M 142.70691 41.144508 C 141.64189 41.144508 140.81164 41.519489 140.21663 42.269504 C 139.49661 43.179521 139.13659 44.669474 139.13659 46.739515 C 139.13659 48.849556 139.46394 50.316814 140.11896 51.14183 C 140.77397 51.961846 141.63689 52.372246 142.70691 52.372246 C 143.77193 52.372246 144.60167 51.996748 145.19668 51.246733 C 145.9167 50.336715 146.27672 48.841776 146.27672 46.761736 C 146.27672 44.676695 145.91945 43.184507 145.20443 42.28449 C 144.60442 41.524475 143.77193 41.144508 142.70691 41.144508 z M 81.817089 41.238042 C 81.577084 41.908055 81.134534 42.495715 80.489522 43.000725 C 79.844509 43.500734 79.246877 43.840814 78.696866 44.020818 L 78.696866 45.933363 C 79.741886 45.588356 80.649682 45.055541 81.419697 44.335527 L 81.419697 52.278195 L 83.527062 52.278195 L 83.527062 41.238042 L 81.817089 41.238042 z M 94.018928 41.238042 C 93.778924 41.908055 93.336373 42.495715 92.691361 43.000725 C 92.046348 43.500734 91.449233 43.840814 90.899222 44.020818 L 90.899222 45.933363 C 91.944243 45.588356 92.851522 45.055541 93.621537 44.335527 L 93.621537 52.278195 L 95.728901 52.278195 L 95.728901 41.238042 L 94.018928 41.238042 z M 106.22077 41.238042 C 105.98076 41.908055 105.53821 42.495715 104.8932 43.000725 C 104.24819 43.500734 103.65107 43.840814 103.10106 44.020818 L 103.10106 45.933363 C 104.14608 45.588356 105.05336 45.055541 105.82338 44.335527 L 105.82338 52.278195 L 107.93126 52.278195 L 107.93126 41.238042 L 106.22077 41.238042 z M 118.42312 41.238042 C 118.18312 41.908055 117.74057 42.495715 117.09556 43.000725 C 116.45054 43.500734 115.85291 43.840814 115.3029 44.020818 L 115.3029 45.933363 C 116.34792 45.588356 117.25519 45.055541 118.02521 44.335527 L 118.02521 52.278195 L 120.1331 52.278195 L 120.1331 41.238042 L 118.42312 41.238042 z M 155.02864 41.238042 C 154.78863 41.908055 154.34609 42.495715 153.70107 43.000725 C 153.05607 43.500734 152.45843 43.840814 151.90842 44.020818 L 151.90842 45.933363 C 152.95344 45.588356 153.86124 45.055541 154.63125 44.335527 L 154.63125 52.278195 L 156.73861 52.278195 L 156.73861 41.238042 L 155.02864 41.238042 z M 45.091682 42.891688 C 45.346687 42.891688 45.571572 42.974215 45.766576 43.139218 C 45.96658 43.299221 46.131634 43.621591 46.261637 44.106601 C 46.391639 44.58661 46.456457 45.47171 46.456457 46.761736 C 46.456457 48.051761 46.383902 48.966777 46.238899 49.506788 C 46.128897 49.926796 45.973815 50.21925 45.773811 50.384254 C 45.573807 50.544257 45.346687 50.624549 45.091682 50.624549 C 44.836677 50.624549 44.609041 50.544257 44.409037 50.384254 C 44.214033 50.22425 44.051214 49.904632 43.921211 49.424622 C 43.791208 48.939613 43.726391 48.051761 43.726391 46.761736 C 43.726391 45.47171 43.798946 44.554459 43.943949 44.009449 C 44.053951 43.58944 44.209033 43.299221 44.409037 43.139218 C 44.609041 42.974215 44.836677 42.891688 45.091682 42.891688 z M 57.293521 42.891688 C 57.548526 42.891688 57.773412 42.974215 57.968416 43.139218 C 58.16842 43.299221 58.333473 43.621591 58.463476 44.106601 C 58.593478 44.58661 58.658296 45.47171 58.658296 46.761736 C 58.658296 48.051761 58.585741 48.966777 58.440738 49.506788 C 58.330736 49.926796 58.175654 50.21925 57.97565 50.384254 C 57.775646 50.544257 57.548526 50.624549 57.293521 50.624549 C 57.038516 50.624549 56.81088 50.544257 56.610876 50.384254 C 56.415872 50.22425 56.25357 49.904632 56.123567 49.424622 C 55.993564 48.939613 55.92823 48.051761 55.92823 46.761736 C 55.92823 45.47171 56.000785 44.554459 56.145788 44.009449 C 56.255791 43.58944 56.410872 43.299221 56.610876 43.139218 C 56.81088 42.974215 57.038516 42.891688 57.293521 42.891688 z M 69.495361 42.891688 C 69.750366 42.891688 69.975251 42.974215 70.170255 43.139218 C 70.370259 43.299221 70.535312 43.621591 70.665315 44.106601 C 70.795318 44.58661 70.860135 45.47171 70.860135 46.761736 C 70.860135 48.051761 70.78758 48.966777 70.642577 49.506788 C 70.532575 49.926796 70.37801 50.21925 70.178006 50.384254 C 69.978003 50.544257 69.750366 50.624549 69.495361 50.624549 C 69.240356 50.624549 69.012719 50.544257 68.812715 50.384254 C 68.617711 50.22425 68.455409 49.904632 68.325406 49.424622 C 68.195404 48.939613 68.130069 48.051761 68.130069 46.761736 C 68.130069 45.47171 68.202624 44.554459 68.347627 44.009449 C 68.457629 43.58944 68.612711 43.299221 68.812715 43.139218 C 69.012719 42.974215 69.240356 42.891688 69.495361 42.891688 z M 130.50456 42.891688 C 130.75956 42.891688 130.98497 42.974215 131.17997 43.139218 C 131.37997 43.299221 131.54503 43.621591 131.67503 44.106601 C 131.80503 44.58661 131.86985 45.47171 131.86985 46.761736 C 131.86985 48.051761 131.7973 48.966777 131.65229 49.506788 C 131.54229 49.926796 131.38721 50.21925 131.1872 50.384254 C 130.9872 50.544257 130.75956 50.624549 130.50456 50.624549 C 130.24955 50.624549 130.02243 50.544257 129.82243 50.384254 C 129.62742 50.22425 129.4646 49.904632 129.3346 49.424622 C 129.2046 48.939613 129.13978 48.051761 129.13978 46.761736 C 129.13978 45.47171 129.21233 44.554459 129.35734 44.009449 C 129.46734 43.58944 129.62242 43.299221 129.82243 43.139218 C 130.02243 42.974215 130.24955 42.891688 130.50456 42.891688 z M 142.70691 42.891688 C 142.96192 42.891688 143.1868 42.974215 143.38181 43.139218 C 143.58181 43.299221 143.74686 43.621591 143.87687 44.106601 C 144.00687 44.58661 144.07169 45.47171 144.07169 46.761736 C 144.07169 48.051761 143.99913 48.966777 143.85413 49.506788 C 143.74412 49.926796 143.58904 50.21925 143.38904 50.384254 C 143.18903 50.544257 142.96192 50.624549 142.70691 50.624549 C 142.45191 50.624549 142.22427 50.544257 142.02427 50.384254 C 141.82926 50.22425 141.66644 49.904632 141.53644 49.424622 C 141.40644 48.939613 141.34162 48.051761 141.34162 46.761736 C 141.34162 45.47171 141.41418 44.554459 141.55918 44.009449 C 141.66918 43.58944 141.82426 43.299221 142.02427 43.139218 C 142.22427 42.974215 142.45191 42.891688 142.70691 42.891688 z M 45.091682 58.3047 C 44.026661 58.3047 43.196406 58.679682 42.601395 59.429696 C 41.881381 60.339714 41.521358 61.829668 41.521358 63.899708 C 41.521358 66.009749 41.848714 67.477524 42.503727 68.30254 C 43.158739 69.122556 44.021661 69.532439 45.091682 69.532439 C 46.156703 69.532439 46.986441 69.157458 47.581453 68.407443 C 48.301467 67.497426 48.66149 66.002486 48.66149 63.922445 C 48.66149 61.837405 48.304218 60.344701 47.589204 59.444683 C 46.989193 58.684668 46.156703 58.3047 45.091682 58.3047 z M 57.293521 58.3047 C 56.228501 58.3047 55.398246 58.679682 54.803234 59.429696 C 54.08322 60.339714 53.723197 61.829668 53.723197 63.899708 C 53.723197 66.009749 54.050553 67.477524 54.705566 68.30254 C 55.360578 69.122556 56.2235 69.532439 57.293521 69.532439 C 58.358542 69.532439 59.188281 69.157458 59.783292 68.407443 C 60.503307 67.497426 60.863329 66.002486 60.863329 63.922445 C 60.863329 61.837405 60.506057 60.344701 59.791043 59.444683 C 59.191031 58.684668 58.358542 58.3047 57.293521 58.3047 z M 93.899039 58.3047 C 92.834018 58.3047 92.00428 58.679682 91.409268 59.429696 C 90.689254 60.339714 90.329231 61.829668 90.329231 63.899708 C 90.329231 66.009749 90.656587 67.477524 91.3116 68.30254 C 91.966613 69.122556 92.829018 69.532439 93.899039 69.532439 C 94.96406 69.532439 95.794315 69.157458 96.389326 68.407443 C 97.109341 67.497426 97.469364 66.002486 97.469364 63.922445 C 97.469364 61.837405 97.111575 60.344701 96.396561 59.444683 C 95.796549 58.684668 94.96406 58.3047 93.899039 58.3047 z M 106.10088 58.3047 C 105.03586 58.3047 104.20612 58.679682 103.61111 59.429696 C 102.89109 60.339714 102.53107 61.829668 102.53107 63.899708 C 102.53107 66.009749 102.85843 67.477524 103.51344 68.30254 C 104.16845 69.122556 105.03086 69.532439 106.10088 69.532439 C 107.1659 69.532439 107.99615 69.157458 108.59117 68.407443 C 109.31118 67.497426 109.6712 66.002486 109.6712 63.922445 C 109.6712 61.837405 109.31341 60.344701 108.5984 59.444683 C 107.99839 58.684668 107.1659 58.3047 106.10088 58.3047 z M 118.30272 58.3047 C 117.2377 58.3047 116.40796 58.679682 115.81295 59.429696 C 115.09293 60.339714 114.73291 61.829668 114.73291 63.899708 C 114.73291 66.009749 115.06027 67.477524 115.71528 68.30254 C 116.37029 69.122556 117.2327 69.532439 118.30272 69.532439 C 119.36774 69.532439 120.19799 69.157458 120.793 68.407443 C 121.51302 67.497426 121.87304 66.002486 121.87304 63.922445 C 121.87304 61.837405 121.51525 60.344701 120.80024 59.444683 C 120.20023 58.684668 119.36774 58.3047 118.30272 58.3047 z M 130.50456 58.3047 C 129.43954 58.3047 128.6098 58.679682 128.01479 59.429696 C 127.29477 60.339714 126.93475 61.829668 126.93475 63.899708 C 126.93475 66.009749 127.2621 67.477524 127.91712 68.30254 C 128.57213 69.122556 129.43454 69.532439 130.50456 69.532439 C 131.56958 69.532439 132.39983 69.157458 132.99484 68.407443 C 133.71486 67.497426 134.07488 66.002486 134.07488 63.922445 C 134.07488 61.837405 133.71709 60.344701 133.00208 59.444683 C 132.40207 58.684668 131.56958 58.3047 130.50456 58.3047 z M 154.90875 58.3047 C 153.84373 58.3047 153.01348 58.679682 152.41846 59.429696 C 151.69845 60.339714 151.33843 61.829668 151.33843 63.899708 C 151.33843 66.009749 151.66578 67.477524 152.3208 68.30254 C 152.97581 69.122556 153.83873 69.532439 154.90875 69.532439 C 155.97377 69.532439 156.80351 69.157458 157.39852 68.407443 C 158.11854 67.497426 158.47856 66.002486 158.47856 63.922445 C 158.47856 61.837405 158.12129 60.344701 157.40627 59.444683 C 156.80626 58.684668 155.97377 58.3047 154.90875 58.3047 z M 69.61525 58.398235 C 69.375245 59.068248 68.932694 59.655908 68.287682 60.160918 C 67.64267 60.660927 67.045038 61.001007 66.495027 61.181011 L 66.495027 63.093555 C 67.540047 62.748549 68.447843 62.215734 69.217858 61.49572 L 69.217858 69.438388 L 71.325223 69.438388 L 71.325223 58.398235 L 69.61525 58.398235 z M 81.817089 58.398235 C 81.577084 59.068248 81.134534 59.655908 80.489522 60.160918 C 79.844509 60.660927 79.246877 61.001007 78.696866 61.181011 L 78.696866 63.093555 C 79.741886 62.748549 80.649682 62.215734 81.419697 61.49572 L 81.419697 69.438388 L 83.527062 69.438388 L 83.527062 58.398235 L 81.817089 58.398235 z M 142.8268 58.398235 C 142.5868 59.068248 142.14425 59.655908 141.49923 60.160918 C 140.85422 60.660927 140.25659 61.001007 139.70658 61.181011 L 139.70658 63.093555 C 140.75161 62.748549 141.6594 62.215734 142.42941 61.49572 L 142.42941 69.438388 L 144.53678 69.438388 L 144.53678 58.398235 L 142.8268 58.398235 z M 45.091682 60.052397 C 45.346687 60.052397 45.571572 60.134407 45.766576 60.299411 C 45.96658 60.459414 46.131634 60.782301 46.261637 61.26731 C 46.391639 61.74732 46.456457 62.63242 46.456457 63.922445 C 46.456457 65.212471 46.383902 66.127488 46.238899 66.667498 C 46.128897 67.087506 45.973815 67.37996 45.773811 67.544963 C 45.573807 67.704966 45.346687 67.784742 45.091682 67.784742 C 44.836677 67.784742 44.609041 67.704966 44.409037 67.544963 C 44.214033 67.38496 44.051214 67.064825 43.921211 66.584815 C 43.791208 66.099806 43.726391 65.212471 43.726391 63.922445 C 43.726391 62.63242 43.798946 61.714653 43.943949 61.169642 C 44.053951 60.749634 44.209033 60.459414 44.409037 60.299411 C 44.609041 60.134407 44.836677 60.052397 45.091682 60.052397 z M 57.293521 60.052397 C 57.548526 60.052397 57.773412 60.134407 57.968416 60.299411 C 58.16842 60.459414 58.333473 60.782301 58.463476 61.26731 C 58.593478 61.74732 58.658296 62.63242 58.658296 63.922445 C 58.658296 65.212471 58.585741 66.127488 58.440738 66.667498 C 58.330736 67.087506 58.175654 67.37996 57.97565 67.544963 C 57.775646 67.704966 57.548526 67.784742 57.293521 67.784742 C 57.038516 67.784742 56.81088 67.704966 56.610876 67.544963 C 56.415872 67.38496 56.25357 67.064825 56.123567 66.584815 C 55.993564 66.099806 55.92823 65.212471 55.92823 63.922445 C 55.92823 62.63242 56.000785 61.714653 56.145788 61.169642 C 56.255791 60.749634 56.410872 60.459414 56.610876 60.299411 C 56.81088 60.134407 57.038516 60.052397 57.293521 60.052397 z M 93.899039 60.052397 C 94.154044 60.052397 94.378929 60.134407 94.573933 60.299411 C 94.773937 60.459414 94.938991 60.782301 95.068993 61.26731 C 95.198995 61.74732 95.26433 62.63242 95.26433 63.922445 C 95.26433 65.212471 95.191775 66.127488 95.046773 66.667498 C 94.936771 67.087506 94.781689 67.37996 94.581685 67.544963 C 94.381681 67.704966 94.154044 67.784742 93.899039 67.784742 C 93.644034 67.784742 93.416397 67.704966 93.216393 67.544963 C 93.02139 67.38496 92.859087 67.064825 92.729085 66.584815 C 92.599082 66.099806 92.534264 65.212471 92.534264 63.922445 C 92.534264 62.63242 92.606303 61.714653 92.751305 61.169642 C 92.861308 60.749634 93.01639 60.459414 93.216393 60.299411 C 93.416397 60.134407 93.644034 60.052397 93.899039 60.052397 z M 106.10088 60.052397 C 106.35588 60.052397 106.58077 60.134407 106.77577 60.299411 C 106.97578 60.459414 107.14083 60.782301 107.27083 61.26731 C 107.40083 61.74732 107.46617 62.63242 107.46617 63.922445 C 107.46617 65.212471 107.39361 66.127488 107.24861 66.667498 C 107.13861 67.087506 106.98353 67.37996 106.78352 67.544963 C 106.58352 67.704966 106.35588 67.784742 106.10088 67.784742 C 105.84587 67.784742 105.61824 67.704966 105.41823 67.544963 C 105.22323 67.38496 105.06092 67.064825 104.93092 66.584815 C 104.80092 66.099806 104.7361 65.212471 104.7361 63.922445 C 104.7361 62.63242 104.80865 61.714653 104.95366 61.169642 C 105.06366 60.749634 105.21823 60.459414 105.41823 60.299411 C 105.61824 60.134407 105.84587 60.052397 106.10088 60.052397 z M 118.30272 60.052397 C 118.55772 60.052397 118.78312 60.134407 118.97813 60.299411 C 119.17813 60.459414 119.34267 60.782301 119.47267 61.26731 C 119.60267 61.74732 119.66801 62.63242 119.66801 63.922445 C 119.66801 65.212471 119.59546 66.127488 119.45045 66.667498 C 119.34045 67.087506 119.18536 67.37996 118.98536 67.544963 C 118.78536 67.704966 118.55772 67.784742 118.30272 67.784742 C 118.04771 67.784742 117.82059 67.704966 117.62059 67.544963 C 117.42558 67.38496 117.26276 67.064825 117.13276 66.584815 C 117.00276 66.099806 116.93794 65.212471 116.93794 63.922445 C 116.93794 62.63242 117.0105 61.714653 117.1555 61.169642 C 117.2655 60.749634 117.42058 60.459414 117.62059 60.299411 C 117.82059 60.134407 118.04771 60.052397 118.30272 60.052397 z M 130.50456 60.052397 C 130.75956 60.052397 130.98497 60.134407 131.17997 60.299411 C 131.37997 60.459414 131.54503 60.782301 131.67503 61.26731 C 131.80503 61.74732 131.86985 62.63242 131.86985 63.922445 C 131.86985 65.212471 131.7973 66.127488 131.65229 66.667498 C 131.54229 67.087506 131.38721 67.37996 131.1872 67.544963 C 130.9872 67.704966 130.75956 67.784742 130.50456 67.784742 C 130.24955 67.784742 130.02243 67.704966 129.82243 67.544963 C 129.62742 67.38496 129.4646 67.064825 129.3346 66.584815 C 129.2046 66.099806 129.13978 65.212471 129.13978 63.922445 C 129.13978 62.63242 129.21233 61.714653 129.35734 61.169642 C 129.46734 60.749634 129.62242 60.459414 129.82243 60.299411 C 130.02243 60.134407 130.24955 60.052397 130.50456 60.052397 z M 154.90875 60.052397 C 155.16376 60.052397 155.38865 60.134407 155.58365 60.299411 C 155.78365 60.459414 155.94871 60.782301 156.07871 61.26731 C 156.20871 61.74732 156.27353 62.63242 156.27353 63.922445 C 156.27353 65.212471 156.20097 66.127488 156.05597 66.667498 C 155.94597 67.087506 155.79089 67.37996 155.59088 67.544963 C 155.39088 67.704966 155.16376 67.784742 154.90875 67.784742 C 154.65375 67.784742 154.42611 67.704966 154.22611 67.544963 C 154.03111 67.38496 153.8688 67.064825 153.7388 66.584815 C 153.6088 66.099806 153.54346 65.212471 153.54346 63.922445 C 153.54346 62.63242 153.61601 61.714653 153.76102 61.169642 C 153.87102 60.749634 154.02611 60.459414 154.22611 60.299411 C 154.42611 60.134407 154.65375 60.052397 154.90875 60.052397 z M 69.495361 75.464893 C 68.43034 75.464893 67.600085 75.839875 67.005073 76.589889 C 66.285059 77.499907 65.925036 78.98986 65.925036 81.059901 C 65.925036 83.169942 66.252908 84.637717 66.907922 85.462733 C 67.562934 86.282749 68.42534 86.692632 69.495361 86.692632 C 70.560381 86.692632 71.390119 86.317651 71.985131 85.567636 C 72.705145 84.657618 73.065169 83.162678 73.065169 81.082638 C 73.065169 78.997597 72.707897 77.504893 71.992883 76.604875 C 71.392871 75.844861 70.560381 75.464893 69.495361 75.464893 z M 81.6972 75.464893 C 80.632179 75.464893 79.801924 75.839875 79.206913 76.589889 C 78.486899 77.499907 78.126875 78.98986 78.126875 81.059901 C 78.126875 83.169942 78.454748 84.637717 79.109761 85.462733 C 79.764774 86.282749 80.627179 86.692632 81.6972 86.692632 C 82.762221 86.692632 83.591959 86.317651 84.18697 85.567636 C 84.906984 84.657618 85.267008 83.162678 85.267008 81.082638 C 85.267008 78.997597 84.909736 77.504893 84.194722 76.604875 C 83.59471 75.844861 82.762221 75.464893 81.6972 75.464893 z M 130.50456 75.464893 C 129.43954 75.464893 128.6098 75.839875 128.01479 76.589889 C 127.29477 77.499907 126.93475 78.98986 126.93475 81.059901 C 126.93475 83.169942 127.2621 84.637717 127.91712 85.462733 C 128.57213 86.282749 129.43454 86.692632 130.50456 86.692632 C 131.56958 86.692632 132.39983 86.317651 132.99484 85.567636 C 133.71486 84.657618 134.07488 83.162678 134.07488 81.082638 C 134.07488 78.997597 133.71709 77.504893 133.00208 76.604875 C 132.40207 75.844861 131.56958 75.464893 130.50456 75.464893 z M 45.211572 75.558944 C 44.971567 76.228957 44.529017 76.816101 43.884004 77.321111 C 43.238991 77.821121 42.641359 78.1612 42.091349 78.341204 L 42.091349 80.253748 C 43.136369 79.908741 44.043648 79.376444 44.813663 78.65643 L 44.813663 86.599097 L 46.921545 86.599097 L 46.921545 75.558944 L 45.211572 75.558944 z M 57.413411 75.558944 C 57.173406 76.228957 56.730856 76.816101 56.085843 77.321111 C 55.440831 77.821121 54.843198 78.1612 54.293188 78.341204 L 54.293188 80.253748 C 55.338208 79.908741 56.246004 79.376444 57.016019 78.65643 L 57.016019 86.599097 L 59.123384 86.599097 L 59.123384 75.558944 L 57.413411 75.558944 z M 94.018928 75.558944 C 93.778924 76.228957 93.336373 76.816101 92.691361 77.321111 C 92.046348 77.821121 91.449233 78.1612 90.899222 78.341204 L 90.899222 80.253748 C 91.944243 79.908741 92.851522 79.376444 93.621537 78.65643 L 93.621537 86.599097 L 95.728901 86.599097 L 95.728901 75.558944 L 94.018928 75.558944 z M 106.22077 75.558944 C 105.98076 76.228957 105.53821 76.816101 104.8932 77.321111 C 104.24819 77.821121 103.65107 78.1612 103.10106 78.341204 L 103.10106 80.253748 C 104.14608 79.908741 105.05336 79.376444 105.82338 78.65643 L 105.82338 86.599097 L 107.93126 86.599097 L 107.93126 75.558944 L 106.22077 75.558944 z M 118.42312 75.558944 C 118.18312 76.228957 117.74057 76.816101 117.09556 77.321111 C 116.45054 77.821121 115.85291 78.1612 115.3029 78.341204 L 115.3029 80.253748 C 116.34792 79.908741 117.25519 79.376444 118.02521 78.65643 L 118.02521 86.599097 L 120.1331 86.599097 L 120.1331 75.558944 L 118.42312 75.558944 z M 142.8268 75.558944 C 142.5868 76.228957 142.14425 76.816101 141.49923 77.321111 C 140.85422 77.821121 140.25659 78.1612 139.70658 78.341204 L 139.70658 80.253748 C 140.75161 79.908741 141.6594 79.376444 142.42941 78.65643 L 142.42941 86.599097 L 144.53678 86.599097 L 144.53678 75.558944 L 142.8268 75.558944 z M 155.02864 75.558944 C 154.78863 76.228957 154.34609 76.816101 153.70107 77.321111 C 153.05607 77.821121 152.45843 78.1612 151.90842 78.341204 L 151.90842 80.253748 C 152.95344 79.908741 153.86124 79.376444 154.63125 78.65643 L 154.63125 86.599097 L 156.73861 86.599097 L 156.73861 75.558944 L 155.02864 75.558944 z M 69.495361 77.21259 C 69.750366 77.21259 69.975251 77.295117 70.170255 77.46012 C 70.370259 77.620123 70.535312 77.942493 70.665315 78.427503 C 70.795318 78.907513 70.860135 79.792613 70.860135 81.082638 C 70.860135 82.372663 70.78758 83.28768 70.642577 83.82769 C 70.532575 84.247698 70.37801 84.540153 70.178006 84.705156 C 69.978003 84.86516 69.750366 84.944935 69.495361 84.944935 C 69.240356 84.944935 69.012719 84.86516 68.812715 84.705156 C 68.617711 84.545154 68.455409 84.225017 68.325406 83.745008 C 68.195404 83.259998 68.130069 82.372663 68.130069 81.082638 C 68.130069 79.792613 68.202624 78.874845 68.347627 78.329835 C 68.457629 77.909826 68.612711 77.620123 68.812715 77.46012 C 69.012719 77.295117 69.240356 77.21259 69.495361 77.21259 z M 81.6972 77.21259 C 81.952205 77.21259 82.17709 77.295117 82.372094 77.46012 C 82.572098 77.620123 82.737152 77.942493 82.867154 78.427503 C 82.997157 78.907513 83.061974 79.792613 83.061974 81.082638 C 83.061974 82.372663 82.989936 83.28768 82.844933 83.82769 C 82.734931 84.247698 82.579849 84.540153 82.379845 84.705156 C 82.179841 84.86516 81.952205 84.944935 81.6972 84.944935 C 81.442195 84.944935 81.214558 84.86516 81.014554 84.705156 C 80.81955 84.545154 80.657247 84.225017 80.527245 83.745008 C 80.397243 83.259998 80.331908 82.372663 80.331908 81.082638 C 80.331908 79.792613 80.404464 78.874845 80.549466 78.329835 C 80.659468 77.909826 80.81455 77.620123 81.014554 77.46012 C 81.214558 77.295117 81.442195 77.21259 81.6972 77.21259 z M 130.50456 77.21259 C 130.75956 77.21259 130.98497 77.295117 131.17997 77.46012 C 131.37997 77.620123 131.54503 77.942493 131.67503 78.427503 C 131.80503 78.907513 131.86985 79.792613 131.86985 81.082638 C 131.86985 82.372663 131.7973 83.28768 131.65229 83.82769 C 131.54229 84.247698 131.38721 84.540153 131.1872 84.705156 C 130.9872 84.86516 130.75956 84.944935 130.50456 84.944935 C 130.24955 84.944935 130.02243 84.86516 129.82243 84.705156 C 129.62742 84.545154 129.4646 84.225017 129.3346 83.745008 C 129.2046 83.259998 129.13978 82.372663 129.13978 81.082638 C 129.13978 79.792613 129.21233 78.874845 129.35734 78.329835 C 129.46734 77.909826 129.62242 77.620123 129.82243 77.46012 C 130.02243 77.295117 130.24955 77.21259 130.50456 77.21259 z M 45.091682 92.625086 C 44.026661 92.625086 43.196406 93.000067 42.601395 93.750082 C 41.881381 94.6601 41.521358 96.15057 41.521358 98.22061 C 41.521358 100.33065 41.848714 101.79791 42.503727 102.62293 C 43.158739 103.44294 44.021661 103.85282 45.091682 103.85282 C 46.156703 103.85282 46.986441 103.47784 47.581453 102.72783 C 48.301467 101.81781 48.66149 100.32287 48.66149 98.242831 C 48.66149 96.157791 48.304218 94.665086 47.589204 93.765068 C 46.989193 93.005054 46.156703 92.625086 45.091682 92.625086 z M 57.293521 92.625086 C 56.228501 92.625086 55.398246 93.000067 54.803234 93.750082 C 54.08322 94.6601 53.723197 96.15057 53.723197 98.22061 C 53.723197 100.33065 54.050553 101.79791 54.705566 102.62293 C 55.360578 103.44294 56.2235 103.85282 57.293521 103.85282 C 58.358542 103.85282 59.188281 103.47784 59.783292 102.72783 C 60.503307 101.81781 60.863329 100.32287 60.863329 98.242831 C 60.863329 96.157791 60.506057 94.665086 59.791043 93.765068 C 59.191031 93.005054 58.358542 92.625086 57.293521 92.625086 z M 69.495361 92.625086 C 68.43034 92.625086 67.600085 93.000067 67.005073 93.750082 C 66.285059 94.6601 65.925036 96.15057 65.925036 98.22061 C 65.925036 100.33065 66.252908 101.79791 66.907922 102.62293 C 67.562934 103.44294 68.42534 103.85282 69.495361 103.85282 C 70.560381 103.85282 71.390119 103.47784 71.985131 102.72783 C 72.705145 101.81781 73.065169 100.32287 73.065169 98.242831 C 73.065169 96.157791 72.707897 94.665086 71.992883 93.765068 C 71.392871 93.005054 70.560381 92.625086 69.495361 92.625086 z M 81.6972 92.625086 C 80.632179 92.625086 79.801924 93.000067 79.206913 93.750082 C 78.486899 94.6601 78.126875 96.15057 78.126875 98.22061 C 78.126875 100.33065 78.454748 101.79791 79.109761 102.62293 C 79.764774 103.44294 80.627179 103.85282 81.6972 103.85282 C 82.762221 103.85282 83.591959 103.47784 84.18697 102.72783 C 84.906984 101.81781 85.267008 100.32287 85.267008 98.242831 C 85.267008 96.157791 84.909736 94.665086 84.194722 93.765068 C 83.59471 93.005054 82.762221 92.625086 81.6972 92.625086 z M 106.10088 92.625086 C 105.03586 92.625086 104.20612 93.000067 103.61111 93.750082 C 102.89109 94.6601 102.53107 96.15057 102.53107 98.22061 C 102.53107 100.33065 102.85843 101.79791 103.51344 102.62293 C 104.16845 103.44294 105.03086 103.85282 106.10088 103.85282 C 107.1659 103.85282 107.99615 103.47784 108.59117 102.72783 C 109.31118 101.81781 109.6712 100.32287 109.6712 98.242831 C 109.6712 96.157791 109.31341 94.665086 108.5984 93.765068 C 107.99839 93.005054 107.1659 92.625086 106.10088 92.625086 z M 154.90875 92.625086 C 153.84373 92.625086 153.01348 93.000067 152.41846 93.750082 C 151.69845 94.6601 151.33843 96.15057 151.33843 98.22061 C 151.33843 100.33065 151.66578 101.79791 152.3208 102.62293 C 152.97581 103.44294 153.83873 103.85282 154.90875 103.85282 C 155.97377 103.85282 156.80351 103.47784 157.39852 102.72783 C 158.11854 101.81781 158.47856 100.32287 158.47856 98.242831 C 158.47856 96.157791 158.12129 94.665086 157.40627 93.765068 C 156.80626 93.005054 155.97377 92.625086 154.90875 92.625086 z M 94.018928 92.719137 C 93.778924 93.389151 93.336373 93.97681 92.691361 94.48182 C 92.046348 94.98183 91.449233 95.321392 90.899222 95.501396 L 90.899222 97.413941 C 91.944243 97.068935 92.851522 96.536637 93.621537 95.816623 L 93.621537 103.75929 L 95.728901 103.75929 L 95.728901 92.719137 L 94.018928 92.719137 z M 118.42312 92.719137 C 118.18312 93.389151 117.74057 93.97681 117.09556 94.48182 C 116.45054 94.98183 115.85291 95.321392 115.3029 95.501396 L 115.3029 97.413941 C 116.34792 97.068935 117.25519 96.536637 118.02521 95.816623 L 118.02521 103.75929 L 120.1331 103.75929 L 120.1331 92.719137 L 118.42312 92.719137 z M 130.62496 92.719137 C 130.38496 93.389151 129.9424 93.97681 129.2974 94.48182 C 128.65238 94.98183 128.05475 95.321392 127.50474 95.501396 L 127.50474 97.413941 C 128.54976 97.068935 129.45704 96.536637 130.22705 95.816623 L 130.22705 103.75929 L 132.33494 103.75929 L 132.33494 92.719137 L 130.62496 92.719137 z M 142.8268 92.719137 C 142.5868 93.389151 142.14425 93.97681 141.49923 94.48182 C 140.85422 94.98183 140.25659 95.321392 139.70658 95.501396 L 139.70658 97.413941 C 140.75161 97.068935 141.6594 96.536637 142.42941 95.816623 L 142.42941 103.75929 L 144.53678 103.75929 L 144.53678 92.719137 L 142.8268 92.719137 z M 45.091682 94.372783 C 45.346687 94.372783 45.571572 94.45531 45.766576 94.620313 C 45.96658 94.780317 46.131634 95.102687 46.261637 95.587696 C 46.391639 96.067705 46.456457 96.952806 46.456457 98.242831 C 46.456457 99.532857 46.383902 100.44788 46.238899 100.98788 C 46.128897 101.4079 45.973815 101.70035 45.773811 101.86535 C 45.573807 102.02536 45.346687 102.10564 45.091682 102.10564 C 44.836677 102.10564 44.609041 102.02536 44.409037 101.86535 C 44.214033 101.70535 44.051214 101.38521 43.921211 100.9052 C 43.791208 100.42019 43.726391 99.532857 43.726391 98.242831 C 43.726391 96.952806 43.798946 96.035555 43.943949 95.490544 C 44.053951 95.070536 44.209033 94.780317 44.409037 94.620313 C 44.609041 94.45531 44.836677 94.372783 45.091682 94.372783 z M 57.293521 94.372783 C 57.548526 94.372783 57.773412 94.45531 57.968416 94.620313 C 58.16842 94.780317 58.333473 95.102687 58.463476 95.587696 C 58.593478 96.067705 58.658296 96.952806 58.658296 98.242831 C 58.658296 99.532857 58.585741 100.44788 58.440738 100.98788 C 58.330736 101.4079 58.175654 101.70035 57.97565 101.86535 C 57.775646 102.02536 57.548526 102.10564 57.293521 102.10564 C 57.038516 102.10564 56.81088 102.02536 56.610876 101.86535 C 56.415872 101.70535 56.25357 101.38521 56.123567 100.9052 C 55.993564 100.42019 55.92823 99.532857 55.92823 98.242831 C 55.92823 96.952806 56.000785 96.035555 56.145788 95.490544 C 56.255791 95.070536 56.410872 94.780317 56.610876 94.620313 C 56.81088 94.45531 57.038516 94.372783 57.293521 94.372783 z M 69.495361 94.372783 C 69.750366 94.372783 69.975251 94.45531 70.170255 94.620313 C 70.370259 94.780317 70.535312 95.102687 70.665315 95.587696 C 70.795318 96.067705 70.860135 96.952806 70.860135 98.242831 C 70.860135 99.532857 70.78758 100.44788 70.642577 100.98788 C 70.532575 101.4079 70.37801 101.70035 70.178006 101.86535 C 69.978003 102.02536 69.750366 102.10564 69.495361 102.10564 C 69.240356 102.10564 69.012719 102.02536 68.812715 101.86535 C 68.617711 101.70535 68.455409 101.38521 68.325406 100.9052 C 68.195404 100.42019 68.130069 99.532857 68.130069 98.242831 C 68.130069 96.952806 68.202624 96.035555 68.347627 95.490544 C 68.457629 95.070536 68.612711 94.780317 68.812715 94.620313 C 69.012719 94.45531 69.240356 94.372783 69.495361 94.372783 z M 81.6972 94.372783 C 81.952205 94.372783 82.17709 94.45531 82.372094 94.620313 C 82.572098 94.780317 82.737152 95.102687 82.867154 95.587696 C 82.997157 96.067705 83.061974 96.952806 83.061974 98.242831 C 83.061974 99.532857 82.989936 100.44788 82.844933 100.98788 C 82.734931 101.4079 82.579849 101.70035 82.379845 101.86535 C 82.179841 102.02536 81.952205 102.10564 81.6972 102.10564 C 81.442195 102.10564 81.214558 102.02536 81.014554 101.86535 C 80.81955 101.70535 80.657247 101.38521 80.527245 100.9052 C 80.397243 100.42019 80.331908 99.532857 80.331908 98.242831 C 80.331908 96.952806 80.404464 96.035555 80.549466 95.490544 C 80.659468 95.070536 80.81455 94.780317 81.014554 94.620313 C 81.214558 94.45531 81.442195 94.372783 81.6972 94.372783 z M 106.10088 94.372783 C 106.35588 94.372783 106.58077 94.45531 106.77577 94.620313 C 106.97578 94.780317 107.14083 95.102687 107.27083 95.587696 C 107.40083 96.067705 107.46617 96.952806 107.46617 98.242831 C 107.46617 99.532857 107.39361 100.44788 107.24861 100.98788 C 107.13861 101.4079 106.98353 101.70035 106.78352 101.86535 C 106.58352 102.02536 106.35588 102.10564 106.10088 102.10564 C 105.84587 102.10564 105.61824 102.02536 105.41823 101.86535 C 105.22323 101.70535 105.06092 101.38521 104.93092 100.9052 C 104.80092 100.42019 104.7361 99.532857 104.7361 98.242831 C 104.7361 96.952806 104.80865 96.035555 104.95366 95.490544 C 105.06366 95.070536 105.21823 94.780317 105.41823 94.620313 C 105.61824 94.45531 105.84587 94.372783 106.10088 94.372783 z M 154.90875 94.372783 C 155.16376 94.372783 155.38865 94.45531 155.58365 94.620313 C 155.78365 94.780317 155.94871 95.102687 156.07871 95.587696 C 156.20871 96.067705 156.27353 96.952806 156.27353 98.242831 C 156.27353 99.532857 156.20097 100.44788 156.05597 100.98788 C 155.94597 101.4079 155.79089 101.70035 155.59088 101.86535 C 155.39088 102.02536 155.16376 102.10564 154.90875 102.10564 C 154.65375 102.10564 154.42611 102.02536 154.22611 101.86535 C 154.03111 101.70535 153.8688 101.38521 153.7388 100.9052 C 153.6088 100.42019 153.54346 99.532857 153.54346 98.242831 C 153.54346 96.952806 153.61601 96.035555 153.76102 95.490544 C 153.87102 95.070536 154.02611 94.780317 154.22611 94.620313 C 154.42611 94.45531 154.65375 94.372783 154.90875 94.372783 z M 57.293521 109.7858 C 56.228501 109.7858 55.398246 110.16078 54.803234 110.91079 C 54.08322 111.82081 53.723197 113.31076 53.723197 115.3808 C 53.723197 117.49084 54.050553 118.9581 54.705566 119.78312 C 55.360578 120.60313 56.2235 121.01353 57.293521 121.01353 C 58.358542 121.01353 59.188281 120.63855 59.783292 119.88854 C 60.503307 118.97852 60.863329 117.48306 60.863329 115.40302 C 60.863329 113.31798 60.506057 111.82579 59.791043 110.92578 C 59.191031 110.16576 58.358542 109.7858 57.293521 109.7858 z M 130.50456 109.7858 C 129.43954 109.7858 128.6098 110.16078 128.01479 110.91079 C 127.29477 111.82081 126.93475 113.31076 126.93475 115.3808 C 126.93475 117.49084 127.2621 118.9581 127.91712 119.78312 C 128.57213 120.60313 129.43454 121.01353 130.50456 121.01353 C 131.56958 121.01353 132.39983 120.63855 132.99484 119.88854 C 133.71486 118.97852 134.07488 117.48306 134.07488 115.40302 C 134.07488 113.31798 133.71709 111.82579 133.00208 110.92578 C 132.40207 110.16576 131.56958 109.7858 130.50456 109.7858 z M 142.70691 109.7858 C 141.64189 109.7858 140.81164 110.16078 140.21663 110.91079 C 139.49661 111.82081 139.13659 113.31076 139.13659 115.3808 C 139.13659 117.49084 139.46394 118.9581 140.11896 119.78312 C 140.77397 120.60313 141.63689 121.01353 142.70691 121.01353 C 143.77193 121.01353 144.60167 120.63855 145.19668 119.88854 C 145.9167 118.97852 146.27672 117.48306 146.27672 115.40302 C 146.27672 113.31798 145.91945 111.82579 145.20443 110.92578 C 144.60442 110.16576 143.77193 109.7858 142.70691 109.7858 z M 154.90875 109.7858 C 153.84373 109.7858 153.01348 110.16078 152.41846 110.91079 C 151.69845 111.82081 151.33843 113.31076 151.33843 115.3808 C 151.33843 117.49084 151.66578 118.9581 152.3208 119.78312 C 152.97581 120.60313 153.83873 121.01353 154.90875 121.01353 C 155.97377 121.01353 156.80351 120.63855 157.39852 119.88854 C 158.11854 118.97852 158.47856 117.48306 158.47856 115.40302 C 158.47856 113.31798 158.12129 111.82579 157.40627 110.92578 C 156.80626 110.16576 155.97377 109.7858 154.90875 109.7858 z M 45.211572 109.87933 C 44.971567 110.54934 44.529017 111.137 43.884004 111.64201 C 43.238991 112.14202 42.641359 112.4821 42.091349 112.66211 L 42.091349 114.57465 C 43.136369 114.22964 44.043648 113.69683 44.813663 112.97682 L 44.813663 120.91948 L 46.921545 120.91948 L 46.921545 109.87933 L 45.211572 109.87933 z M 69.61525 109.87933 C 69.375245 110.54934 68.932694 111.137 68.287682 111.64201 C 67.64267 112.14202 67.045038 112.4821 66.495027 112.66211 L 66.495027 114.57465 C 67.540047 114.22964 68.447843 113.69683 69.217858 112.97682 L 69.217858 120.91948 L 71.325223 120.91948 L 71.325223 109.87933 L 69.61525 109.87933 z M 81.817089 109.87933 C 81.577084 110.54934 81.134534 111.137 80.489522 111.64201 C 79.844509 112.14202 79.246877 112.4821 78.696866 112.66211 L 78.696866 114.57465 C 79.741886 114.22964 80.649682 113.69683 81.419697 112.97682 L 81.419697 120.91948 L 83.527062 120.91948 L 83.527062 109.87933 L 81.817089 109.87933 z M 94.018928 109.87933 C 93.778924 110.54934 93.336373 111.137 92.691361 111.64201 C 92.046348 112.14202 91.449233 112.4821 90.899222 112.66211 L 90.899222 114.57465 C 91.944243 114.22964 92.851522 113.69683 93.621537 112.97682 L 93.621537 120.91948 L 95.728901 120.91948 L 95.728901 109.87933 L 94.018928 109.87933 z M 106.22077 109.87933 C 105.98076 110.54934 105.53821 111.137 104.8932 111.64201 C 104.24819 112.14202 103.65107 112.4821 103.10106 112.66211 L 103.10106 114.57465 C 104.14608 114.22964 105.05336 113.69683 105.82338 112.97682 L 105.82338 120.91948 L 107.93126 120.91948 L 107.93126 109.87933 L 106.22077 109.87933 z M 118.42312 109.87933 C 118.18312 110.54934 117.74057 111.137 117.09556 111.64201 C 116.45054 112.14202 115.85291 112.4821 115.3029 112.66211 L 115.3029 114.57465 C 116.34792 114.22964 117.25519 113.69683 118.02521 112.97682 L 118.02521 120.91948 L 120.1331 120.91948 L 120.1331 109.87933 L 118.42312 109.87933 z M 57.293521 111.53298 C 57.548526 111.53298 57.773412 111.61551 57.968416 111.78051 C 58.16842 111.94051 58.333473 112.2634 58.463476 112.74841 C 58.593478 113.22841 58.658296 114.113 58.658296 115.40302 C 58.658296 116.69305 58.585741 117.60806 58.440738 118.14808 C 58.330736 118.56808 58.175654 118.86054 57.97565 119.02554 C 57.775646 119.18555 57.548526 119.26584 57.293521 119.26584 C 57.038516 119.26584 56.81088 119.18555 56.610876 119.02554 C 56.415872 118.86554 56.25357 118.54592 56.123567 118.06591 C 55.993564 117.5809 55.92823 116.69305 55.92823 115.40302 C 55.92823 114.113 56.000785 113.19574 56.145788 112.65074 C 56.255791 112.23073 56.410872 111.94051 56.610876 111.78051 C 56.81088 111.61551 57.038516 111.53298 57.293521 111.53298 z M 130.50456 111.53298 C 130.75956 111.53298 130.98497 111.61551 131.17997 111.78051 C 131.37997 111.94051 131.54503 112.2634 131.67503 112.74841 C 131.80503 113.22841 131.86985 114.113 131.86985 115.40302 C 131.86985 116.69305 131.7973 117.60806 131.65229 118.14808 C 131.54229 118.56808 131.38721 118.86054 131.1872 119.02554 C 130.9872 119.18555 130.75956 119.26584 130.50456 119.26584 C 130.24955 119.26584 130.02243 119.18555 129.82243 119.02554 C 129.62742 118.86554 129.4646 118.54592 129.3346 118.06591 C 129.2046 117.5809 129.13978 116.69305 129.13978 115.40302 C 129.13978 114.113 129.21233 113.19574 129.35734 112.65074 C 129.46734 112.23073 129.62242 111.94051 129.82243 111.78051 C 130.02243 111.61551 130.24955 111.53298 130.50456 111.53298 z M 142.70691 111.53298 C 142.96192 111.53298 143.1868 111.61551 143.38181 111.78051 C 143.58181 111.94051 143.74686 112.2634 143.87687 112.74841 C 144.00687 113.22841 144.07169 114.113 144.07169 115.40302 C 144.07169 116.69305 143.99913 117.60806 143.85413 118.14808 C 143.74412 118.56808 143.58904 118.86054 143.38904 119.02554 C 143.18903 119.18555 142.96192 119.26584 142.70691 119.26584 C 142.45191 119.26584 142.22427 119.18555 142.02427 119.02554 C 141.82926 118.86554 141.66644 118.54592 141.53644 118.06591 C 141.40644 117.5809 141.34162 116.69305 141.34162 115.40302 C 141.34162 114.113 141.41418 113.19574 141.55918 112.65074 C 141.66918 112.23073 141.82426 111.94051 142.02427 111.78051 C 142.22427 111.61551 142.45191 111.53298 142.70691 111.53298 z M 154.90875 111.53298 C 155.16376 111.53298 155.38865 111.61551 155.58365 111.78051 C 155.78365 111.94051 155.94871 112.2634 156.07871 112.74841 C 156.20871 113.22841 156.27353 114.113 156.27353 115.40302 C 156.27353 116.69305 156.20097 117.60806 156.05597 118.14808 C 155.94597 118.56808 155.79089 118.86054 155.59088 119.02554 C 155.39088 119.18555 155.16376 119.26584 154.90875 119.26584 C 154.65375 119.26584 154.42611 119.18555 154.22611 119.02554 C 154.03111 118.86554 153.8688 118.54592 153.7388 118.06591 C 153.6088 117.5809 153.54346 116.69305 153.54346 115.40302 C 153.54346 114.113 153.61601 113.19574 153.76102 112.65074 C 153.87102 112.23073 154.02611 111.94051 154.22611 111.78051 C 154.42611 111.61551 154.65375 111.53298 154.90875 111.53298 z M 69.495361 126.94599 C 68.43034 126.94599 67.600085 127.32097 67.005073 128.07098 C 66.285059 128.981 65.925036 130.47096 65.925036 132.541 C 65.925036 134.65104 66.252908 136.11881 66.907922 136.94383 C 67.562934 137.76384 68.42534 138.17373 69.495361 138.17373 C 70.560381 138.17373 71.390119 137.79874 71.985131 137.04873 C 72.705145 136.13871 73.065169 134.64377 73.065169 132.56373 C 73.065169 130.47869 72.707897 128.98599 71.992883 128.08597 C 71.392871 127.32596 70.560381 126.94599 69.495361 126.94599 z M 81.6972 126.94599 C 80.632179 126.94599 79.801924 127.32097 79.206913 128.07098 C 78.486899 128.981 78.126875 130.47096 78.126875 132.541 C 78.126875 134.65104 78.454748 136.11881 79.109761 136.94383 C 79.764774 137.76384 80.627179 138.17373 81.6972 138.17373 C 82.762221 138.17373 83.591959 137.79874 84.18697 137.04873 C 84.906984 136.13871 85.267008 134.64377 85.267008 132.56373 C 85.267008 130.47869 84.909736 128.98599 84.194722 128.08597 C 83.59471 127.32596 82.762221 126.94599 81.6972 126.94599 z M 93.899039 126.94599 C 92.834018 126.94599 92.00428 127.32097 91.409268 128.07098 C 90.689254 128.981 90.329231 130.47096 90.329231 132.541 C 90.329231 134.65104 90.656587 136.11881 91.3116 136.94383 C 91.966613 137.76384 92.829018 138.17373 93.899039 138.17373 C 94.96406 138.17373 95.794315 137.79874 96.389326 137.04873 C 97.109341 136.13871 97.469364 134.64377 97.469364 132.56373 C 97.469364 130.47869 97.111575 128.98599 96.396561 128.08597 C 95.796549 127.32596 94.96406 126.94599 93.899039 126.94599 z M 106.10088 126.94599 C 105.03586 126.94599 104.20612 127.32097 103.61111 128.07098 C 102.89109 128.981 102.53107 130.47096 102.53107 132.541 C 102.53107 134.65104 102.85843 136.11881 103.51344 136.94383 C 104.16845 137.76384 105.03086 138.17373 106.10088 138.17373 C 107.1659 138.17373 107.99615 137.79874 108.59117 137.04873 C 109.31118 136.13871 109.6712 134.64377 109.6712 132.56373 C 109.6712 130.47869 109.31341 128.98599 108.5984 128.08597 C 107.99839 127.32596 107.1659 126.94599 106.10088 126.94599 z M 118.30272 126.94599 C 117.2377 126.94599 116.40796 127.32097 115.81295 128.07098 C 115.09293 128.981 114.73291 130.47096 114.73291 132.541 C 114.73291 134.65104 115.06027 136.11881 115.71528 136.94383 C 116.37029 137.76384 117.2327 138.17373 118.30272 138.17373 C 119.36774 138.17373 120.19799 137.79874 120.793 137.04873 C 121.51302 136.13871 121.87304 134.64377 121.87304 132.56373 C 121.87304 130.47869 121.51525 128.98599 120.80024 128.08597 C 120.20023 127.32596 119.36774 126.94599 118.30272 126.94599 z M 45.211572 127.03952 C 44.971567 127.70954 44.529017 128.2972 43.884004 128.80221 C 43.238991 129.30222 42.641359 129.6423 42.091349 129.8223 L 42.091349 131.73484 C 43.136369 131.38984 44.043648 130.85754 44.813663 130.13753 L 44.813663 138.07968 L 46.921545 138.07968 L 46.921545 127.03952 L 45.211572 127.03952 z M 57.413411 127.03952 C 57.173406 127.70954 56.730856 128.2972 56.085843 128.80221 C 55.440831 129.30222 54.843198 129.6423 54.293188 129.8223 L 54.293188 131.73484 C 55.338208 131.38984 56.246004 130.85754 57.016019 130.13753 L 57.016019 138.07968 L 59.123384 138.07968 L 59.123384 127.03952 L 57.413411 127.03952 z M 130.62496 127.03952 C 130.38496 127.70954 129.9424 128.2972 129.2974 128.80221 C 128.65238 129.30222 128.05475 129.6423 127.50474 129.8223 L 127.50474 131.73484 C 128.54976 131.38984 129.45704 130.85754 130.22705 130.13753 L 130.22705 138.07968 L 132.33494 138.07968 L 132.33494 127.03952 L 130.62496 127.03952 z M 142.8268 127.03952 C 142.5868 127.70954 142.14425 128.2972 141.49923 128.80221 C 140.85422 129.30222 140.25659 129.6423 139.70658 129.8223 L 139.70658 131.73484 C 140.75161 131.38984 141.6594 130.85754 142.42941 130.13753 L 142.42941 138.07968 L 144.53678 138.07968 L 144.53678 127.03952 L 142.8268 127.03952 z M 155.02864 127.03952 C 154.78863 127.70954 154.34609 128.2972 153.70107 128.80221 C 153.05607 129.30222 152.45843 129.6423 151.90842 129.8223 L 151.90842 131.73484 C 152.95344 131.38984 153.86124 130.85754 154.63125 130.13753 L 154.63125 138.07968 L 156.73861 138.07968 L 156.73861 127.03952 L 155.02864 127.03952 z M 69.495361 128.69369 C 69.750366 128.69369 69.975251 128.77621 70.170255 128.94122 C 70.370259 129.10122 70.535312 129.42359 70.665315 129.9086 C 70.795318 130.38861 70.860135 131.27371 70.860135 132.56373 C 70.860135 133.85376 70.78758 134.76878 70.642577 135.30879 C 70.532575 135.7288 70.37801 136.02125 70.178006 136.18625 C 69.978003 136.34626 69.750366 136.42603 69.495361 136.42603 C 69.240356 136.42603 69.012719 136.34626 68.812715 136.18625 C 68.617711 136.02625 68.455409 135.70612 68.325406 135.2261 C 68.195404 134.7411 68.130069 133.85376 68.130069 132.56373 C 68.130069 131.27371 68.202624 130.35594 68.347627 129.81093 C 68.457629 129.39092 68.612711 129.10122 68.812715 128.94122 C 69.012719 128.77621 69.240356 128.69369 69.495361 128.69369 z M 81.6972 128.69369 C 81.952205 128.69369 82.17709 128.77621 82.372094 128.94122 C 82.572098 129.10122 82.737152 129.42359 82.867154 129.9086 C 82.997157 130.38861 83.061974 131.27371 83.061974 132.56373 C 83.061974 133.85376 82.989936 134.76878 82.844933 135.30879 C 82.734931 135.7288 82.579849 136.02125 82.379845 136.18625 C 82.179841 136.34626 81.952205 136.42603 81.6972 136.42603 C 81.442195 136.42603 81.214558 136.34626 81.014554 136.18625 C 80.81955 136.02625 80.657247 135.70612 80.527245 135.2261 C 80.397243 134.7411 80.331908 133.85376 80.331908 132.56373 C 80.331908 131.27371 80.404464 130.35594 80.549466 129.81093 C 80.659468 129.39092 80.81455 129.10122 81.014554 128.94122 C 81.214558 128.77621 81.442195 128.69369 81.6972 128.69369 z M 93.899039 128.69369 C 94.154044 128.69369 94.378929 128.77621 94.573933 128.94122 C 94.773937 129.10122 94.938991 129.42359 95.068993 129.9086 C 95.198995 130.38861 95.26433 131.27371 95.26433 132.56373 C 95.26433 133.85376 95.191775 134.76878 95.046773 135.30879 C 94.936771 135.7288 94.781689 136.02125 94.581685 136.18625 C 94.381681 136.34626 94.154044 136.42603 93.899039 136.42603 C 93.644034 136.42603 93.416397 136.34626 93.216393 136.18625 C 93.02139 136.02625 92.859087 135.70612 92.729085 135.2261 C 92.599082 134.7411 92.534264 133.85376 92.534264 132.56373 C 92.534264 131.27371 92.606303 130.35594 92.751305 129.81093 C 92.861308 129.39092 93.01639 129.10122 93.216393 128.94122 C 93.416397 128.77621 93.644034 128.69369 93.899039 128.69369 z M 106.10088 128.69369 C 106.35588 128.69369 106.58077 128.77621 106.77577 128.94122 C 106.97578 129.10122 107.14083 129.42359 107.27083 129.9086 C 107.40083 130.38861 107.46617 131.27371 107.46617 132.56373 C 107.46617 133.85376 107.39361 134.76878 107.24861 135.30879 C 107.13861 135.7288 106.98353 136.02125 106.78352 136.18625 C 106.58352 136.34626 106.35588 136.42603 106.10088 136.42603 C 105.84587 136.42603 105.61824 136.34626 105.41823 136.18625 C 105.22323 136.02625 105.06092 135.70612 104.93092 135.2261 C 104.80092 134.7411 104.7361 133.85376 104.7361 132.56373 C 104.7361 131.27371 104.80865 130.35594 104.95366 129.81093 C 105.06366 129.39092 105.21823 129.10122 105.41823 128.94122 C 105.61824 128.77621 105.84587 128.69369 106.10088 128.69369 z M 118.30272 128.69369 C 118.55772 128.69369 118.78312 128.77621 118.97813 128.94122 C 119.17813 129.10122 119.34267 129.42359 119.47267 129.9086 C 119.60267 130.38861 119.66801 131.27371 119.66801 132.56373 C 119.66801 133.85376 119.59546 134.76878 119.45045 135.30879 C 119.34045 135.7288 119.18536 136.02125 118.98536 136.18625 C 118.78536 136.34626 118.55772 136.42603 118.30272 136.42603 C 118.04771 136.42603 117.82059 136.34626 117.62059 136.18625 C 117.42558 136.02625 117.26276 135.70612 117.13276 135.2261 C 117.00276 134.7411 116.93794 133.85376 116.93794 132.56373 C 116.93794 131.27371 117.0105 130.35594 117.1555 129.81093 C 117.2655 129.39092 117.42058 129.10122 117.62059 128.94122 C 117.82059 128.77621 118.04771 128.69369 118.30272 128.69369 z M 169.12132 150.40399 C 168.11511 150.40399 167.29788 150.74369 166.66979 151.42305 C 166.04171 152.1024 165.72773 152.9871 165.72773 154.07663 C 165.72773 155.14053 166.0354 156.01841 166.65067 156.71058 C 167.27234 157.40275 168.05755 157.74876 169.00608 157.74876 C 169.48035 157.74876 169.8841 157.65898 170.21738 157.47953 C 170.55064 157.30007 170.8515 157.01523 171.12068 156.62428 L 171.2938 157.54722 L 172.15938 157.54722 L 172.15938 153.75934 L 169.3518 153.75934 L 169.3518 154.96082 L 170.94808 154.96082 C 170.92245 155.21077 170.85498 155.43548 170.74603 155.63416 C 170.63707 155.82643 170.51186 155.97686 170.37086 156.08581 C 170.22986 156.19477 170.07602 156.28455 169.90939 156.35505 C 169.74275 156.41917 169.59863 156.46381 169.47685 156.48941 C 169.36149 156.50861 169.25911 156.51834 169.16938 156.51834 C 168.58616 156.51834 168.10522 156.28784 167.72709 155.8264 C 167.35537 155.36494 167.1695 154.7748 167.1695 154.057 C 167.1695 153.30073 167.34276 152.70822 167.68885 152.27881 C 168.04134 151.84941 168.52228 151.6344 169.13114 151.6344 C 169.98995 151.6344 170.54755 152.00955 170.80391 152.7594 L 172.15938 152.7594 C 172.06965 152.03518 171.75227 151.46157 171.2075 151.03857 C 170.66273 150.61558 169.96731 150.40399 169.12132 150.40399 z M 77.042704 150.40451 C 76.036488 150.40451 75.219774 150.74421 74.59169 151.42356 C 73.963606 152.10292 73.649112 152.98762 73.649112 154.07715 C 73.649112 155.14105 73.956787 156.01892 74.572053 156.7111 C 75.193728 157.40327 75.97893 157.74928 76.927465 157.74928 C 77.401732 157.74928 77.805491 157.6595 78.138761 157.48004 C 78.472029 157.30059 78.773402 157.01523 79.042581 156.62428 L 79.215698 157.54722 L 80.080761 157.54722 L 80.080761 153.75986 L 77.273697 153.75986 L 77.273697 154.96133 L 78.869465 154.96133 C 78.843829 155.21129 78.776364 155.43548 78.667411 155.63416 C 78.558457 155.82643 78.433755 155.97738 78.292756 156.08633 C 78.151758 156.19528 77.997921 156.28506 77.831286 156.35556 C 77.664651 156.41969 77.520526 156.46432 77.398754 156.48992 C 77.283392 156.50912 77.180489 156.51886 77.090763 156.51886 C 76.507542 156.51886 76.027123 156.28784 75.64899 155.8264 C 75.277268 155.36494 75.091401 154.77532 75.091401 154.05751 C 75.091401 153.30125 75.264663 152.70873 75.61075 152.27933 C 75.963246 151.84993 76.443665 151.63492 77.052522 151.63492 C 77.911331 151.63492 78.468928 152.01006 78.725288 152.75992 L 80.080761 152.75992 C 79.991034 152.0357 79.673648 151.46209 79.128881 151.03909 C 78.584114 150.6161 77.888694 150.40451 77.042704 150.40451 z M 84.339416 150.40451 C 83.333199 150.40451 82.51597 150.74421 81.887886 151.42356 C 81.259803 152.10292 80.945824 152.98762 80.945824 154.07715 C 80.945824 155.14105 81.2535 156.01892 81.868766 156.7111 C 82.490441 157.40327 83.275643 157.74928 84.224177 157.74928 C 84.698445 157.74928 85.102204 157.6595 85.435473 157.48004 C 85.768742 157.30059 86.070115 157.01523 86.339294 156.62428 L 86.51241 157.54722 L 87.377473 157.54722 L 87.377473 153.75986 L 84.570409 153.75986 L 84.570409 154.96133 L 86.166178 154.96133 C 86.140542 155.21129 86.073076 155.43548 85.964123 155.63416 C 85.855169 155.82643 85.730467 155.97738 85.589469 156.08633 C 85.44847 156.19528 85.294633 156.28506 85.127998 156.35556 C 84.961363 156.41969 84.817238 156.46432 84.695466 156.48992 C 84.580104 156.50912 84.477202 156.51886 84.387475 156.51886 C 83.804254 156.51886 83.323834 156.28784 82.945702 155.8264 C 82.573979 155.36494 82.388114 154.77532 82.388114 154.05751 C 82.388114 153.30125 82.560858 152.70873 82.906945 152.27933 C 83.259441 151.84993 83.740378 151.63492 84.349234 151.63492 C 85.208043 151.63492 85.76564 152.01006 86.022 152.75992 L 87.377473 152.75992 C 87.287747 152.0357 86.97036 151.46209 86.425593 151.03909 C 85.880827 150.6161 85.185406 150.40451 84.339416 150.40451 z M 150.50954 150.42311 C 149.50332 150.42311 148.6895 150.76622 148.06783 151.45199 C 147.45256 152.13775 147.14488 153.01904 147.14488 154.09575 C 147.14488 155.17247 147.45256 156.05375 148.06783 156.73952 C 148.68309 157.42529 149.50032 157.76788 150.51936 157.76788 C 151.5448 157.76788 152.36151 157.42529 152.97037 156.73952 C 153.58564 156.04735 153.89331 155.18207 153.89331 154.14381 C 153.89331 153.02864 153.58274 152.13134 152.96107 151.45199 C 152.33939 150.76622 151.52216 150.42311 150.50954 150.42311 z M 69.496394 150.42363 C 68.490178 150.42363 67.676357 150.76674 67.054683 151.4525 C 66.439417 152.13827 66.131742 153.01956 66.131742 154.09627 C 66.131742 155.17298 66.439417 156.05427 67.054683 156.74004 C 67.669948 157.4258 68.486661 157.7684 69.505696 157.7684 C 70.531139 157.7684 71.348369 157.4258 71.957226 156.74004 C 72.572492 156.04786 72.880167 155.18259 72.880167 154.14433 C 72.880167 153.02916 72.569599 152.13186 71.947924 151.4525 C 71.326249 150.76674 70.509019 150.42363 69.496394 150.42363 z M 14.843399 150.53886 L 14.843399 157.54722 L 16.285172 157.54722 L 16.285172 152.08709 L 17.544526 157.54722 L 18.986816 157.54722 L 20.22705 152.08709 L 20.22705 157.54722 L 21.668823 157.54722 L 21.668823 150.53886 L 19.496345 150.53886 L 18.265929 156.11475 L 16.996756 150.53886 L 14.843399 150.53886 z M 22.774698 150.53886 L 22.774698 157.54722 L 24.216471 157.54722 L 24.216471 155.20163 L 24.937357 154.4518 L 27.235408 157.54722 L 28.956233 157.54722 L 25.860298 153.5578 L 28.65806 150.53886 L 26.956355 150.53886 L 24.216471 153.61516 L 24.216471 150.53886 L 22.774698 150.53886 z M 29.196528 150.53886 L 31.561242 157.54722 L 32.782356 157.54722 L 35.185827 150.53886 L 33.733719 150.53886 L 32.205647 155.81709 L 30.648119 150.53886 L 29.196528 150.53886 z M 41.222668 150.53886 L 41.222668 157.54722 L 42.664957 157.54722 L 42.664957 152.08709 L 43.924312 157.54722 L 45.366084 157.54722 L 46.606318 152.08709 L 46.606318 157.54722 L 48.048608 157.54722 L 48.048608 150.53886 L 45.875614 150.53886 L 44.645198 156.11475 L 43.376541 150.53886 L 41.222668 150.53886 z M 49.586498 150.53886 L 49.586498 157.54722 L 51.028788 157.54722 L 51.028788 155.04763 L 52.826611 155.04763 C 53.467513 155.04763 53.97996 154.83656 54.364501 154.41356 C 54.749043 153.99056 54.94121 153.42326 54.94121 152.71186 C 54.94121 152.00686 54.746149 151.46817 54.355199 151.09645 C 53.970658 150.72473 53.413062 150.53886 52.682433 150.53886 L 49.586498 150.53886 z M 93.895422 150.53886 L 93.895422 157.54722 L 95.337711 157.54722 L 95.337711 152.08709 L 96.597066 157.54722 L 98.038838 157.54722 L 99.279072 152.08709 L 99.279072 157.54722 L 100.72084 157.54722 L 100.72084 150.53886 L 98.548368 150.53886 L 97.317952 156.11475 L 96.048779 150.53886 L 93.895422 150.53886 z M 102.25925 150.53886 L 102.25925 157.54722 L 103.70102 157.54722 L 103.70102 155.04763 L 105.49885 155.04763 C 106.13975 155.04763 106.65271 154.83656 107.03726 154.41356 C 107.4218 153.99056 107.61396 153.42326 107.61396 152.71186 C 107.61396 152.00686 107.41839 151.46817 107.02744 151.09645 C 106.6429 150.72473 106.0853 150.53886 105.35467 150.53886 L 102.25925 150.53886 z M 121.00539 150.53886 L 118.51562 157.5467 L 119.98634 157.5467 L 120.45762 156.13387 L 123.08227 156.13387 L 123.54374 157.5467 L 125.02427 157.5467 L 122.60168 150.53886 L 121.00539 150.53886 z M 124.7354 150.53886 L 127.10063 157.5467 L 128.32174 157.5467 L 130.7247 150.53886 L 129.27311 150.53886 L 127.74452 155.81658 L 126.18751 150.53886 L 124.7354 150.53886 z M 131.30192 150.53886 L 131.30192 157.5467 L 132.7437 157.5467 L 132.7437 150.53886 L 131.30192 150.53886 z M 139.35776 150.53886 L 139.35776 157.5467 L 140.80005 157.5467 L 140.80005 152.08657 L 142.05941 157.5467 L 143.50118 157.5467 L 144.74141 152.08657 L 144.74141 157.5467 L 146.18319 157.5467 L 146.18319 150.53886 L 144.01071 150.53886 L 142.78029 156.11475 L 141.51112 150.53886 L 139.35776 150.53886 z M 154.08555 150.53886 L 156.45078 157.5467 L 157.67137 157.5467 L 160.07484 150.53886 L 158.62325 150.53886 L 157.09466 155.81658 L 155.53714 150.53886 L 154.08555 150.53886 z M 173.3128 150.53886 L 173.3128 157.5467 L 174.75457 157.5467 L 174.75457 150.53886 L 173.3128 150.53886 z M 175.81239 150.53886 L 175.81239 157.5467 L 177.25416 157.5467 L 177.25416 154.52828 L 180.32115 154.52828 L 180.32115 153.32681 L 177.25416 153.32681 L 177.25416 151.74034 L 180.73457 151.74034 L 180.73457 150.53886 L 175.81239 150.53886 z M 57.90227 150.58692 C 57.70359 150.58692 57.511423 150.60292 57.325561 150.63498 C 57.146108 150.66703 56.95394 150.7316 56.748852 150.82774 C 56.543763 150.91746 56.364199 151.03876 56.210383 151.19257 C 56.062976 151.34639 55.938274 151.55798 55.835729 151.82716 C 55.739594 152.09634 55.691035 152.40742 55.691035 152.75992 L 55.691035 152.87516 L 56.941088 152.87516 C 56.953906 152.47139 57.024264 152.17001 57.152445 151.97133 C 57.280625 151.77265 57.520835 151.67368 57.873331 151.67368 C 58.14251 151.67368 58.351208 151.75375 58.498616 151.91397 C 58.646023 152.06779 58.719791 152.28568 58.719791 152.56768 C 58.719791 153.25345 58.322334 153.59604 57.527616 153.59604 L 57.41186 153.59604 L 57.41186 154.49986 C 57.757948 154.49986 58.020991 154.52218 58.200443 154.56704 C 58.424759 154.63114 58.604322 154.75635 58.738911 154.94221 C 58.873501 155.12167 58.940449 155.33615 58.940449 155.5861 C 58.940449 155.88732 58.844365 156.13435 58.652095 156.32662 C 58.466234 156.5189 58.226023 156.61498 57.931209 156.61498 C 57.290305 156.61498 56.950603 156.25927 56.912149 155.54786 L 55.604736 155.54786 C 55.611145 156.22722 55.819326 156.7688 56.229504 157.17257 C 56.64609 157.56993 57.203686 157.7684 57.90227 157.7684 C 58.626489 157.7684 59.20351 157.57282 59.632914 157.18187 C 60.068728 156.78452 60.28662 156.25264 60.28662 155.5861 C 60.28662 155.18874 60.196839 154.85534 60.017386 154.58616 C 59.837934 154.31058 59.555984 154.08007 59.171443 153.89421 C 59.485485 153.69553 59.71309 153.48395 59.854089 153.25963 C 59.995087 153.02891 60.065445 152.75667 60.065445 152.44262 C 60.065445 151.87863 59.869868 151.42972 59.478918 151.09645 C 59.087968 150.75677 58.562399 150.58692 57.90227 150.58692 z M 37.377424 150.68304 L 35.397184 157.6821 L 36.041072 157.6821 L 38.02183 150.68304 L 37.377424 150.68304 z M 62.670454 150.68304 L 60.690213 157.6821 L 61.334618 157.6821 L 63.314859 150.68304 L 62.670454 150.68304 z M 90.050178 150.68304 L 88.069421 157.6821 L 88.713826 157.6821 L 90.694067 150.68304 L 90.050178 150.68304 z M 115.34321 150.68304 L 113.36297 157.6821 L 114.00686 157.6821 L 115.9871 150.68304 L 115.34321 150.68304 z M 135.51252 150.68304 L 133.53176 157.68158 L 134.17617 157.68158 L 136.15641 150.68304 L 135.51252 150.68304 z M 162.26696 150.68304 L 160.28672 157.68158 L 160.93061 157.68158 L 162.91085 150.68304 L 162.26696 150.68304 z M 110.7192 150.73162 L 108.22943 154.90346 L 108.22943 156.03827 L 110.9595 156.03827 L 110.9595 157.54722 L 112.30515 157.54722 L 112.30515 156.03827 L 113.01674 156.03827 L 113.01674 154.92309 L 112.30515 154.92309 L 112.30515 150.73162 L 110.7192 150.73162 z M 69.505696 151.65404 C 70.095326 151.65404 70.563658 151.87875 70.909745 152.32739 C 71.262241 152.77602 71.438394 153.37825 71.438394 154.13451 C 71.438394 154.85232 71.258831 155.43224 70.899926 155.87446 C 70.547429 156.31668 70.082507 156.53798 69.505696 156.53798 C 68.922475 156.53798 68.45466 156.31668 68.102164 155.87446 C 67.749668 155.42583 67.573514 154.83331 67.573514 154.09627 C 67.573514 153.35923 67.749668 152.76961 68.102164 152.32739 C 68.45466 151.87875 68.922475 151.65404 69.505696 151.65404 z M 150.51936 151.65404 C 151.10898 151.65404 151.5768 151.87824 151.92289 152.32687 C 152.27539 152.7755 152.45154 153.37773 152.45154 154.13399 C 152.45154 154.85181 152.27198 155.43224 151.91307 155.87446 C 151.56058 156.31668 151.09617 156.53746 150.51936 156.53746 C 149.93614 156.53746 149.46781 156.31668 149.11531 155.87446 C 148.76281 155.42583 148.58666 154.83279 148.58666 154.09575 C 148.58666 153.35871 148.76281 152.76909 149.11531 152.32687 C 149.46781 151.87824 149.93614 151.65404 150.51936 151.65404 z M 51.028788 151.74086 L 52.374442 151.74086 C 52.758983 151.74086 53.040932 151.82723 53.220385 152.00027 C 53.406246 152.17332 53.499438 152.43926 53.499438 152.79816 C 53.499438 153.49674 53.124297 153.84616 52.374442 153.84616 L 51.028788 153.84616 L 51.028788 151.74086 z M 103.70102 151.74086 L 105.0472 151.74086 C 105.43174 151.74086 105.71369 151.82723 105.89314 152.00027 C 106.079 152.17332 106.17167 152.43926 106.17167 152.79816 C 106.17167 153.49674 105.79706 153.84616 105.0472 153.84616 L 103.70102 153.84616 L 103.70102 151.74086 z M 110.9595 152.01009 L 110.9595 154.92309 L 109.18079 154.92309 L 110.9595 152.01009 z M 121.77486 152.19199 L 122.68798 154.93188 L 120.86122 154.93188 L 121.77486 152.19199 z M 136.66594 156.14317 L 136.66594 157.5467 L 138.10823 157.5467 L 138.10823 156.14317 L 136.66594 156.14317 z M 163.42038 156.14317 L 163.42038 157.5467 L 164.86267 157.5467 L 164.86267 156.14317 L 163.42038 156.14317 z M 181.59963 156.14317 L 181.59963 157.5467 L 183.04192 157.5467 L 183.04192 156.14317 L 181.59963 156.14317 z M 184.0031 156.14317 L 184.0031 157.5467 L 185.44487 157.5467 L 185.44487 156.14317 L 184.0031 156.14317 z M 186.40657 156.14317 L 186.40657 157.5467 L 187.84834 157.5467 L 187.84834 156.14317 L 186.40657 156.14317 z M 12.151574 156.14369 L 12.151574 157.54722 L 13.593863 157.54722 L 13.593863 156.14369 L 12.151574 156.14369 z M 38.531359 156.14369 L 38.531359 157.54722 L 39.973132 157.54722 L 39.973132 156.14369 L 38.531359 156.14369 z M 63.824389 156.14369 L 63.824389 157.54722 L 65.266161 157.54722 L 65.266161 156.14369 L 63.824389 156.14369 z M 91.203596 156.14369 L 91.203596 157.54722 L 92.645886 157.54722 L 92.645886 156.14369 L 91.203596 156.14369 z M 116.49663 156.14369 L 116.49663 157.54722 L 117.93892 157.54722 L 117.93892 156.14369 L 116.49663 156.14369 z " />
  </g>
</svg>
