<?xml version="1.0" encoding="UTF-8" standalone="no"?>
<!-- Created with Inkscape (http://www.inkscape.org/) -->

<svg
   width="215.72585mm"
   height="214.99347mm"
   viewBox="0 0 215.72585 214.99347"
   version="1.1"
   id="svg1"
   xml:space="preserve"
   sodipodi:docname="hero-image.svg"
   inkscape:version="1.4 (e7c3feb100, 2024-10-09)"
   xmlns:inkscape="http://www.inkscape.org/namespaces/inkscape"
   xmlns:sodipodi="http://sodipodi.sourceforge.net/DTD/sodipodi-0.dtd"
   xmlns="http://www.w3.org/2000/svg"
   xmlns:svg="http://www.w3.org/2000/svg"><sodipodi:namedview
     id="namedview1"
     pagecolor="#ffffff"
     bordercolor="#000000"
     borderopacity="0.25"
     inkscape:showpageshadow="2"
     inkscape:pageopacity="0.0"
     inkscape:pagecheckerboard="0"
     inkscape:deskcolor="#d1d1d1"
     inkscape:document-units="mm"
     inkscape:zoom="0.24305487"
     inkscape:cx="349.71527"
     inkscape:cy="658.28757"
     inkscape:window-width="1920"
     inkscape:window-height="992"
     inkscape:window-x="1920"
     inkscape:window-y="0"
     inkscape:window-maximized="1"
     inkscape:current-layer="layer1"><inkscape:page
       x="0"
       y="0"
       width="215.72585"
       height="214.99347"
       id="page2"
       margin="0"
       bleed="0" /></sodipodi:namedview><defs
     id="defs1" /><g
     inkscape:label="Layer 1"
     inkscape:groupmode="layer"
     id="layer1"
     transform="translate(538.10462,-437.77755)"><path
       id="path5"
       style="fill:#ffffff;stroke-width:1;stroke-linecap:square;paint-order:stroke markers fill"
       d="m -399.80572,437.77753 v 57.47872 h 45.79628 v -44.04969 -2.86719 l -2.02711,-2.02689 v -2.1e-4 l -6.50763,-6.50764 -2.0271,-2.0271 h -2.8672 z m 2.0269,2.0271 h 31.77352 v 10.27986 h 9.96875 v 43.14466 h -41.74227 z" /><path
       id="rect5"
       style="fill:#ffffff;stroke:none;stroke-width:4.99999;stroke-linecap:square;stroke-dasharray:none;paint-order:stroke markers fill"
       d="m -400.69596,463.54638 c -1.09832,0 -1.9823,0.8845 -1.9823,1.98283 v 18.5539 c 0,1.09833 0.88398,1.98283 1.9823,1.98283 h 38.16357 c 1.09832,0 1.98282,-0.8845 1.98282,-1.98283 v -18.5539 c 0,-1.09833 -0.8845,-1.98283 -1.98282,-1.98283 z m 3.23495,5.22862 h 3.90829 c 1.48101,0 2.44667,0.0602 2.89646,0.18087 0.69114,0.18101 1.26957,0.57608 1.73581,1.18494 0.46625,0.60338 0.69919,1.38516 0.69919,2.34508 0,0.74051 -0.13431,1.36294 -0.40308,1.86758 -0.26878,0.50464 -0.61148,0.90249 -1.02836,1.19321 -0.4114,0.28524 -0.83099,0.47468 -1.25884,0.56793 -0.58144,0.11519 -1.42341,0.1726 -2.52594,0.1726 h -1.58802 v 4.55011 h -2.43551 z m 11.23136,0 h 4.45089 c 1.0038,0 1.76888,0.0769 2.29546,0.23048 0.7076,0.20843 1.31386,0.57845 1.8185,1.11053 0.50464,0.53206 0.88857,1.18511 1.15186,1.95853 0.2633,0.76794 0.39533,1.7169 0.39533,2.84686 0,0.99283 -0.12368,1.8482 -0.37052,2.56677 -0.30169,0.87764 -0.73241,1.58809 -1.29191,2.13113 -0.42236,0.4114 -0.99243,0.73236 -1.71101,0.96274 -0.53755,0.17004 -1.25636,0.25528 -2.15594,0.25528 h -4.58266 z m 12.19357,0 h 8.26874 v 2.04071 h -5.83323 v 2.85512 h 5.03535 v 2.04018 h -5.03535 v 5.12631 h -2.43551 z m -20.98942,2.04071 v 3.42253 h 1.33273 c 0.95992,0 1.60184,-0.063 1.92547,-0.18914 0.32363,-0.12616 0.57604,-0.32343 0.75706,-0.59221 0.1865,-0.26878 0.27957,-0.58139 0.27957,-0.93793 0,-0.43882 -0.12874,-0.801 -0.38654,-1.08624 -0.25781,-0.28523 -0.58433,-0.46354 -0.97927,-0.53485 -0.29072,-0.0549 -0.87471,-0.0822 -1.75235,-0.0822 z m 11.23084,0 v 7.98917 h 1.81849 c 0.68018,0 1.17109,-0.0384 1.47278,-0.11524 0.39494,-0.0987 0.72146,-0.26591 0.97927,-0.50177 0.26329,-0.23587 0.47726,-0.62259 0.64182,-1.16014 0.16455,-0.54304 0.2465,-1.28081 0.2465,-2.2133 0,-0.93249 -0.082,-1.64851 -0.2465,-2.14767 -0.16456,-0.49916 -0.39523,-0.88865 -0.69143,-1.16841 -0.29621,-0.27974 -0.67179,-0.46867 -1.12706,-0.56741 -0.34009,-0.0768 -1.00653,-0.11523 -1.99936,-0.11523 z" /><rect
       style="fill:#ffffff;stroke:none;stroke-width:4.99999;stroke-linecap:square;stroke-dasharray:none;paint-order:stroke markers fill"
       id="rect11"
       width="26.885393"
       height="2.0271029"
       x="-395.05676"
       y="443.29187"
       ry="1.0135515" /><rect
       style="fill:#ffffff;stroke:none;stroke-width:4.99999;stroke-linecap:square;stroke-dasharray:none;paint-order:stroke markers fill"
       id="rect12"
       width="26.885393"
       height="2.0271029"
       x="-395.05676"
       y="449.54239"
       ry="1.0135515" /><rect
       style="fill:#ffffff;stroke:none;stroke-width:4.99999;stroke-linecap:square;stroke-dasharray:none;paint-order:stroke markers fill"
       id="rect14"
       width="26.885393"
       height="2.0271029"
       x="-395.05676"
       y="455.79291"
       ry="1.0135515" /><path
       id="path14"
       style="fill:#ffffff;fill-opacity:1;stroke-width:1;stroke-linecap:square;paint-order:stroke markers fill"
       d="m -450.98539,595.29183 v 35.50274 c 0.0915,-0.55266 0.23315,-1.05167 0.42788,-1.49345 0.27426,-0.61435 0.64706,-1.16546 1.11879,-1.65364 0.1548,-0.15835 0.31605,-0.29866 0.48008,-0.43047 V 597.3191 h 31.77377 v 10.27999 h 9.9689 v 43.14465 h -41.74267 v -13.32993 c -0.19639,-0.15135 -0.38618,-0.31198 -0.56224,-0.49351 -0.7681,-0.79596 -1.2537,-1.81157 -1.46451,-3.04065 v 18.89136 h 45.79617 v -44.05003 -2.867 l -2.02675,-2.02675 v -5.2e-4 l -6.50761,-6.50761 -2.02727,-2.02727 h -2.86701 z" /><path
       id="rect15"
       style="fill:#ffffff;fill-opacity:1;stroke:none;stroke-width:4.99999;stroke-linecap:square;stroke-dasharray:none;paint-order:stroke markers fill"
       d="m -451.87526,621.06132 c -1.09833,0 -1.98283,0.88398 -1.98283,1.9823 v 18.55443 c 0,1.09832 0.8845,1.9823 1.98283,1.9823 h 38.16356 c 1.09833,0 1.98231,-0.88398 1.98231,-1.9823 v -18.55443 c 0,-1.09832 -0.88398,-1.9823 -1.98231,-1.9823 z m 6.60011,5.02243 c 1.77723,0 3.19762,0.55162 4.26176,1.65416 1.06962,1.10254 1.60455,2.63548 1.60455,4.5992 0,1.94727 -0.52936,3.47238 -1.58801,4.57492 -1.05866,1.09705 -2.474,1.64538 -4.24574,1.64538 -1.79368,0 -3.21964,-0.54555 -4.27829,-1.63711 -1.05866,-1.09705 -1.58802,-2.60547 -1.58802,-4.52531 0,-1.2287 0.18388,-2.26011 0.55139,-3.09387 0.27426,-0.61435 0.64706,-1.16546 1.11879,-1.65364 0.47722,-0.48819 0.99823,-0.85038 1.56322,-1.08624 0.75148,-0.31815 1.61849,-0.47749 2.60035,-0.47749 z m 25.50646,0 c 1.49747,0 2.66545,0.31539 3.50469,0.94619 0.84473,0.62532 1.38801,1.49234 1.62936,2.60036 l -2.41897,0.45217 c -0.17005,-0.59241 -0.491,-1.05828 -0.96274,-1.39836 -0.46624,-0.34557 -1.05023,-0.51832 -1.75234,-0.51832 -1.06414,0 -1.91168,0.33714 -2.54248,1.01183 -0.62532,0.67468 -0.93793,1.676 -0.93793,3.00343 0,1.43165 0.31766,2.50656 0.95395,3.22513 0.63629,0.71308 1.47042,1.0697 2.50165,1.0697 0.51013,0 1.02001,-0.0986 1.53014,-0.29611 0.51562,-0.20295 0.95747,-0.44702 1.32499,-0.73225 v -1.53066 h -2.7895 v -2.03243 h 5.24929 v 4.80539 c -0.51013,0.49367 -1.25068,0.92945 -2.22157,1.30793 -0.9654,0.373 -1.94445,0.55966 -2.93728,0.55966 -1.26161,0 -2.36105,-0.26304 -3.29903,-0.78962 -0.93798,-0.53207 -1.64287,-1.28932 -2.1146,-2.27118 -0.47173,-0.98735 -0.70797,-2.05947 -0.70797,-3.21686 0,-1.25612 0.26355,-2.37277 0.79014,-3.34915 0.52658,-0.97637 1.29723,-1.72476 2.312,-2.24585 0.77342,-0.40043 1.73629,-0.601 2.8882,-0.601 z m -17.74776,0.20567 h 4.45141 c 1.0038,0 1.76888,0.0769 2.29547,0.23048 0.7076,0.20844 1.31385,0.57897 1.81849,1.11104 0.50465,0.53207 0.88858,1.1846 1.15187,1.95802 0.26329,0.76794 0.39481,1.71689 0.39481,2.84686 0,0.99283 -0.12369,1.84871 -0.37052,2.56728 -0.30169,0.87764 -0.7319,1.5881 -1.2914,2.13114 -0.42236,0.41139 -0.99295,0.73183 -1.71152,0.96221 -0.53756,0.17004 -1.25636,0.25528 -2.15594,0.25528 h -4.58267 z m -7.73441,1.87637 c -1.0038,0 -1.81289,0.34549 -2.42724,1.03663 -0.61435,0.68566 -0.92139,1.72212 -0.92139,3.10989 0,1.36583 0.31539,2.40281 0.94619,3.1104 0.63081,0.70212 1.43155,1.05317 2.40244,1.05317 0.97089,0 1.76659,-0.34827 2.38642,-1.0449 0.62532,-0.70211 0.93793,-1.75249 0.93793,-3.15123 0,-1.38228 -0.30478,-2.41369 -0.91364,-3.09387 -0.60338,-0.68017 -1.40691,-1.02009 -2.41071,-1.02009 z m 10.16992,0.16433 v 7.98918 h 1.8185 c 0.68017,0 1.17109,-0.0385 1.47278,-0.11524 0.39493,-0.0987 0.72094,-0.26591 0.97875,-0.50178 0.26329,-0.23586 0.47726,-0.62258 0.64182,-1.16013 0.16456,-0.54304 0.24701,-1.28081 0.24701,-2.2133 0,-0.9325 -0.0824,-1.648 -0.24701,-2.14716 -0.16456,-0.49916 -0.39471,-0.88866 -0.69092,-1.1684 -0.2962,-0.27975 -0.6723,-0.46919 -1.12758,-0.56793 -0.34008,-0.0768 -1.00653,-0.11524 -1.99936,-0.11524 z" /><circle
       style="fill:#ffffff;fill-opacity:1;stroke:none;stroke-width:4.99999;stroke-linecap:square;stroke-dasharray:none;paint-order:stroke markers fill"
       id="circle15"
       cx="-439.21725"
       cy="606.69348"
       r="5.0908794" /><path
       sodipodi:type="star"
       style="fill:#ffffff;fill-opacity:1;stroke:none;stroke-width:4.99999;stroke-linecap:square;stroke-dasharray:none;paint-order:stroke markers fill"
       id="path15"
       inkscape:flatsided="true"
       sodipodi:sides="3"
       sodipodi:cx="68.390686"
       sodipodi:cy="72.905235"
       sodipodi:r1="9.6227074"
       sodipodi:r2="4.8113537"
       sodipodi:arg1="-1.5707963"
       sodipodi:arg2="-0.52359878"
       inkscape:rounded="0"
       inkscape:randomized="0"
       d="m 68.390686,63.282528 8.333509,14.434061 -16.667018,0 z"
       inkscape:transform-center-y="-2.4056769"
       transform="translate(-501.35338,540.83701)" /><rect
       style="fill:none;stroke:#ffffff;stroke-width:1;stroke-linecap:square;stroke-dasharray:none;stroke-opacity:1;paint-order:stroke markers fill"
       id="rect16"
       width="9.7014875"
       height="9.7014875"
       x="-429.47995"
       y="604.11957"
       ry="1.3482754" /><path
       id="path16"
       style="fill:#ffffff;fill-opacity:1;stroke-width:1;stroke-linecap:square;paint-order:stroke markers fill"
       d="m -368.17494,535.12703 v 57.47866 h 45.79617 v -44.05003 -2.867 l -2.02727,-2.02675 v -5.2e-4 l -6.50761,-6.50761 -2.02675,-2.02675 h -2.86753 z m 2.02675,2.02675 h 31.77377 v 10.27999 h 9.96838 v 43.14465 h -41.74215 v -12.39201 h -0.96997 v -12.06179 h 0.96997 z" /><path
       id="rect17"
       style="fill:#ffffff;fill-opacity:1;stroke:none;stroke-width:4.99999;stroke-linecap:square;stroke-dasharray:none;paint-order:stroke markers fill"
       d="m -369.06533,560.896 c -1.09832,0 -1.98231,0.88398 -1.98231,1.9823 v 18.55443 c 0,1.09832 0.88399,1.9823 1.98231,1.9823 h 38.16356 c 1.09833,0 1.98283,-0.88398 1.98283,-1.9823 V 562.8783 c 0,-1.09832 -0.8845,-1.9823 -1.98283,-1.9823 z m 30.92576,5.02295 c 1.49748,0 2.66597,0.31538 3.50522,0.94619 0.84472,0.62532 1.388,1.49182 1.62935,2.59984 l -2.41897,0.45269 c -0.17004,-0.59241 -0.491,-1.0588 -0.96273,-1.39888 -0.46625,-0.34557 -1.05075,-0.51832 -1.75287,-0.51832 -1.06414,0 -1.91116,0.33714 -2.54196,1.01183 -0.62532,0.67468 -0.93844,1.676 -0.93844,3.00343 0,1.43165 0.31817,2.50656 0.95446,3.22513 0.63629,0.71308 1.47043,1.0697 2.50166,1.0697 0.51012,0 1.02001,-0.0986 1.53013,-0.29611 0.51562,-0.20295 0.95747,-0.44702 1.32499,-0.73225 v -1.53066 h -2.7895 v -2.03192 h 5.2493 v 4.80488 c -0.51013,0.49367 -1.25068,0.92997 -2.22157,1.30845 -0.96541,0.373 -1.94447,0.55914 -2.93729,0.55914 -1.26162,0 -2.36105,-0.26303 -3.29903,-0.78962 -0.93798,-0.53207 -1.64286,-1.28932 -2.1146,-2.27118 -0.47173,-0.98735 -0.70796,-2.05947 -0.70796,-3.21686 0,-1.25612 0.26354,-2.37226 0.79013,-3.34863 0.52659,-0.97637 1.29724,-1.72527 2.312,-2.24637 0.77343,-0.40043 1.73578,-0.60048 2.88768,-0.60048 z m -28.97859,0.20567 h 3.90829 c 1.48102,0 2.44668,0.0602 2.89646,0.18087 0.69114,0.18101 1.26957,0.57607 1.73581,1.18494 0.46625,0.60337 0.6997,1.38464 0.6997,2.34456 0,0.74051 -0.1343,1.36346 -0.40307,1.8681 -0.26878,0.50465 -0.612,0.90197 -1.02888,1.19269 -0.41139,0.28523 -0.83099,0.47468 -1.25884,0.56792 -0.58144,0.1152 -1.42341,0.1726 -2.52594,0.1726 h -1.58802 v 4.55011 h -2.43551 z m 11.26443,0 h 2.36936 l 4.93665,8.0548 v -8.0548 h 2.26291 v 12.06179 h -2.44377 l -4.86276,-7.86567 v 7.86567 h -2.26239 z m -8.82892,2.04018 v 3.42305 h 1.33325 c 0.95992,0 1.60132,-0.063 1.92495,-0.18914 0.32363,-0.12616 0.57605,-0.32394 0.75706,-0.59272 0.1865,-0.26878 0.28009,-0.58139 0.28009,-0.93793 0,-0.43882 -0.12925,-0.80101 -0.38706,-1.08624 -0.25781,-0.28523 -0.58381,-0.46302 -0.97875,-0.53433 -0.29072,-0.0549 -0.87523,-0.0827 -1.75287,-0.0827 z" /><path
       id="path17"
       style="fill:#ffffff;fill-opacity:1;stroke:none;stroke-width:0.999999;stroke-linecap:square;stroke-dasharray:none;stroke-opacity:1;paint-order:stroke markers fill"
       d="m -353.88887,549.36874 -10.62959,8.59301 h 10.62959 10.62959 z" /><path
       id="path18"
       style="fill:#ffffff;fill-opacity:1;stroke:none;stroke-width:1;stroke-linecap:square;stroke-dasharray:none;stroke-opacity:1;paint-order:stroke markers fill"
       d="m -343.25928,546.12921 -14.6369,11.83254 h 14.6369 14.6369 z" /><circle
       style="fill:#ffffff;fill-opacity:1;stroke:none;stroke-width:1;stroke-linecap:square;stroke-dasharray:none;stroke-opacity:1;paint-order:stroke markers fill"
       id="circle18"
       cx="-357.89618"
       cy="544.27966"
       r="3.8714781" /><path
       id="path19"
       style="fill:#ffffff;fill-opacity:1;stroke-width:1;stroke-linecap:square;paint-order:stroke markers fill"
       d="m -535.23193,535.12703 v 57.47866 h 45.79617 v -44.05003 -2.867 l -2.02726,-2.02675 v -5.2e-4 l -6.50762,-6.50761 -2.02675,-2.02675 h -2.86752 z m 2.02675,2.02675 h 31.77377 v 10.27999 h 9.96839 v 43.14465 h -41.74216 v -13.97434 c -0.42909,-0.62807 -0.70274,-1.40755 -0.81339,-2.34611 l 0.81339,-0.0791 v -3.38739 c -0.24884,-0.45558 -0.37724,-0.95827 -0.37724,-1.51154 0,-0.5189 0.13071,-1.00689 0.37724,-1.46709 z" /><path
       id="rect23"
       style="fill:#ffffff;fill-opacity:1;stroke:none;stroke-width:4.99999;stroke-linecap:square;stroke-dasharray:none;paint-order:stroke markers fill"
       d="m -536.12231,560.896 c -1.09833,0 -1.98231,0.88398 -1.98231,1.9823 v 18.55443 c 0,1.09832 0.88398,1.9823 1.98231,1.9823 h 38.16356 c 1.09832,0 1.98282,-0.88398 1.98282,-1.9823 V 562.8783 c 0,-1.09832 -0.8845,-1.9823 -1.98282,-1.9823 z m 6.94169,5.01881 c 1.51393,0 2.65233,0.33157 3.41478,0.99529 0.76793,0.66372 1.17083,1.5497 1.20923,2.65772 l -2.43551,0.10697 c -0.10422,-0.61984 -0.32881,-1.06396 -0.67438,-1.33274 -0.34009,-0.27426 -0.85327,-0.41134 -1.53892,-0.41134 -0.7076,0 -1.26149,0.14491 -1.66192,0.43563 -0.2578,0.1865 -0.38654,0.43613 -0.38654,0.74879 0,0.28524 0.12039,0.5293 0.36174,0.73226 0.30717,0.2578 1.05329,0.52692 2.2381,0.80667 1.18482,0.27974 2.05967,0.57009 2.62465,0.87178 0.57047,0.2962 1.01511,0.70518 1.33325,1.22628 0.32363,0.51561 0.48524,1.15475 0.48524,1.9172 0,0.69114 -0.19222,1.3381 -0.57619,1.94148 -0.38397,0.60338 -0.92673,1.05307 -1.62884,1.34927 -0.70211,0.29072 -1.57696,0.43615 -2.62465,0.43615 -1.5249,0 -2.69617,-0.35105 -3.51348,-1.05317 -0.8173,-0.70759 -1.30543,-1.73571 -1.46451,-3.08508 l 2.36988,-0.23048 c 0.14262,0.79537 0.43018,1.37935 0.86352,1.75235 0.43882,0.373 1.02889,0.55966 1.7694,0.55966 0.78439,0 1.37394,-0.16491 1.76888,-0.49403 0.40043,-0.3346 0.60048,-0.72358 0.60048,-1.16789 0,-0.28523 -0.0847,-0.52703 -0.25476,-0.7245 -0.16456,-0.20295 -0.45542,-0.37848 -0.8723,-0.52658 -0.28523,-0.0987 -0.9355,-0.27426 -1.95027,-0.52659 -1.30549,-0.32363 -2.22157,-0.72096 -2.74815,-1.19269 -0.74051,-0.66371 -1.11053,-1.47281 -1.11053,-2.42724 0,-0.61435 0.17275,-1.18772 0.51832,-1.71979 0.35105,-0.53756 0.8531,-0.94602 1.50585,-1.22577 0.65823,-0.27974 1.45062,-0.41961 2.37763,-0.41961 z m 23.828,0 c 1.49748,0 2.66597,0.31539 3.50522,0.9462 0.84473,0.62532 1.38749,1.49182 1.62884,2.59984 l -2.41898,0.45268 c -0.17004,-0.5924 -0.491,-1.05879 -0.96273,-1.39888 -0.46625,-0.34557 -1.05023,-0.51831 -1.75235,-0.51831 -1.06414,0 -1.91167,0.33714 -2.54248,1.01182 -0.62532,0.67469 -0.93792,1.67601 -0.93792,3.00344 0,1.43165 0.31817,2.50655 0.95446,3.22512 0.63629,0.71309 1.46991,1.0697 2.50114,1.0697 0.51013,0 1.02053,-0.0986 1.53065,-0.2961 0.51562,-0.20296 0.95696,-0.44702 1.32447,-0.73226 v -1.53065 h -2.78898 v -2.03192 h 5.2493 v 4.80488 c -0.51013,0.49367 -1.25068,0.92996 -2.22157,1.30844 -0.96541,0.373 -1.94446,0.55914 -2.93729,0.55914 -1.26161,0 -2.36156,-0.26303 -3.29954,-0.78961 -0.93798,-0.53207 -1.64287,-1.28932 -2.1146,-2.27118 -0.47173,-0.98735 -0.70745,-2.05947 -0.70745,-3.21686 0,-1.25612 0.26303,-2.37226 0.78961,-3.34863 0.52659,-0.97638 1.29724,-1.72528 2.31201,-2.24638 0.77342,-0.40042 1.73629,-0.60048 2.88819,-0.60048 z m -18.04386,0.20567 h 2.64119 l 3.05252,8.92711 2.95383,-8.92711 h 2.58382 l -4.31963,12.0618 h -2.60036 z" /><path
       id="path23"
       style="fill:#ffffff;fill-opacity:1;stroke-linecap:square;paint-order:stroke markers fill"
       d="m -517.04057,547.78597 c -4.99667,0 -9.05836,4.06169 -9.05836,9.05837 h 0.99994 c 0,-4.45624 3.60219,-8.05843 8.05842,-8.05843 4.45624,0 8.05894,3.60219 8.05894,8.05843 h 0.99994 c 0,-4.99668 -4.0622,-9.05837 -9.05888,-9.05837 z" /><circle
       style="fill:#ffffff;fill-opacity:1;stroke:none;stroke-width:1;stroke-linecap:square;stroke-dasharray:none;stroke-opacity:1;paint-order:stroke markers fill"
       id="circle23"
       cx="-525.59894"
       cy="556.8443"
       r="1.0806112" /><circle
       style="fill:#ffffff;fill-opacity:1;stroke:none;stroke-width:1;stroke-linecap:square;stroke-dasharray:none;stroke-opacity:1;paint-order:stroke markers fill"
       id="circle24"
       cx="-508.48163"
       cy="556.8443"
       r="1.0806112" /><circle
       style="fill:#ffffff;fill-opacity:1;stroke:none;stroke-width:1;stroke-linecap:square;stroke-dasharray:none;stroke-opacity:1;paint-order:stroke markers fill"
       id="circle25"
       cx="-517.04028"
       cy="548.23969"
       r="1.0806112" /><rect
       style="fill:#ffffff;fill-opacity:1;stroke:none;stroke-width:1;stroke-linecap:square;stroke-dasharray:none;stroke-opacity:1;paint-order:stroke markers fill"
       id="rect25"
       width="25.33441"
       height="0.83152837"
       x="-529.70752"
       y="547.82397"
       ry="0.41576418" /><circle
       style="fill:#ffffff;fill-opacity:1;stroke:none;stroke-width:1;stroke-linecap:square;stroke-dasharray:none;stroke-opacity:1;paint-order:stroke markers fill"
       id="circle26"
       cx="-504.37308"
       cy="548.23969"
       r="1.0806112"
       inkscape:transform-center-x="-12.667206" /><circle
       style="fill:#ffffff;fill-opacity:1;stroke:none;stroke-width:1;stroke-linecap:square;stroke-dasharray:none;stroke-opacity:1;paint-order:stroke markers fill"
       id="circle27"
       cx="529.70752"
       cy="548.23969"
       r="1.0806112"
       inkscape:transform-center-x="12.667206"
       transform="scale(-1,1)" /><path
       id="path30"
       style="fill:#ffffff;stroke-width:1;stroke-linecap:square;paint-order:stroke markers fill"
       d="m -502.16487,437.77754 v 57.47872 h 45.79627 v -44.04969 -2.86719 l -2.02711,-2.02689 v -2.1e-4 l -6.50763,-6.50763 -2.0271,-2.02711 h -2.86719 z m 2.02689,2.0271 h 31.77352 v 10.27986 h 9.96875 v 43.14466 h -41.74227 z" /><path
       id="rect31"
       style="fill:#ffffff;stroke:none;stroke-width:4.99999;stroke-linecap:square;stroke-dasharray:none;paint-order:stroke markers fill"
       d="m -503.05508,463.54638 c -1.09833,0 -1.98231,0.8845 -1.98231,1.98283 v 18.5539 c 0,1.09833 0.88398,1.98283 1.98231,1.98283 h 38.16356 c 1.09833,0 1.98282,-0.8845 1.98282,-1.98283 v -18.5539 c 0,-1.09833 -0.88449,-1.98283 -1.98282,-1.98283 z m 7.16804,5.22862 h 8.8284 v 1.8924 l -6.60683,8.13748 h 6.86159 v 2.03244 h -9.7994 v -2.19677 l 6.33553,-7.82484 h -5.61929 z m 10.54819,0 h 2.43499 v 12.06232 h -2.43499 z m 4.75526,0 h 3.90829 c 1.48102,0 2.44667,0.0602 2.89647,0.18087 0.69114,0.18101 1.26956,0.57608 1.73581,1.18494 0.46625,0.60338 0.6997,1.38516 0.6997,2.34508 0,0.74051 -0.13431,1.36294 -0.40308,1.86758 -0.26878,0.50464 -0.612,0.90249 -1.02888,1.19321 -0.41139,0.28524 -0.83098,0.47468 -1.25883,0.56793 -0.58144,0.11519 -1.42341,0.1726 -2.52595,0.1726 h -1.58802 v 4.55011 h -2.43551 z m 2.43551,2.04071 v 3.42253 h 1.33326 c 0.95992,0 1.60132,-0.063 1.92494,-0.18914 0.32364,-0.12616 0.57605,-0.32343 0.75706,-0.59221 0.1865,-0.26878 0.28009,-0.58139 0.28009,-0.93793 0,-0.43882 -0.12925,-0.801 -0.38706,-1.08624 -0.2578,-0.28523 -0.58381,-0.46354 -0.97875,-0.53485 -0.29072,-0.0549 -0.87522,-0.0822 -1.75286,-0.0822 z" /><rect
       style="fill:#ffffff;stroke:none;stroke-width:4.99999;stroke-linecap:square;stroke-dasharray:none;paint-order:stroke markers fill"
       id="rect33"
       width="0.96373457"
       height="3.8911815"
       x="-490.87195"
       y="438.85468" /><rect
       style="fill:#ffffff;stroke:none;stroke-width:4.99999;stroke-linecap:square;stroke-dasharray:none;paint-order:stroke markers fill"
       id="rect34"
       width="0.96373457"
       height="2.9412143"
       x="-491.83569"
       y="442.74585" /><rect
       style="fill:#ffffff;stroke:none;stroke-width:4.99999;stroke-linecap:square;stroke-dasharray:none;paint-order:stroke markers fill"
       id="rect35"
       width="0.96373457"
       height="2.9412143"
       x="-490.87195"
       y="445.68707" /><rect
       style="fill:#ffffff;stroke:none;stroke-width:4.99999;stroke-linecap:square;stroke-dasharray:none;paint-order:stroke markers fill"
       id="rect36"
       width="0.96373457"
       height="2.9412143"
       x="-491.83569"
       y="448.62827" /><rect
       style="fill:#ffffff;stroke:none;stroke-width:4.99999;stroke-linecap:square;stroke-dasharray:none;paint-order:stroke markers fill"
       id="rect37"
       width="0.96373457"
       height="2.9412143"
       x="-490.87195"
       y="451.56949" /><rect
       style="fill:#ffffff;stroke:none;stroke-width:4.99999;stroke-linecap:square;stroke-dasharray:none;paint-order:stroke markers fill"
       id="rect38"
       width="0.96373457"
       height="3.2647536"
       x="-491.83569"
       y="454.51071" /><path
       id="path38"
       style="fill:#ffffff;stroke:none;stroke-width:4.99999;stroke-linecap:square;stroke-dasharray:none;paint-order:stroke markers fill"
       d="m -492.39302,457.08406 -0.89351,2.01158 a 2.1244947,2.1244947 0 0 0 0,7.5e-4 l -0.009,0.0199 10e-4,7.5e-4 a 2.1244947,2.1244947 0 0 0 -0.18409,0.8616 2.1244947,2.1244947 0 0 0 2.12459,2.12441 2.1244947,2.1244947 0 0 0 2.12422,-2.12441 2.1244947,2.1244947 0 0 0 -0.18316,-0.86197 l 1.9e-4,-3.6e-4 -0.90243,-2.03218 z m 1.0392,1.56083 a 1.3107376,1.3107376 0 0 1 1.31068,1.31086 1.3107376,1.3107376 0 0 1 -1.31068,1.31069 1.3107376,1.3107376 0 0 1 -1.31087,-1.31069 1.3107376,1.3107376 0 0 1 1.31087,-1.31086 z" /></g></svg>
