<?xml version="1.0" encoding="UTF-8" standalone="no"?>
<!-- Generator: Adobe Illustrator 24.1.2, SVG Export Plug-In . SVG Version: 6.00 Build 0)  -->

<svg
   version="1.1"
   id="Layer_1"
   x="0px"
   y="0px"
   viewBox="0 0 50 50"
   xml:space="preserve"
   sodipodi:docname="icons8-twitterx.svg"
   inkscape:version="1.4 (e7c3feb100, 2024-10-09)"
   xmlns:inkscape="http://www.inkscape.org/namespaces/inkscape"
   xmlns:sodipodi="http://sodipodi.sourceforge.net/DTD/sodipodi-0.dtd"
   xmlns="http://www.w3.org/2000/svg"
   xmlns:svg="http://www.w3.org/2000/svg"><defs
   id="defs1" /><sodipodi:namedview
   id="namedview1"
   pagecolor="#ffffff"
   bordercolor="#000000"
   borderopacity="0.25"
   inkscape:showpageshadow="2"
   inkscape:pageopacity="0.0"
   inkscape:pagecheckerboard="0"
   inkscape:deskcolor="#d1d1d1"
   inkscape:zoom="3.8650001"
   inkscape:cx="5.5627424"
   inkscape:cy="1.0349288"
   inkscape:window-width="1920"
   inkscape:window-height="992"
   inkscape:window-x="1920"
   inkscape:window-y="0"
   inkscape:window-maximized="1"
   inkscape:current-layer="Layer_1" />
<g
   id="g1"
   style="fill:#000000">
	<path
   d="M39,4H11c-3.866,0-7,3.134-7,7v28c0,3.866,3.134,7,7,7h28c3.866,0,7-3.134,7-7V11C46,7.134,42.866,4,39,4z M29.978,37   l-6.54-9.292L15.5,37H13l9.308-10.897L13.086,13h7.937l5.637,8.009L33.5,13H36l-8.211,9.613L37.914,37H29.978z"
   id="path1"
   style="fill:#000000" />
	<polygon
   points="16.914,15 31.022,35 34.086,35 19.978,15  "
   id="polygon1"
   style="fill:#000000" />
</g>
</svg>
