<?xml version="1.0" encoding="UTF-8" standalone="no"?>
<!-- Created with Inkscape (http://www.inkscape.org/) -->

<svg
   width="146.12083mm"
   height="146.12083mm"
   viewBox="0 0 146.12083 146.12083"
   version="1.1"
   id="svg1"
   inkscape:version="1.4 (86a8ad7, 2024-10-11)"
   sodipodi:docname="logo.svg"
   xmlns:inkscape="http://www.inkscape.org/namespaces/inkscape"
   xmlns:sodipodi="http://sodipodi.sourceforge.net/DTD/sodipodi-0.dtd"
   xmlns="http://www.w3.org/2000/svg"
   xmlns:svg="http://www.w3.org/2000/svg">
  <sodipodi:namedview
     id="namedview1"
     pagecolor="#ffffff"
     bordercolor="#000000"
     borderopacity="0.25"
     inkscape:showpageshadow="2"
     inkscape:pageopacity="0.0"
     inkscape:pagecheckerboard="0"
     inkscape:deskcolor="#d1d1d1"
     inkscape:document-units="mm"
     showguides="true"
     inkscape:zoom="0.5"
     inkscape:cx="-509"
     inkscape:cy="195"
     inkscape:window-width="1920"
     inkscape:window-height="991"
     inkscape:window-x="2391"
     inkscape:window-y="-9"
     inkscape:window-maximized="1"
     inkscape:current-layer="g15" />
  <defs
     id="defs1" />
  <g
     inkscape:label="Layer 1"
     inkscape:groupmode="layer"
     id="layer1"
     transform="translate(-373.78126,-61.398071)">
    <g
       id="g15"
       transform="translate(0.25025554)">
      <circle
         style="fill:#000000;stroke:#ffffff;stroke-width:5;stroke-linecap:round;paint-order:stroke markers fill"
         id="path7"
         cx="446.59143"
         cy="427.5239"
         r="82.832047"
         inkscape:export-filename="logo pfp.svg"
         inkscape:export-xdpi="96"
         inkscape:export-ydpi="96" />
      <rect
         style="fill:#000000;fill-opacity:1;stroke:#ffffff;stroke-width:5;stroke-linecap:round;stroke-dasharray:none;paint-order:stroke markers fill"
         id="rect4"
         width="141.12083"
         height="141.12083"
         x="376.03101"
         y="63.898071"
         inkscape:export-filename="C:\Users\warre\OneDrive\Desktop\logo.png"
         inkscape:export-xdpi="96"
         inkscape:export-ydpi="96" />
      <path
         id="path5"
         style="-inkscape-font-specification:'Bodoni MT, Normal';fill:#ffffff;stroke-width:1;stroke-linecap:round;paint-order:fill markers stroke"
         d="m 385.39131,88.095304 v 4.675207 h 9.89766 v 55.257979 h -9.89766 v 4.67521 h 33.36891 v -4.67521 h -10.1237 v -23.82814 h 7.8753 c 8.75435,0 15.18174,-1.62893 19.20052,-5.17487 3.92628,-3.46821 5.97191,-7.91192 5.97191,-13.03827 0,-5.00769 -2.02996,-9.361001 -5.92433,-12.764643 -3.93751,-3.470355 -9.67756,-5.127263 -17.09487,-5.127263 z m 23.24521,4.675207 h 6.97119 c 2.59643,0 4.72558,0.248163 6.38829,0.678187 1.46894,0.354518 2.77299,1.32967 3.96143,3.140609 1.71711,2.547643 1.56724,5.591753 1.84395,8.541473 0,4.61542 -0.80733,7.94588 -2.11744,9.89766 -1.37387,2.08958 -2.91749,3.24192 -4.67523,3.68783 -1.94132,0.49264 -4.4432,0.76129 -7.50651,0.76129 h -4.85366 z"
         sodipodi:nodetypes="ccccccccccscscsccsccscsscc" />
      <path
         id="text5"
         style="font-weight:bold;font-size:19.3452px;font-family:'Bodoni MT';-inkscape-font-specification:'Bodoni MT, Bold';text-align:center;text-anchor:middle;fill:#ffffff;stroke-width:0.200001;stroke-linecap:round;paint-order:fill markers stroke"
         d="M 400.34435 158.77662 L 399.69272 158.86137 C 399.06299 158.92437 398.47427 158.95594 397.92641 158.95594 L 396.8872 158.95594 L 396.8872 159.53213 L 398.05819 159.53213 L 398.05819 171.04668 L 396.96265 171.04668 L 396.96265 171.62287 L 401.7422 171.62287 L 401.7422 171.04668 L 400.63736 171.04668 L 400.63736 166.65418 C 400.63736 166.47785 400.81036 166.10026 401.15671 165.52091 C 401.50936 164.93527 401.97521 164.64242 402.55456 164.64242 C 403.03944 164.64242 403.28216 165.00747 403.28216 165.73796 L 403.28216 171.04668 L 402.20522 171.04668 L 402.20522 171.62287 L 406.93775 171.62287 L 406.93775 171.04668 L 405.86081 171.04668 L 405.86081 166.28624 C 405.86081 165.30387 405.58702 164.64244 405.03916 164.30238 C 404.4913 163.96233 403.9462 163.79234 403.40463 163.79234 C 402.17037 163.79234 401.26072 164.39659 400.67508 165.60566 L 400.63736 165.60566 L 400.63736 158.77662 L 400.34435 158.77662 z M 430.74147 158.77662 L 430.01386 158.86137 C 429.4534 158.92437 429.00008 158.95594 428.65374 158.95594 L 427.41609 158.95594 L 427.41609 159.53213 L 428.43618 159.53213 L 428.43618 171.04668 L 427.41609 171.04668 L 427.41609 171.62287 L 428.67234 171.62287 C 429.48469 171.62287 430.17471 171.66047 430.74147 171.73604 L 431.01535 171.73604 L 431.01535 170.69734 L 431.05307 170.69734 C 431.49389 171.47191 432.12973 171.85903 432.96097 171.85903 C 433.77961 171.85903 434.50724 171.46238 435.14326 170.66892 C 435.77928 169.87547 436.09721 168.89611 436.09721 167.73112 C 436.09721 166.55982 435.78229 165.61206 435.15257 164.88788 C 434.52284 164.1574 433.80826 163.79234 433.00851 163.79234 C 432.15208 163.79234 431.50018 164.14486 431.05307 164.85015 L 431.01535 164.85015 L 431.01535 158.77662 L 430.74147 158.77662 z M 493.98153 158.77662 L 491.71449 158.95594 L 490.84529 158.95594 L 490.84529 159.53213 L 491.93153 159.53213 L 491.93153 171.04668 L 490.84529 171.04668 L 490.84529 171.62287 L 495.35096 171.62287 L 495.35096 171.04668 L 494.48228 171.04668 L 494.48228 167.67479 L 494.52 167.67479 L 496.90022 171.04668 L 495.88943 171.04668 L 495.88943 171.62287 L 500.72582 171.62287 L 500.72582 171.04668 L 499.97032 171.04668 L 496.56949 166.36169 L 497.49553 165.43565 C 497.87336 165.05781 498.20383 164.82514 498.4872 164.73698 C 498.77058 164.64882 499.14516 164.60469 499.61116 164.60469 L 499.89487 164.60469 L 499.89487 164.0192 L 495.88943 164.0192 L 495.88943 164.60469 L 496.41859 164.60469 C 496.8657 164.60469 497.08935 164.69896 497.08935 164.88788 C 497.08935 164.95085 496.99156 165.08624 496.79635 165.29405 C 496.60744 165.49559 496.50664 165.60592 496.49404 165.62478 L 494.48228 167.5611 L 494.48228 158.77662 L 493.98153 158.77662 z M 385.39126 158.95594 L 385.39126 159.56986 L 386.96894 159.56986 L 386.96894 170.99965 L 385.39126 170.99965 L 385.39126 171.62287 L 391.89009 171.62287 L 391.89009 170.99965 L 390.06695 170.99965 L 390.06695 165.70023 L 390.63384 165.70023 C 392.76231 165.70023 394.24564 165.36025 395.08318 164.68014 C 395.92072 164.00004 396.33943 163.20673 396.33943 162.29992 C 396.33943 161.40571 395.96132 160.62494 395.20565 159.95743 C 394.44998 159.28992 393.18129 158.95594 391.39916 158.95594 L 385.39126 158.95594 z M 457.59616 158.95594 L 457.59616 159.56986 L 458.94646 159.56986 L 463.87743 171.85903 L 464.50065 171.85903 L 467.05139 166.56943 L 469.17633 171.85903 L 469.80006 171.85903 L 474.21116 160.76978 C 474.45046 160.16525 474.62698 159.81573 474.74033 159.72127 C 474.85368 159.62051 475.16508 159.56986 475.67516 159.56986 L 475.96816 159.56986 L 475.96816 158.95594 L 472.46398 158.95594 L 472.46398 159.56986 L 473.10632 159.56986 C 473.53454 159.56986 473.74814 159.67365 473.74814 159.88147 C 473.74814 160.07668 473.695 160.29733 473.58795 160.54292 C 473.48719 160.78222 473.43653 160.90808 473.43653 160.92068 L 470.70699 167.81638 L 468.77015 162.97998 L 469.91324 160.61837 C 470.14624 160.13348 470.33529 159.83762 470.48013 159.73057 C 470.62497 159.62352 470.90228 159.56986 471.3116 159.56986 L 471.63251 159.56986 L 471.63251 158.95594 L 457.59616 158.95594 z M 439.19521 159.1828 C 438.81737 159.1828 438.49293 159.31819 438.22215 159.58898 C 437.95766 159.85346 437.82579 160.17791 437.82579 160.56204 C 437.82579 160.93988 437.95766 161.26733 438.22215 161.54441 C 438.49293 161.81519 438.81737 161.95059 439.19521 161.95059 C 439.57935 161.95059 439.9068 161.81519 440.17758 161.54441 C 440.45466 161.26733 440.59306 160.93988 440.59306 160.56204 C 440.59306 160.18421 440.45466 159.85976 440.17758 159.58898 C 439.9068 159.31819 439.57935 159.1828 439.19521 159.1828 z M 390.06695 159.56986 L 390.74752 159.56986 C 391.30168 159.56986 391.72642 159.61398 392.02238 159.70215 C 392.32466 159.79031 392.57037 160.03303 392.75929 160.42975 C 392.95451 160.82019 393.05229 161.4435 393.05229 162.29992 C 393.05229 163.17524 392.95451 163.81409 392.75929 164.21712 C 392.56407 164.61384 392.31235 164.85956 392.00378 164.95402 C 391.70151 165.04218 391.26974 165.08632 390.70928 165.08632 L 390.06695 165.08632 L 390.06695 159.56986 z M 462.08271 159.56986 L 464.24588 159.56986 L 466.73979 165.73796 L 465.55898 168.20344 L 462.08271 159.56986 z M 467.41985 159.56986 L 468.89314 159.56986 C 469.26468 159.56986 469.45073 159.68671 469.45073 159.91971 C 469.45073 160.05825 469.39407 160.24378 469.28072 160.47678 L 468.46836 162.18623 L 467.41985 159.56986 z M 411.87802 163.79234 C 410.63746 163.79234 409.63303 164.19551 408.86477 165.00157 C 408.0965 165.80761 407.71186 166.75186 407.71186 167.83499 C 407.71186 168.90553 408.08997 169.84375 408.84564 170.6498 C 409.60132 171.45585 410.61227 171.85903 411.87802 171.85903 C 413.14377 171.85903 414.15721 171.46238 414.91918 170.66892 C 415.68744 169.87547 416.07156 168.93071 416.07156 167.83499 C 416.07156 166.73297 415.68444 165.7852 414.90987 164.99175 C 414.14161 164.19199 413.13118 163.79234 411.87802 163.79234 z M 420.33177 163.79234 L 419.49099 163.90551 C 418.88016 163.98108 418.26337 164.0192 417.63994 164.0192 L 416.95006 164.0192 L 416.95006 164.60469 L 418.027 164.60469 L 418.027 171.04668 L 416.93146 171.04668 L 416.93146 171.62287 L 421.71101 171.62287 L 421.71101 171.04668 L 420.60565 171.04668 L 420.60565 167.28721 C 420.60565 166.29225 420.83883 165.59621 421.30483 165.19949 C 421.77083 164.80276 422.16147 164.60469 422.47634 164.60469 C 422.70934 164.60469 422.88835 164.6769 423.01429 164.82173 C 423.14654 164.96657 423.21273 165.27848 423.21273 165.75708 L 423.21273 171.04668 L 422.11719 171.04668 L 422.11719 171.62287 L 426.86832 171.62287 L 426.86832 171.04668 L 425.79138 171.04668 L 425.79138 165.89867 C 425.79138 165.42008 425.73472 165.06455 425.62136 164.83155 C 425.51431 164.59226 425.25958 164.35908 424.85655 164.13237 C 424.45353 163.90567 423.98415 163.79234 423.44889 163.79234 C 422.24611 163.79234 421.31089 164.32739 420.64337 165.39792 L 420.60565 165.39792 L 420.60565 163.79234 L 420.33177 163.79234 z M 440.57446 163.79234 C 440.51778 163.79234 440.27859 163.82994 439.85667 163.90551 C 439.43475 163.98108 438.91172 164.0192 438.28829 164.0192 L 437.08888 164.0192 L 437.08888 164.60469 L 437.9958 164.60469 L 437.9958 171.04668 L 437.08888 171.04668 L 437.08888 171.62287 L 441.31136 171.62287 L 441.31136 171.04668 L 440.57446 171.04668 L 440.57446 163.79234 z M 447.46034 163.79234 C 447.03842 163.79234 446.6543 163.97487 446.30796 164.34011 C 445.9616 164.69905 445.71288 165.25016 445.56175 165.99324 L 445.52403 165.99324 L 445.52403 163.90551 L 445.1933 163.90551 L 444.85327 163.96235 C 444.53841 164.00015 444.04748 164.0192 443.37997 164.0192 L 442.12372 164.0192 L 442.12372 164.60469 L 443.10609 164.60469 L 443.10609 171.04668 L 442.12372 171.04668 L 442.12372 171.62287 L 447.09189 171.62287 L 447.09189 171.04668 L 445.68474 171.04668 L 445.68474 168.4489 C 445.68474 167.0635 445.82615 166.0626 446.10952 165.44547 C 446.3992 164.82833 446.70158 164.51943 447.01644 164.51943 C 447.1172 164.51943 447.16785 164.55402 447.16785 164.62329 C 447.16785 164.66107 447.11119 164.74333 446.99784 164.86927 C 446.89078 164.99522 446.83712 165.21535 446.83712 165.53022 C 446.83712 165.7821 446.9344 166.01228 447.12961 166.2201 C 447.33113 166.4279 447.57084 166.53171 447.84792 166.53171 C 448.125 166.53171 448.36119 166.42138 448.5564 166.20098 C 448.75162 165.97428 448.84889 165.67842 448.84889 165.31318 C 448.84889 164.88496 448.72002 164.52591 448.46183 164.23624 C 448.20364 163.94026 447.86966 163.79234 447.46034 163.79234 z M 453.4207 163.79234 C 452.32498 163.79234 451.41182 164.19852 450.68133 165.01087 C 449.95085 165.81692 449.58579 166.73609 449.58579 167.76884 C 449.58579 168.84567 449.94484 169.79696 450.66273 170.6219 C 451.38692 171.44684 452.35022 171.85903 453.55299 171.85903 C 454.43461 171.85903 455.19031 171.61984 455.82004 171.14124 C 456.44977 170.66265 456.88102 169.94456 457.11402 168.98737 L 456.54764 168.98737 C 456.29576 169.73045 455.93018 170.27855 455.45159 170.6312 C 454.97929 170.98384 454.46931 171.15985 453.92145 171.15985 C 453.29802 171.15985 452.89836 170.97732 452.72204 170.61208 C 452.55201 170.24054 452.46675 169.57309 452.46675 168.60961 L 452.46675 167.38178 L 457.11402 167.38178 C 456.99437 166.17271 456.58518 165.27209 455.88618 164.68014 C 455.18719 164.0882 454.3653 163.79234 453.4207 163.79234 z M 478.68841 163.79234 C 477.44785 163.79234 476.44342 164.19551 475.67516 165.00157 C 474.90689 165.80761 474.52277 166.75186 474.52277 167.83499 C 474.52277 168.90553 474.90088 169.84375 475.65655 170.6498 C 476.41222 171.45585 477.42266 171.85903 478.68841 171.85903 C 479.95416 171.85903 480.96811 171.46238 481.73008 170.66892 C 482.49835 169.87547 482.88247 168.93071 482.88247 167.83499 C 482.88247 166.73297 482.49535 165.7852 481.72078 164.99175 C 480.95252 164.19199 479.94156 163.79234 478.68841 163.79234 z M 489.06039 163.79234 C 488.63847 163.79234 488.25436 163.97487 487.908 164.34011 C 487.56166 164.69905 487.31293 165.25016 487.16179 165.99324 L 487.12355 165.99324 L 487.12355 163.90551 L 486.79334 163.90551 L 486.45331 163.96235 C 486.13844 164.00015 485.64701 164.0192 484.9795 164.0192 L 483.72324 164.0192 L 483.72324 164.60469 L 484.70561 164.60469 L 484.70561 171.04668 L 483.72324 171.04668 L 483.72324 171.62287 L 488.69193 171.62287 L 488.69193 171.04668 L 487.28427 171.04668 L 487.28427 168.4489 C 487.28427 167.0635 487.42618 166.0626 487.70956 165.44547 C 487.99924 164.82833 488.30162 164.51943 488.61649 164.51943 C 488.71724 164.51943 488.76738 164.55402 488.76738 164.62329 C 488.76738 164.66107 488.71072 164.74333 488.59737 164.86927 C 488.49031 164.99522 488.43665 165.21535 488.43665 165.53022 C 488.43665 165.7821 488.53444 166.01228 488.72966 166.2201 C 488.93117 166.4279 489.17036 166.53171 489.44744 166.53171 C 489.72452 166.53171 489.96071 166.42138 490.15593 166.20098 C 490.35114 165.97428 490.44893 165.67842 490.44893 165.31318 C 490.44893 164.88496 490.31955 164.52591 490.06136 164.23624 C 489.80317 163.94026 489.46971 163.79234 489.06039 163.79234 z M 504.50441 163.79234 C 503.61649 163.79234 502.92046 164.05059 502.41668 164.56697 C 501.9129 165.08335 501.66117 165.70013 501.66117 166.41802 C 501.66117 167.04144 501.8091 167.54241 502.10507 167.92025 C 502.40104 168.29179 502.78215 168.55005 503.24815 168.69488 C 503.71414 168.83342 504.30586 168.94323 505.02375 169.02509 C 505.74793 169.10695 506.20426 169.22681 506.39318 169.38424 C 506.58839 169.54168 506.68618 169.74627 506.68618 169.99816 C 506.68618 170.3571 506.50365 170.65296 506.13841 170.88596 C 505.77947 171.11896 505.35122 171.23581 504.85374 171.23581 C 503.46834 171.23581 502.57123 170.41692 502.16191 168.77963 L 501.59502 168.77963 L 501.59502 171.54742 L 502.02962 171.54742 L 502.62442 171.0658 C 503.20376 171.59477 503.9404 171.85903 504.83462 171.85903 C 505.74142 171.85903 506.45952 171.58524 506.98849 171.03737 C 507.52376 170.48322 507.79154 169.77465 507.79154 168.91192 C 507.79154 168.22552 507.58042 167.66188 507.15851 167.22107 C 506.73659 166.78026 506.01548 166.50948 504.99533 166.40872 C 503.97517 166.30796 503.33932 166.18862 503.08744 166.05008 C 502.84184 165.91154 502.71898 165.71296 502.71898 165.45477 C 502.71898 165.1525 502.87945 164.89725 503.20061 164.68944 C 503.52177 164.47533 503.90288 164.36853 504.34369 164.36853 C 505.51498 164.36853 506.27669 164.96025 506.62934 166.14413 L 507.20553 166.14413 L 507.20553 163.79234 L 506.76163 163.79234 L 506.31773 164.33081 C 505.73838 163.97186 505.13413 163.79234 504.50441 163.79234 z M 411.87802 164.27396 C 412.47626 164.27396 412.83831 164.48508 412.96426 164.907 C 413.0902 165.32891 413.15288 166.3554 413.15288 167.9864 C 413.15288 169.03174 413.1308 169.77491 413.08673 170.21572 C 413.04265 170.65023 412.91078 170.9521 412.69037 171.12212 C 412.47626 171.28585 412.22402 171.3681 411.93435 171.3681 C 411.5754 171.3681 411.28907 171.27332 411.07497 171.0844 C 410.86714 170.88919 410.74128 170.63746 410.69721 170.32889 C 410.65941 170.02032 410.64037 169.1889 410.64037 167.83499 C 410.64037 166.44329 410.66245 165.58379 410.70651 165.25633 C 410.75059 164.92258 410.87345 164.67686 411.07497 164.51943 C 411.27648 164.3557 411.54426 164.27396 411.87802 164.27396 z M 478.68841 164.27396 C 479.28665 164.27396 479.64922 164.48508 479.77517 164.907 C 479.90111 165.32891 479.96378 166.3554 479.96378 167.9864 C 479.96378 169.03174 479.94171 169.77491 479.89764 170.21572 C 479.85356 170.65023 479.72116 170.9521 479.50076 171.12212 C 479.28666 171.28585 479.03493 171.3681 478.74525 171.3681 C 478.38631 171.3681 478.09998 171.27332 477.88588 171.0844 C 477.67805 170.88919 477.55219 170.63746 477.50812 170.32889 C 477.47032 170.02032 477.45128 169.1889 477.45128 167.83499 C 477.45128 166.44329 477.47336 165.58379 477.51742 165.25633 C 477.5615 164.92258 477.68436 164.67686 477.88588 164.51943 C 478.08739 164.3557 478.35466 164.27396 478.68841 164.27396 z M 432.4039 164.33081 C 432.66208 164.33081 432.85414 164.44414 432.98009 164.67084 C 433.11233 164.89754 433.17801 165.57151 433.17801 166.69242 L 433.17801 168.77963 C 433.17801 169.762 433.12134 170.4109 433.00799 170.72576 C 432.89464 171.04062 432.68704 171.19809 432.38478 171.19809 C 432.03842 171.19809 431.7235 171.01504 431.44013 170.6498 C 431.15675 170.28456 431.01535 169.69937 431.01535 168.89332 L 431.01535 166.95649 C 431.01535 166.10635 431.17281 165.45797 431.48767 165.01087 C 431.80253 164.55747 432.10792 164.33081 432.4039 164.33081 z M 453.45843 164.33081 C 453.77959 164.33081 454.03183 164.43461 454.21445 164.64242 C 454.40337 164.84393 454.49764 165.28772 454.49764 165.97412 L 454.49764 166.76787 L 452.46675 166.76787 L 452.46675 165.99324 C 452.46675 165.25016 452.55502 164.78731 452.73134 164.60469 C 452.91396 164.42207 453.15615 164.33081 453.45843 164.33081 z " />
      <path
         id="path6"
         style="-inkscape-font-specification:'Bodoni MT, Normal';fill:#ffffff;stroke-width:1;stroke-linecap:round;paint-order:fill markers stroke"
         d="m 417.27318,88.095304 v 4.675207 h 7.33998 l 24.41105,59.933189 h 4.44919 l 10.25455,-25.49361 10.50437,25.49361 h 4.33022 L 501.0464,92.770511 h 6.74516 v -4.675207 h -20.41393 v 4.675207 h 8.54149 L 480.48973,134.4073 470.4731,110.21039 477.47999,92.770511 h 7.10204 v -4.675207 z m 21.00874,4.675207 h 11.32522 l 11.51554,28.194069 -5.57934,14.02564 z m 25.12482,0 h 9.08872 l -4.49678,11.063499 z" />
      <rect
         style="fill:#ffffff;fill-opacity:1;stroke:none;stroke-width:0.1;stroke-linecap:round;stroke-dasharray:none;paint-order:fill markers stroke"
         id="rect13"
         width="15.417507"
         height="4.6752076"
         x="478.88373"
         y="88.095276" />
      <rect
         style="fill:#ffffff;fill-opacity:1;stroke:none;stroke-width:0.1;stroke-linecap:round;stroke-dasharray:none;paint-order:fill markers stroke"
         id="rect14"
         width="122.40025"
         height="4.6752076"
         x="385.3913"
         y="148.02855" />
      <rect
         style="fill:#ffffff;fill-opacity:1;stroke:none;stroke-width:0.1;stroke-linecap:round;stroke-dasharray:none;paint-order:fill markers stroke"
         id="rect15"
         width="122.40025"
         height="1.9372151"
         x="385.3913"
         y="178.88449" />
      <g
         id="g5"
         transform="translate(3.2729492e-5,294.34968)">
        <path
           id="path1"
           style="-inkscape-font-specification:'Bodoni MT, Normal';fill:#ffffff;stroke-width:1;stroke-linecap:round;paint-order:fill markers stroke"
           d="m 385.39128,86.811035 v 4.675207 h 9.89766 v 55.257978 h -9.89766 v 4.67521 h 33.36891 v -4.67521 h -10.1237 v -23.82814 h 7.8753 c 8.75435,0 15.18174,-1.62893 19.20052,-5.17487 3.92628,-3.46821 5.97191,-7.91192 5.97191,-13.03827 0,-5.00769 -2.02996,-9.361 -5.92433,-12.764642 -3.93751,-3.470355 -9.67756,-5.127263 -17.09487,-5.127263 z m 23.24521,4.675207 h 6.97119 c 2.59643,0 4.72558,0.248163 6.38829,0.678187 1.46894,0.354518 2.77299,1.32967 3.96143,3.140609 1.71711,2.547643 1.56724,5.591752 1.84395,8.541472 0,4.61542 -0.80733,7.94588 -2.11744,9.89766 -1.37387,2.08958 -2.91749,3.24192 -4.67523,3.68783 -1.94132,0.49264 -4.4432,0.76129 -7.50651,0.76129 h -4.85366 z"
           sodipodi:nodetypes="ccccccccccscscsccsccscsscc" />
        <text
           xml:space="preserve"
           style="font-style:normal;font-variant:normal;font-weight:normal;font-stretch:normal;font-size:19.3452px;font-family:'Bodoni MT';-inkscape-font-specification:'Bodoni MT, Normal';font-variant-ligatures:normal;font-variant-caps:normal;font-variant-numeric:normal;font-variant-east-asian:normal;text-align:center;writing-mode:lr-tb;direction:ltr;text-anchor:middle;fill:#ffffff;stroke-width:0.200001;stroke-linecap:round;paint-order:fill markers stroke"
           x="446.7142"
           y="170.33867"
           id="text1"><tspan
             sodipodi:role="line"
             id="tspan1"
             style="font-style:normal;font-variant:normal;font-weight:bold;font-stretch:normal;font-size:19.3452px;font-family:'Bodoni MT';-inkscape-font-specification:'Bodoni MT, Bold';font-variant-ligatures:normal;font-variant-caps:normal;font-variant-numeric:normal;font-variant-east-asian:normal;text-align:center;text-anchor:middle;fill:#ffffff;stroke-width:0.200001"
             x="446.7142"
             y="170.33867">PhonbireWorks</tspan></text>
        <path
           id="path2"
           style="-inkscape-font-specification:'Bodoni MT, Normal';fill:#ffffff;stroke-width:1;stroke-linecap:round;paint-order:fill markers stroke"
           d="m 417.27315,86.811035 v 4.675207 h 7.33998 l 24.41105,59.933188 h 4.44919 l 10.25455,-25.49361 10.50437,25.49361 h 4.33022 l 22.48386,-59.933188 h 6.74516 V 86.811035 H 487.3776 v 4.675207 h 8.54149 l -15.42939,41.636788 -10.01663,-24.19691 7.00689,-17.439878 h 7.10204 v -4.675207 z m 21.00874,4.675207 h 11.32522 l 11.51554,28.194068 -5.57934,14.02564 z m 25.12482,0 h 9.08872 l -4.49678,11.063498 z" />
        <rect
           style="fill:#ffffff;fill-opacity:1;stroke:none;stroke-width:0.1;stroke-linecap:round;stroke-dasharray:none;paint-order:fill markers stroke"
           id="rect2"
           width="15.417507"
           height="4.6752076"
           x="478.8837"
           y="86.811005" />
        <rect
           style="fill:#ffffff;fill-opacity:1;stroke:none;stroke-width:0.1;stroke-linecap:round;stroke-dasharray:none;paint-order:fill markers stroke"
           id="rect3"
           width="122.40025"
           height="4.6752076"
           x="385.39127"
           y="146.74428" />
        <rect
           style="fill:#ffffff;fill-opacity:1;stroke:none;stroke-width:0.1;stroke-linecap:round;stroke-dasharray:none;paint-order:fill markers stroke"
           id="rect5"
           width="122.40025"
           height="1.9372151"
           x="385.39127"
           y="177.60022" />
      </g>
      <rect
         style="fill:#000000;fill-opacity:1;stroke:#ffffff;stroke-width:5;stroke-linecap:round;stroke-dasharray:none;paint-order:stroke markers fill"
         id="rect1"
         width="141.12083"
         height="141.12083"
         x="609.51764"
         y="63.898071"
         inkscape:export-filename="C:\Users\warre\OneDrive\Desktop\logo.png"
         inkscape:export-xdpi="96"
         inkscape:export-ydpi="96" />
      <g
         id="g8"
         transform="translate(233.48668,1.2842687)">
        <path
           id="path3"
           style="-inkscape-font-specification:'Bodoni MT, Normal';fill:#ffffff;stroke-width:1;stroke-linecap:round;paint-order:fill markers stroke"
           d="m 385.39128,86.811035 v 4.675207 h 9.89766 v 55.257978 h -9.89766 v 4.67521 h 33.36891 v -4.67521 h -10.1237 v -23.82814 h 7.8753 c 8.75435,0 15.18174,-1.62893 19.20052,-5.17487 3.92628,-3.46821 5.97191,-7.91192 5.97191,-13.03827 0,-5.00769 -2.02996,-9.361 -5.92433,-12.764642 -3.93751,-3.470355 -9.67756,-5.127263 -17.09487,-5.127263 z m 23.24521,4.675207 h 6.97119 c 2.59643,0 4.72558,0.248163 6.38829,0.678187 1.46894,0.354518 2.77299,1.32967 3.96143,3.140609 1.71711,2.547643 1.56724,5.591752 1.84395,8.541472 0,4.61542 -0.80733,7.94588 -2.11744,9.89766 -1.37387,2.08958 -2.91749,3.24192 -4.67523,3.68783 -1.94132,0.49264 -4.4432,0.76129 -7.50651,0.76129 h -4.85366 z"
           sodipodi:nodetypes="ccccccccccscscsccsccscsscc" />
        <text
           xml:space="preserve"
           style="font-style:normal;font-variant:normal;font-weight:normal;font-stretch:normal;font-size:19.3452px;font-family:'Bodoni MT';-inkscape-font-specification:'Bodoni MT, Normal';font-variant-ligatures:normal;font-variant-caps:normal;font-variant-numeric:normal;font-variant-east-asian:normal;text-align:center;writing-mode:lr-tb;direction:ltr;text-anchor:middle;fill:#ffffff;stroke-width:0.200001;stroke-linecap:round;paint-order:fill markers stroke"
           x="446.7142"
           y="170.33867"
           id="text3"><tspan
             sodipodi:role="line"
             id="tspan3"
             style="font-style:normal;font-variant:normal;font-weight:bold;font-stretch:normal;font-size:19.3452px;font-family:'Bodoni MT';-inkscape-font-specification:'Bodoni MT, Bold';font-variant-ligatures:normal;font-variant-caps:normal;font-variant-numeric:normal;font-variant-east-asian:normal;text-align:center;text-anchor:middle;fill:#ffffff;stroke-width:0.200001"
             x="446.7142"
             y="170.33867">PhonbireWorks</tspan></text>
        <path
           id="path4"
           style="-inkscape-font-specification:'Bodoni MT, Normal';fill:#ffffff;stroke-width:1;stroke-linecap:round;paint-order:fill markers stroke"
           d="m 417.27315,86.811035 v 4.675207 h 7.33998 l 24.41105,59.933188 h 4.44919 l 10.25455,-25.49361 10.50437,25.49361 h 4.33022 l 22.48386,-59.933188 h 6.74516 V 86.811035 H 487.3776 v 4.675207 h 8.54149 l -15.42939,41.636788 -10.01663,-24.19691 7.00689,-17.439878 h 7.10204 v -4.675207 z m 21.00874,4.675207 h 11.32522 l 11.51554,28.194068 -5.57934,14.02564 z m 25.12482,0 h 9.08872 l -4.49678,11.063498 z" />
        <rect
           style="fill:#ffffff;fill-opacity:1;stroke:none;stroke-width:0.1;stroke-linecap:round;stroke-dasharray:none;paint-order:fill markers stroke"
           id="rect6"
           width="15.417507"
           height="4.6752076"
           x="478.8837"
           y="86.811005" />
        <rect
           style="fill:#ffffff;fill-opacity:1;stroke:none;stroke-width:0.1;stroke-linecap:round;stroke-dasharray:none;paint-order:fill markers stroke"
           id="rect7"
           width="122.40025"
           height="4.6752076"
           x="385.39127"
           y="146.74428" />
        <rect
           style="fill:#ffffff;fill-opacity:1;stroke:none;stroke-width:0.1;stroke-linecap:round;stroke-dasharray:none;paint-order:fill markers stroke"
           id="rect8"
           width="122.40025"
           height="1.9372151"
           x="385.39127"
           y="177.60022" />
      </g>
    </g>
  </g>
</svg>
