<?xml version="1.0" encoding="UTF-8" standalone="no"?>
<!-- Created with Inkscape (http://www.inkscape.org/) -->

<svg
   width="146.12083mm"
   height="146.12083mm"
   viewBox="0 0 146.12083 146.12083"
   version="1.1"
   id="svg1"
   inkscape:version="1.2.2 (b0a8486541, 2022-12-01)"
   sodipodi:docname="logo_nav.svg"
   xmlns:inkscape="http://www.inkscape.org/namespaces/inkscape"
   xmlns:sodipodi="http://sodipodi.sourceforge.net/DTD/sodipodi-0.dtd"
   xmlns="http://www.w3.org/2000/svg"
   xmlns:svg="http://www.w3.org/2000/svg">
  <sodipodi:namedview
     id="namedview1"
     pagecolor="#ffffff"
     bordercolor="#000000"
     borderopacity="0.25"
     inkscape:showpageshadow="2"
     inkscape:pageopacity="0.0"
     inkscape:pagecheckerboard="0"
     inkscape:deskcolor="#d1d1d1"
     inkscape:document-units="mm"
     showguides="true"
     inkscape:zoom="0.5"
     inkscape:cx="58"
     inkscape:cy="347"
     inkscape:window-width="1920"
     inkscape:window-height="988"
     inkscape:window-x="1920"
     inkscape:window-y="0"
     inkscape:window-maximized="1"
     inkscape:current-layer="g15"
     showgrid="false" />
  <defs
     id="defs1" />
  <g
     inkscape:label="Layer 1"
     inkscape:groupmode="layer"
     id="layer1"
     transform="translate(-373.78126,-61.398071)">
    <g
       id="g15"
       transform="translate(0.25025554)">
      <circle
         style="fill:#000000;stroke:#ffffff;stroke-width:5;stroke-linecap:round;paint-order:stroke markers fill"
         id="path7"
         cx="446.59143"
         cy="427.5239"
         r="82.832047"
         inkscape:export-filename="logo pfp.svg"
         inkscape:export-xdpi="96"
         inkscape:export-ydpi="96" />
      <g
         id="g1"
         transform="translate(-6.5580664e-6,14.058972)"
         style="fill:#272727;fill-opacity:1">
        <path
           id="path5"
           style="-inkscape-font-specification:'Bodoni MT, Normal';fill:#272727;stroke-width:1;stroke-linecap:round;paint-order:fill markers stroke;fill-opacity:1"
           d="m 385.39131,88.095304 v 4.675207 h 9.89766 v 55.257979 h -9.89766 v 4.67521 h 33.36891 v -4.67521 h -10.1237 v -23.82814 h 7.8753 c 8.75435,0 15.18174,-1.62893 19.20052,-5.17487 3.92628,-3.46821 5.97191,-7.91192 5.97191,-13.03827 0,-5.00769 -2.02996,-9.361001 -5.92433,-12.764643 -3.93751,-3.470355 -9.67756,-5.127263 -17.09487,-5.127263 z m 23.24521,4.675207 h 6.97119 c 2.59643,0 4.72558,0.248163 6.38829,0.678187 1.46894,0.354518 2.77299,1.32967 3.96143,3.140609 1.71711,2.547643 1.56724,5.591753 1.84395,8.541473 0,4.61542 -0.80733,7.94588 -2.11744,9.89766 -1.37387,2.08958 -2.91749,3.24192 -4.67523,3.68783 -1.94132,0.49264 -4.4432,0.76129 -7.50651,0.76129 h -4.85366 z"
           sodipodi:nodetypes="ccccccccccscscsccsccscsscc" />
        <path
           id="path6"
           style="-inkscape-font-specification:'Bodoni MT, Normal';fill:#272727;stroke-width:1;stroke-linecap:round;paint-order:fill markers stroke;fill-opacity:1"
           d="m 417.27318,88.095304 v 4.675207 h 7.33998 l 24.41105,59.933189 h 4.44919 l 10.25455,-25.49361 10.50437,25.49361 h 4.33022 L 501.0464,92.770511 h 6.74516 v -4.675207 h -20.41393 v 4.675207 h 8.54149 L 480.48973,134.4073 470.4731,110.21039 477.47999,92.770511 h 7.10204 v -4.675207 z m 21.00874,4.675207 h 11.32522 l 11.51554,28.194069 -5.57934,14.02564 z m 25.12482,0 h 9.08872 l -4.49678,11.063499 z" />
        <rect
           style="fill:#272727;fill-opacity:1;stroke:none;stroke-width:0.1;stroke-linecap:round;stroke-dasharray:none;paint-order:fill markers stroke"
           id="rect13"
           width="15.417507"
           height="4.6752076"
           x="478.88373"
           y="88.095276" />
        <rect
           style="fill:#272727;fill-opacity:1;stroke:none;stroke-width:0.1;stroke-linecap:round;stroke-dasharray:none;paint-order:fill markers stroke"
           id="rect14"
           width="122.40025"
           height="4.6752076"
           x="385.3913"
           y="148.02855" />
      </g>
      <g
         id="g5"
         transform="translate(3.2729492e-5,294.34968)">
        <path
           id="path1"
           style="-inkscape-font-specification:'Bodoni MT, Normal';fill:#ffffff;stroke-width:1;stroke-linecap:round;paint-order:fill markers stroke"
           d="m 385.39128,86.811035 v 4.675207 h 9.89766 v 55.257978 h -9.89766 v 4.67521 h 33.36891 v -4.67521 h -10.1237 v -23.82814 h 7.8753 c 8.75435,0 15.18174,-1.62893 19.20052,-5.17487 3.92628,-3.46821 5.97191,-7.91192 5.97191,-13.03827 0,-5.00769 -2.02996,-9.361 -5.92433,-12.764642 -3.93751,-3.470355 -9.67756,-5.127263 -17.09487,-5.127263 z m 23.24521,4.675207 h 6.97119 c 2.59643,0 4.72558,0.248163 6.38829,0.678187 1.46894,0.354518 2.77299,1.32967 3.96143,3.140609 1.71711,2.547643 1.56724,5.591752 1.84395,8.541472 0,4.61542 -0.80733,7.94588 -2.11744,9.89766 -1.37387,2.08958 -2.91749,3.24192 -4.67523,3.68783 -1.94132,0.49264 -4.4432,0.76129 -7.50651,0.76129 h -4.85366 z"
           sodipodi:nodetypes="ccccccccccscscsccsccscsscc" />
        <text
           xml:space="preserve"
           style="font-style:normal;font-variant:normal;font-weight:normal;font-stretch:normal;font-size:19.3452px;font-family:'Bodoni MT';-inkscape-font-specification:'Bodoni MT, Normal';font-variant-ligatures:normal;font-variant-caps:normal;font-variant-numeric:normal;font-variant-east-asian:normal;text-align:center;writing-mode:lr-tb;direction:ltr;text-anchor:middle;fill:#ffffff;stroke-width:0.200001;stroke-linecap:round;paint-order:fill markers stroke"
           x="446.7142"
           y="170.33867"
           id="text1"><tspan
             sodipodi:role="line"
             id="tspan1"
             style="font-style:normal;font-variant:normal;font-weight:bold;font-stretch:normal;font-size:19.3452px;font-family:'Bodoni MT';-inkscape-font-specification:'Bodoni MT, Bold';font-variant-ligatures:normal;font-variant-caps:normal;font-variant-numeric:normal;font-variant-east-asian:normal;text-align:center;text-anchor:middle;fill:#ffffff;stroke-width:0.200001"
             x="446.7142"
             y="170.33867">PhonbireWorks</tspan></text>
        <path
           id="path2"
           style="-inkscape-font-specification:'Bodoni MT, Normal';fill:#ffffff;stroke-width:1;stroke-linecap:round;paint-order:fill markers stroke"
           d="m 417.27315,86.811035 v 4.675207 h 7.33998 l 24.41105,59.933188 h 4.44919 l 10.25455,-25.49361 10.50437,25.49361 h 4.33022 l 22.48386,-59.933188 h 6.74516 V 86.811035 H 487.3776 v 4.675207 h 8.54149 l -15.42939,41.636788 -10.01663,-24.19691 7.00689,-17.439878 h 7.10204 v -4.675207 z m 21.00874,4.675207 h 11.32522 l 11.51554,28.194068 -5.57934,14.02564 z m 25.12482,0 h 9.08872 l -4.49678,11.063498 z" />
        <rect
           style="fill:#ffffff;fill-opacity:1;stroke:none;stroke-width:0.1;stroke-linecap:round;stroke-dasharray:none;paint-order:fill markers stroke"
           id="rect2"
           width="15.417507"
           height="4.6752076"
           x="478.8837"
           y="86.811005" />
        <rect
           style="fill:#ffffff;fill-opacity:1;stroke:none;stroke-width:0.1;stroke-linecap:round;stroke-dasharray:none;paint-order:fill markers stroke"
           id="rect3"
           width="122.40025"
           height="4.6752076"
           x="385.39127"
           y="146.74428" />
        <rect
           style="fill:#ffffff;fill-opacity:1;stroke:none;stroke-width:0.1;stroke-linecap:round;stroke-dasharray:none;paint-order:fill markers stroke"
           id="rect5"
           width="122.40025"
           height="1.9372151"
           x="385.39127"
           y="177.60022" />
      </g>
      <rect
         style="fill:#000000;fill-opacity:1;stroke:#ffffff;stroke-width:5;stroke-linecap:round;stroke-dasharray:none;paint-order:stroke markers fill"
         id="rect1"
         width="141.12083"
         height="141.12083"
         x="609.51764"
         y="63.898071"
         inkscape:export-filename="C:\Users\warre\OneDrive\Desktop\logo.png"
         inkscape:export-xdpi="96"
         inkscape:export-ydpi="96" />
      <g
         id="g8"
         transform="translate(233.48668,1.2842687)">
        <path
           id="path3"
           style="-inkscape-font-specification:'Bodoni MT, Normal';fill:#ffffff;stroke-width:1;stroke-linecap:round;paint-order:fill markers stroke"
           d="m 385.39128,86.811035 v 4.675207 h 9.89766 v 55.257978 h -9.89766 v 4.67521 h 33.36891 v -4.67521 h -10.1237 v -23.82814 h 7.8753 c 8.75435,0 15.18174,-1.62893 19.20052,-5.17487 3.92628,-3.46821 5.97191,-7.91192 5.97191,-13.03827 0,-5.00769 -2.02996,-9.361 -5.92433,-12.764642 -3.93751,-3.470355 -9.67756,-5.127263 -17.09487,-5.127263 z m 23.24521,4.675207 h 6.97119 c 2.59643,0 4.72558,0.248163 6.38829,0.678187 1.46894,0.354518 2.77299,1.32967 3.96143,3.140609 1.71711,2.547643 1.56724,5.591752 1.84395,8.541472 0,4.61542 -0.80733,7.94588 -2.11744,9.89766 -1.37387,2.08958 -2.91749,3.24192 -4.67523,3.68783 -1.94132,0.49264 -4.4432,0.76129 -7.50651,0.76129 h -4.85366 z"
           sodipodi:nodetypes="ccccccccccscscsccsccscsscc" />
        <text
           xml:space="preserve"
           style="font-style:normal;font-variant:normal;font-weight:normal;font-stretch:normal;font-size:19.3452px;font-family:'Bodoni MT';-inkscape-font-specification:'Bodoni MT, Normal';font-variant-ligatures:normal;font-variant-caps:normal;font-variant-numeric:normal;font-variant-east-asian:normal;text-align:center;writing-mode:lr-tb;direction:ltr;text-anchor:middle;fill:#ffffff;stroke-width:0.200001;stroke-linecap:round;paint-order:fill markers stroke"
           x="446.7142"
           y="170.33867"
           id="text3"><tspan
             sodipodi:role="line"
             id="tspan3"
             style="font-style:normal;font-variant:normal;font-weight:bold;font-stretch:normal;font-size:19.3452px;font-family:'Bodoni MT';-inkscape-font-specification:'Bodoni MT, Bold';font-variant-ligatures:normal;font-variant-caps:normal;font-variant-numeric:normal;font-variant-east-asian:normal;text-align:center;text-anchor:middle;fill:#ffffff;stroke-width:0.200001"
             x="446.7142"
             y="170.33867">PhonbireWorks</tspan></text>
        <path
           id="path4"
           style="-inkscape-font-specification:'Bodoni MT, Normal';fill:#ffffff;stroke-width:1;stroke-linecap:round;paint-order:fill markers stroke"
           d="m 417.27315,86.811035 v 4.675207 h 7.33998 l 24.41105,59.933188 h 4.44919 l 10.25455,-25.49361 10.50437,25.49361 h 4.33022 l 22.48386,-59.933188 h 6.74516 V 86.811035 H 487.3776 v 4.675207 h 8.54149 l -15.42939,41.636788 -10.01663,-24.19691 7.00689,-17.439878 h 7.10204 v -4.675207 z m 21.00874,4.675207 h 11.32522 l 11.51554,28.194068 -5.57934,14.02564 z m 25.12482,0 h 9.08872 l -4.49678,11.063498 z" />
        <rect
           style="fill:#ffffff;fill-opacity:1;stroke:none;stroke-width:0.1;stroke-linecap:round;stroke-dasharray:none;paint-order:fill markers stroke"
           id="rect6"
           width="15.417507"
           height="4.6752076"
           x="478.8837"
           y="86.811005" />
        <rect
           style="fill:#ffffff;fill-opacity:1;stroke:none;stroke-width:0.1;stroke-linecap:round;stroke-dasharray:none;paint-order:fill markers stroke"
           id="rect7"
           width="122.40025"
           height="4.6752076"
           x="385.39127"
           y="146.74428" />
        <rect
           style="fill:#ffffff;fill-opacity:1;stroke:none;stroke-width:0.1;stroke-linecap:round;stroke-dasharray:none;paint-order:fill markers stroke"
           id="rect8"
           width="122.40025"
           height="1.9372151"
           x="385.39127"
           y="177.60022" />
      </g>
    </g>
  </g>
</svg>
