<?xml version="1.0" encoding="UTF-8" standalone="no"?>
<!-- Created with Inkscape (http://www.inkscape.org/) -->

<svg
   width="97.071075mm"
   height="128.71619mm"
   viewBox="0 0 97.071075 128.71619"
   version="1.1"
   id="svg5"
   sodipodi:docname="pdf_icon.svg"
   inkscape:version="1.2.2 (b0a8486541, 2022-12-01)"
   xmlns:inkscape="http://www.inkscape.org/namespaces/inkscape"
   xmlns:sodipodi="http://sodipodi.sourceforge.net/DTD/sodipodi-0.dtd"
   xmlns="http://www.w3.org/2000/svg"
   xmlns:svg="http://www.w3.org/2000/svg">
  <sodipodi:namedview
     id="namedview7"
     pagecolor="#ffffff"
     bordercolor="#000000"
     borderopacity="0.25"
     inkscape:showpageshadow="2"
     inkscape:pageopacity="0.0"
     inkscape:pagecheckerboard="0"
     inkscape:deskcolor="#d1d1d1"
     inkscape:document-units="mm"
     showgrid="false"
     showguides="true"
     inkscape:zoom="0.5"
     inkscape:cx="-135"
     inkscape:cy="383"
     inkscape:window-width="1920"
     inkscape:window-height="988"
     inkscape:window-x="1920"
     inkscape:window-y="0"
     inkscape:window-maximized="1"
     inkscape:current-layer="layer1" />
  <defs
     id="defs2" />
  <g
     inkscape:label="Layer 1"
     inkscape:groupmode="layer"
     id="layer1"
     transform="translate(-76.661989,-93.758138)">
    <path
       id="rect234"
       style="fill:#272727;fill-opacity:1;stroke-width:4.13288;stroke-linecap:round;paint-order:fill markers stroke"
       d="m 86.579211,-34.95804 c -5.494155,0 -9.917224,4.423067 -9.917224,9.917228 v 108.88172 c 0,5.49416 4.423069,9.91723 9.917224,9.91723 h 77.236629 c 5.49416,0 9.91723,-4.42307 9.91723,-9.91723 V 1.885188 L 136.88984,-34.95804 Z" />
    <path
       id="rect344"
       style="fill:#ffffff;fill-opacity:1;stroke:none;stroke-width:1.16656;stroke-linecap:round;paint-order:fill markers stroke"
       d="m 136.88984,-32.04451 v 2.892039 14.072809 14.07282 c 0,1.6023 1.28972,2.89203 2.89204,2.89203 h 15.91454 12.23108 2.89204 z" />
    <path
       id="path3009"
       style="font-weight:600;font-size:30.9304px;font-family:FreeSans;-inkscape-font-specification:'FreeSans Semi-Bold';text-align:center;text-anchor:middle;fill:#ffffff;stroke-width:7.95235;stroke-linecap:round;paint-order:fill markers stroke"
       d="m 96.231335,38.589888 v 22.54849 h 4.639515 v -8.04189 h 5.78414 c 2.06202,0 3.71132,-0.68079 4.94853,-2.04173 1.23722,-1.36094 1.8557,-3.18576 1.8557,-5.4746 0,-2.26823 -0.62887,-4.0001 -1.8867,-5.19607 -1.23722,-1.19597 -3.03088,-1.7942 -5.38159,-1.7942 z m 20.939805,0 v 22.54849 h 8.81497 c 3.27862,0 5.65025,-0.87658 7.11429,-2.6293 1.8352,-2.14451 2.75281,-5.03129 2.75281,-8.66045 0,-3.58792 -0.91761,-6.47471 -2.75281,-8.66045 -0.76295,-0.90729 -1.71171,-1.56733 -2.84582,-1.97973 -1.11349,-0.4124 -2.53637,-0.61856 -4.26847,-0.61856 z m 20.84731,0 v 22.54849 h 4.63951 v -9.71258 h 9.86658 v -3.86592 h -9.86658 v -5.10356 h 11.19673 v -3.86643 z m -37.1476,3.86643 h 4.32996 c 1.23722,0 2.14495,0.27834 2.72232,0.83509 0.59798,0.55674 0.89658,1.41255 0.89658,2.56728 0,2.24761 -1.20633,3.37137 -3.6189,3.37137 h -4.32996 z m 20.9398,0 h 4.17546 c 3.48482,0 5.22759,2.47446 5.22759,7.42332 0,4.92824 -1.74277,7.39231 -5.22759,7.39231 h -4.17546 z" />
    <path
       id="rect2698"
       style="fill:#ffffff;fill-opacity:1;stroke:none;stroke-width:2.21298;stroke-linecap:round;paint-order:fill markers stroke"
       d="m 93.732039,-3.745442 c -1.18521,-1.18521 -3.09349,-1.18542 -4.27871,-2e-4 -1.18522,1.18522 -1.18521,3.09371 0,4.27892 l 14.848661,14.84866 2e-4,-2e-4 7.12311,7.12311 11.47198,8.16989 0.002,10e-4 a 0.69811312,0.69811312 0 0 0 0.008,0.006 0.69811312,0.69811312 0 0 0 0.899,-0.0746 0.69811312,0.69811312 0 0 0 0.0746,-0.899 l -8.17697,-11.48149 2e-4,-2e-4 -7.1231,-7.1231 z" />
    <path
       id="path728"
       style="fill:#ffffff;fill-opacity:1;stroke-width:4.13288;stroke-linecap:round;paint-order:fill markers stroke"
       d="m 86.579213,93.758147 c -5.494155,0 -9.917224,4.423067 -9.917224,9.917223 v 108.88172 c 0,5.49416 4.423069,9.91723 9.917224,9.91723 h 77.236627 c 5.49416,0 9.91723,-4.42307 9.91723,-9.91723 V 130.60137 L 136.88984,93.758147 Z" />
    <path
       id="path730"
       style="fill:#272727;fill-opacity:1;stroke:none;stroke-width:1.16656;stroke-linecap:round;paint-order:fill markers stroke"
       d="m 136.88984,96.671677 v 2.892039 14.072804 14.07282 c 0,1.6023 1.28972,2.89203 2.89204,2.89203 h 15.91454 12.23108 2.89204 z" />
    <path
       id="path732"
       style="font-weight:600;font-size:30.9304px;font-family:FreeSans;-inkscape-font-specification:'FreeSans Semi-Bold';text-align:center;text-anchor:middle;fill:#272727;fill-opacity:1;stroke-width:7.95235;stroke-linecap:round;paint-order:fill markers stroke"
       d="m 96.231338,167.30607 v 22.54849 h 4.639512 v -8.04189 h 5.78414 c 2.06202,0 3.71132,-0.68079 4.94853,-2.04173 1.23722,-1.36094 1.8557,-3.18576 1.8557,-5.4746 0,-2.26823 -0.62887,-4.0001 -1.8867,-5.19607 -1.23722,-1.19597 -3.03088,-1.7942 -5.38159,-1.7942 z m 20.939802,0 v 22.54849 h 8.81497 c 3.27862,0 5.65025,-0.87658 7.11429,-2.6293 1.8352,-2.14451 2.75281,-5.03129 2.75281,-8.66045 0,-3.58792 -0.91761,-6.47471 -2.75281,-8.66045 -0.76295,-0.90729 -1.71171,-1.56733 -2.84582,-1.97973 -1.11349,-0.4124 -2.53637,-0.61856 -4.26847,-0.61856 z m 20.84731,0 v 22.54849 h 4.63951 v -9.71258 h 9.86658 v -3.86592 h -9.86658 v -5.10356 h 11.19673 v -3.86643 z m -37.1476,3.86643 h 4.32996 c 1.23722,0 2.14495,0.27834 2.72232,0.83509 0.59798,0.55674 0.89658,1.41255 0.89658,2.56728 0,2.24761 -1.20633,3.37137 -3.6189,3.37137 h -4.32996 z m 20.9398,0 h 4.17546 c 3.48482,0 5.22759,2.47446 5.22759,7.42332 0,4.92824 -1.74277,7.39231 -5.22759,7.39231 h -4.17546 z" />
    <path
       id="path734"
       style="fill:#272727;fill-opacity:1;stroke:none;stroke-width:2.21298;stroke-linecap:round;paint-order:fill markers stroke"
       d="m 93.732038,124.97074 c -1.18521,-1.18521 -3.09349,-1.18542 -4.278707,-2e-4 -1.18522,1.18522 -1.18521,3.09371 0,4.27892 l 14.848659,14.84866 2e-4,-2e-4 7.12311,7.12311 11.47198,8.16989 0.002,0.001 a 0.69811312,0.69811312 0 0 0 0.008,0.006 0.69811312,0.69811312 0 0 0 0.899,-0.0746 0.69811312,0.69811312 0 0 0 0.0746,-0.899 l -8.17697,-11.48149 2e-4,-2e-4 -7.1231,-7.1231 z" />
  </g>
</svg>
