<?xml version="1.0" encoding="UTF-8" standalone="no"?>
<!-- Created with Inkscape (http://www.inkscape.org/) -->

<svg
   width="79.885483mm"
   height="68.057739mm"
   viewBox="0 0 79.885483 68.057739"
   version="1.1"
   id="svg1"
   xml:space="preserve"
   inkscape:version="1.2.2 (b0a8486541, 2022-12-01)"
   sodipodi:docname="skills.svg"
   xmlns:inkscape="http://www.inkscape.org/namespaces/inkscape"
   xmlns:sodipodi="http://sodipodi.sourceforge.net/DTD/sodipodi-0.dtd"
   xmlns="http://www.w3.org/2000/svg"
   xmlns:svg="http://www.w3.org/2000/svg"><sodipodi:namedview
     id="namedview1"
     pagecolor="#ffffff"
     bordercolor="#000000"
     borderopacity="0.25"
     inkscape:showpageshadow="2"
     inkscape:pageopacity="0.0"
     inkscape:pagecheckerboard="0"
     inkscape:deskcolor="#d1d1d1"
     inkscape:document-units="mm"
     showguides="true"
     inkscape:zoom="1.3772587"
     inkscape:cx="-27.59104"
     inkscape:cy="59.17552"
     inkscape:window-width="1920"
     inkscape:window-height="988"
     inkscape:window-x="1920"
     inkscape:window-y="0"
     inkscape:window-maximized="1"
     inkscape:current-layer="layer1"
     showgrid="false" /><defs
     id="defs1"><inkscape:path-effect
       effect="spiro"
       id="path-effect3"
       is_visible="true"
       lpeversion="1" /><inkscape:path-effect
       effect="spiro"
       id="path-effect2"
       is_visible="true"
       lpeversion="1" /></defs><g
     inkscape:label="Layer 1"
     inkscape:groupmode="layer"
     id="layer1"
     transform="translate(-41.533125,-109.13406)"><path
       style="font-weight:bold;font-size:15.916px;line-height:1;font-family:Monospace;-inkscape-font-specification:'Monospace, Bold';text-align:center;text-anchor:middle;fill:#272727;stroke-width:3.31129;stroke-linecap:square;paint-order:stroke markers fill;fill-opacity:1"
       d="m 55.133374,117.29933 -10.229138,3.66705 10.229138,3.64131 v 3.20385 l -13.600249,-5.33973 v -3.03658 l 13.600249,-5.3526 z m 12.699569,-7.29549 h 2.843571 l -10.113335,21.65489 h -2.843571 z m 5.429805,7.29549 v -3.2167 l 13.600247,5.3526 v 3.03658 l -13.600247,5.33973 v -3.20385 l 10.229136,-3.64131 z"
       id="text1"
       aria-label="&lt;/&gt;" /><path
       style="fill:#272727;fill-opacity:1;stroke-width:1.50552"
       d="m 73.221744,177.17348 c -0.585452,-0.0515 -1.277348,-0.27958 -1.917277,-0.63185 -0.535339,-0.29471 -1.02832,-0.64108 -1.723099,-1.21066 l -0.236442,-0.19385 -0.16598,0.0211 c -0.659235,0.0836 -1.899168,0.12225 -2.538736,0.079 -1.007057,-0.0679 -1.816128,-0.25646 -2.440907,-0.56892 -0.541207,-0.27066 -1.000677,-0.72657 -1.266398,-1.25659 -0.398,-0.79387 -0.52089,-1.90041 -0.345776,-3.11347 0.02058,-0.14272 0.03749,-0.27304 0.03755,-0.28975 7.4e-5,-0.0211 -0.0721,-0.0587 -0.235249,-0.1227 -1.624982,-0.63709 -2.724316,-1.71561 -3.055686,-2.99783 -0.06865,-0.26562 -0.08636,-0.37457 -0.120246,-0.73957 -0.109646,-1.18106 -0.251647,-1.83352 -0.512243,-2.35366 -0.135601,-0.27066 -0.287496,-0.49062 -0.696513,-1.00865 -0.497585,-0.63021 -0.593648,-0.83474 -0.646696,-1.37683 -0.03404,-0.34791 0.01084,-0.78627 0.130317,-1.27451 0.147962,-0.60433 0.466387,-1.41756 0.832421,-2.12592 l 0.150432,-0.29111 -0.0913,-0.12526 c -0.344159,-0.47207 -0.522167,-1.11967 -0.494722,-1.79981 0.02418,-0.59903 0.151014,-1.057 0.502846,-1.81558 0.422095,-0.91009 0.499703,-1.26248 0.5289,-2.40159 0.01054,-0.40928 0.03003,-0.78575 0.04786,-0.9222 0.08503,-0.65058 0.275796,-1.13835 0.685112,-1.75185 0.348017,-0.52161 0.525225,-0.99156 0.688109,-1.82486 0.167508,-0.85696 0.218789,-1.07871 0.330262,-1.42817 0.238653,-0.74813 0.579529,-1.32991 1.187631,-2.02692 0.451187,-0.51716 0.667243,-0.8883 0.81645,-1.40252 0.0276,-0.0952 0.0969,-0.40634 0.154007,-0.69165 0.120908,-0.60403 0.179556,-0.79887 0.335425,-1.11434 0.263986,-0.53428 0.675346,-0.93703 1.39385,-1.36469 0.697649,-0.41525 1.145637,-0.81622 1.585357,-1.41896 0.65389,-0.89633 0.841807,-1.09206 1.271964,-1.32484 0.277615,-0.15025 0.425867,-0.19285 1.081261,-0.31088 0.350666,-0.0631 0.763075,-0.23388 1.164112,-0.48196 0.09337,-0.0578 0.351956,-0.23484 0.574648,-0.39356 0.515112,-0.36709 0.721827,-0.49704 1.00864,-0.63406 0.255123,-0.12195 0.487479,-0.19578 0.724718,-0.23046 0.207388,-0.0303 0.611815,-0.012 0.812291,0.0381 0.684632,0.1689 1.424492,0.61261 2.135909,1.28096 0.128616,0.1209 0.295652,0.26172 0.371176,0.31308 0.535249,0.36397 0.987697,0.92724 1.168035,1.45414 0.126042,0.36828 0.147225,0.82235 0.05522,1.18337 -0.07004,0.27474 -0.102105,0.34928 -0.446324,1.03747 -0.33888,0.67748 -0.418781,0.86066 -0.449433,1.03034 -0.04444,0.246 0.01295,0.39201 0.415846,1.05838 0.610115,1.00903 0.823615,1.55077 0.846282,2.14733 0.0063,0.16656 0.0014,0.3335 -0.0128,0.4323 -0.03089,0.21542 -0.135843,0.52493 -0.251458,0.74157 l -0.09455,0.17717 0.07311,0.11095 c 0.275855,0.4189 0.531759,0.9948 0.656254,1.47689 0.108879,0.4216 0.123121,0.53962 0.123844,1.0261 8.16e-4,0.48533 -0.01099,0.58954 -0.106877,0.95662 -0.09789,0.37449 -0.229135,0.67408 -0.464695,1.06071 -0.542224,0.88997 -0.8017,1.71924 -0.801351,2.56105 6.2e-5,0.1501 0.0131,0.35864 0.02886,0.46354 l 0.02876,0.19075 0.245512,0.25114 c 0.135029,0.13805 0.293672,0.31599 0.352533,0.39524 0.765129,1.03021 0.971127,2.23521 0.583494,3.41322 -0.26809,0.81471 -0.864831,1.57424 -1.820955,2.3177 -0.191328,0.14874 -0.678599,0.48274 -0.846118,0.57992 -0.05089,0.0295 -0.08547,0.0598 -0.07686,0.0673 0.0086,0.008 0.07187,0.0337 0.14057,0.0581 0.374903,0.13354 0.773733,0.37807 1.063109,0.65175 0.61855,0.58503 1.00015,1.56392 1.150208,2.95053 0.03899,0.36027 0.03269,1.64351 -0.01009,2.05574 -0.08587,0.82732 -0.228986,1.59125 -0.424713,2.26708 -0.03672,0.12676 -0.05936,0.23316 -0.05031,0.23633 0.009,0.003 0.06871,0.0378 0.132591,0.0769 0.380369,0.23273 0.619844,0.65122 0.727679,1.27162 0.05021,0.28887 0.04432,0.85496 -0.01159,1.11456 -0.09917,0.46034 -0.278492,0.8156 -0.626325,1.24082 l -0.04846,0.0593 0.105627,0.0727 c 0.233121,0.16055 0.443342,0.44366 0.535631,0.72135 0.07997,0.24061 0.09351,0.42209 0.08356,1.11999 -0.01024,0.71596 -0.02951,0.85922 -0.159624,1.1843 -0.198119,0.49499 -0.654308,0.96184 -1.352957,1.38456 -0.730788,0.44217 -1.250912,0.63218 -1.892393,0.69132 -0.238816,0.022 -0.359079,0.0215 -0.632794,-0.003 z m 0.814754,-1.12435 c 0.243299,-0.0489 0.441266,-0.11984 0.711425,-0.25481 0.783613,-0.39169 1.229687,-0.77364 1.361508,-1.16581 0.0688,-0.20468 0.08341,-0.4027 0.06922,-0.93874 -0.01518,-0.57376 -0.02559,-0.61943 -0.164097,-0.71977 -0.04488,-0.0325 -0.151115,-0.081 -0.236098,-0.10794 -0.207165,-0.0655 -0.32742,-0.13384 -0.419731,-0.23846 -0.102194,-0.11593 -0.146878,-0.20772 -0.181189,-0.37229 -0.06439,-0.30879 0.04934,-0.58064 0.331822,-0.79325 0.319956,-0.24081 0.534096,-0.56478 0.624258,-0.94441 0.03172,-0.13354 0.03833,-0.2137 0.03282,-0.39788 -0.0063,-0.21291 -0.01129,-0.23855 -0.06389,-0.33397 -0.103639,-0.18799 -0.313692,-0.30258 -0.525572,-0.28673 -0.06519,0.005 -0.189194,0.0397 -0.310313,0.0872 -1.074058,0.42105 -2.497506,0.51095 -3.37181,0.21297 -0.778561,-0.26534 -1.353897,-0.85093 -1.689295,-1.71939 -0.135225,-0.35015 -0.256535,-0.91374 -0.232053,-1.07814 0.02704,-0.18149 0.129204,-0.33364 0.280153,-0.41714 0.09138,-0.0506 0.123076,-0.0577 0.257889,-0.0577 0.185865,0 0.300645,0.0498 0.415306,0.18002 0.08282,0.0941 0.110249,0.17431 0.168434,0.49244 0.151464,0.82817 0.570962,1.38405 1.193426,1.58139 0.231444,0.0733 0.349007,0.089 0.672441,0.0887 0.350149,-1.7e-4 0.531777,-0.0273 0.826392,-0.12361 0.389453,-0.12721 0.746659,-0.34512 1.039422,-0.63394 0.377379,-0.37227 0.617021,-0.79085 0.745237,-1.30168 0.09828,-0.39157 0.18279,-1.10192 0.211994,-1.78193 0.0512,-1.19224 -0.115789,-2.26784 -0.461568,-2.97302 -0.24104,-0.49155 -0.621207,-0.81552 -1.164266,-0.99215 -0.313992,-0.10208 -0.508404,-0.12722 -0.976268,-0.12601 -0.50317,0.001 -0.663509,0.0257 -0.997032,0.15228 -1.277966,0.48485 -1.924098,1.43674 -1.84559,2.71895 0.0087,0.14272 0.0146,0.3044 0.01295,0.35944 -0.0053,0.17523 -0.09985,0.34401 -0.258031,0.46012 -0.09203,0.0676 -0.09739,0.069 -0.235663,0.0601 -0.237093,-0.0152 -0.423381,-0.1352 -0.527829,-0.33992 -0.05753,-0.11276 -0.08,-0.31285 -0.08002,-0.71261 -3e-5,-0.66185 0.117535,-1.19361 0.379524,-1.71671 0.191678,-0.3827 0.370092,-0.62393 0.691544,-0.93497 0.467803,-0.45266 0.94369,-0.72879 1.736247,-1.0074 0.692268,-0.24335 1.524749,-0.66806 2.238082,-1.14177 0.470848,-0.31268 0.611172,-0.46449 0.712488,-0.77079 0.04645,-0.14047 0.04666,-0.41066 5.45e-4,-0.56677 -0.05071,-0.17134 -0.143205,-0.33236 -0.255512,-0.44479 -0.193897,-0.19413 -0.360874,-0.26015 -0.76953,-0.30423 -0.343512,-0.037 -0.490145,-0.0611 -1.109446,-0.18232 -0.591424,-0.11577 -0.812107,-0.14348 -1.025545,-0.12932 -0.591788,0.0396 -0.962688,0.42183 -1.317894,1.35839 -0.113681,0.29974 -0.144319,0.35922 -0.224564,0.436 -0.100418,0.096 -0.216125,0.13956 -0.371524,0.13956 -0.165011,0 -0.251784,-0.0363 -0.417255,-0.17423 -0.575662,-0.4801 -1.286417,-0.70744 -1.885196,-0.60302 -0.588327,0.10252 -1.137878,0.48643 -1.708166,1.19308 -0.11171,0.13835 -0.276369,0.32475 -0.365919,0.4141 -0.152742,0.15241 -0.167073,0.17381 -0.231571,0.34602 -0.18056,0.48208 -0.233211,0.75202 -0.231717,1.18804 0.0011,0.30091 0.0065,0.35615 0.05203,0.5259 0.206891,0.77135 0.859981,1.33762 1.954318,1.69448 0.184715,0.0602 0.371287,0.1215 0.414606,0.13625 0.282044,0.0956 0.429442,0.47516 0.290518,0.74796 -0.09452,0.18558 -0.267866,0.29493 -0.468701,0.29564 -0.224703,8.1e-4 -0.948007,-0.24897 -1.422428,-0.49121 -1.054494,-0.53838 -1.692899,-1.3383 -1.870871,-2.34418 -0.05185,-0.29299 -0.05664,-0.80457 -0.01039,-1.10134 0.01718,-0.11021 0.03126,-0.21177 0.03126,-0.22575 0,-0.0184 -0.03256,-0.0255 -0.116091,-0.0255 -0.245723,0 -0.570066,-0.0992 -0.820587,-0.25113 -0.41695,-0.25279 -0.813735,-0.6934 -1.157914,-1.28582 -0.257118,-0.44256 -0.572552,-1.17106 -0.589902,-1.36239 -0.02001,-0.22079 0.09824,-0.44304 0.290056,-0.54508 0.112883,-0.0601 0.371576,-0.0605 0.483642,-8.2e-4 0.125877,0.067 0.22707,0.19309 0.293715,0.36589 0.517881,1.34292 1.162287,2.10223 1.684142,1.98444 0.28849,-0.0652 0.619591,-0.33596 1.010179,-0.82634 0.44253,-0.55559 0.941847,-0.9738 1.468421,-1.22991 0.388308,-0.18886 0.716699,-0.27861 1.114332,-0.3046 0.589656,-0.0385 1.149029,0.0799 1.715904,0.36361 l 0.255745,0.12797 0.08398,-0.16722 c 0.164957,-0.32844 0.482057,-0.75566 0.691799,-0.93203 0.272671,-0.22931 0.562795,-0.38424 0.868816,-0.46397 0.153027,-0.0399 0.248391,-0.0507 0.514462,-0.0587 0.395332,-0.012 0.587271,0.0105 1.335275,0.15671 0.50833,0.0992 0.625257,0.11758 1.047086,0.16486 0.502067,0.0562 0.951792,0.23904 1.323612,0.53816 0.166542,0.13399 0.387934,0.36604 0.497869,0.52189 0.04255,0.0604 0.08428,0.10538 0.09277,0.10011 0.02162,-0.0136 0.101773,-0.27436 0.144047,-0.4691 0.05457,-0.25135 0.04929,-0.77292 -0.01039,-1.01827 -0.09137,-0.376 -0.274092,-0.7577 -0.504519,-1.05392 -0.141624,-0.18207 -0.369665,-0.41212 -0.518611,-0.5232 -0.118997,-0.0887 -0.131357,-0.10509 -0.177073,-0.23417 -0.144801,-0.4089 -0.20136,-0.93875 -0.163978,-1.53638 0.02663,-0.42576 0.01415,-0.52186 -0.09884,-0.75724 -0.228736,-0.47677 -0.800009,-0.72163 -1.295083,-0.5551 -0.197102,0.0662 -0.361708,0.17711 -0.577771,0.38895 -0.451031,0.4422 -0.783458,1.04073 -0.979622,1.76382 -0.06704,0.24711 -0.120668,0.35116 -0.231177,0.44843 -0.24623,0.21673 -0.560529,0.20117 -0.765177,-0.0379 -0.149468,-0.17461 -0.158939,-0.3424 -0.04217,-0.74672 0.107208,-0.37122 0.216364,-0.65412 0.377918,-0.97947 0.632181,-1.27317 1.629505,-2.03634 2.966552,-2.27005 0.29301,-0.0512 1.013836,-0.0708 1.346088,-0.0366 0.264176,0.0273 0.227646,0.0532 0.391307,-0.27788 0.165268,-0.33433 0.240218,-0.60587 0.268926,-0.9743 0.02915,-0.37403 -0.03896,-0.86677 -0.163051,-1.1798 -0.220689,-0.55666 -0.742719,-0.91032 -1.343741,-0.91032 -0.406352,0 -0.744303,0.1498 -1.10017,0.4875 -0.213473,0.2026 -0.354525,0.39464 -0.658135,0.8961 -0.335561,0.55421 -0.537674,0.8715 -0.743065,1.1665 -0.692143,0.99414 -1.367807,1.51125 -2.153664,1.64829 -0.209608,0.0366 -0.655297,0.0364 -0.878192,-2e-4 -0.481399,-0.0792 -1.026855,-0.28816 -1.56016,-0.59774 -0.234441,-0.13609 -0.304672,-0.20276 -0.324397,-0.3079 -0.0277,-0.14769 0.05578,-0.2925 0.198856,-0.34498 0.05007,-0.0184 0.125636,-0.0662 0.167906,-0.10629 0.113757,-0.10779 0.243165,-0.16011 0.39509,-0.15955 0.116963,5.6e-4 0.148353,0.0105 0.432282,0.14633 1.20621,0.57481 1.853933,0.39912 2.705881,-0.73396 0.218021,-0.28997 0.476163,-0.68777 0.854007,-1.31607 0.29391,-0.48872 0.446604,-0.70112 0.674939,-0.93887 0.45873,-0.47762 0.969932,-0.78362 1.591452,-0.95261 0.464272,-0.12616 0.714939,-0.29877 0.935883,-0.64415 0.244441,-0.38213 0.28774,-0.88698 0.112959,-1.3171 -0.02717,-0.0668 -0.16991,-0.3225 -0.317195,-0.56803 -0.460268,-0.76735 -0.571054,-1.04393 -0.588563,-1.4693 -0.01844,-0.44786 0.04187,-0.6312 0.533558,-1.62206 0.308601,-0.62188 0.420921,-0.88164 0.393217,-0.90934 -0.01879,-0.0188 -0.215919,0.0376 -0.4156,0.11908 -0.832111,0.3393 -1.313855,0.993 -1.488468,2.01979 -0.0177,0.10403 -0.03591,0.39514 -0.04569,0.73013 -0.01707,0.58483 -0.03205,0.72889 -0.106862,1.0284 -0.234274,0.93803 -0.906808,1.67587 -1.841303,2.02009 -0.611103,0.2251 -1.335482,0.27117 -2.03607,0.12947 -0.821635,-0.16615 -1.603938,-0.66215 -2.09091,-1.32569 -0.296655,-0.40422 -0.525965,-0.9279 -0.63022,-1.43923 -0.09548,-0.46831 -0.07098,-0.66074 0.106877,-0.83928 0.0771,-0.0774 0.124084,-0.1069 0.210769,-0.13204 0.210001,-0.061 0.434055,0.005 0.573555,0.16727 0.07933,0.0927 0.107298,0.17941 0.163237,0.50624 0.06794,0.39696 0.183378,0.69151 0.394804,1.00745 0.464847,0.69461 1.306709,1.09692 2.199574,1.05112 0.911158,-0.0467 1.632702,-0.54611 1.863968,-1.29006 0.07231,-0.23264 0.0793,-0.29426 0.0969,-0.85497 0.02413,-0.76897 0.08109,-1.15934 0.239699,-1.64299 0.30408,-0.92718 0.887231,-1.6124 1.72979,-2.03256 0.201363,-0.10042 0.638666,-0.26303 0.707352,-0.26303 0.01778,0 0.03234,-0.008 0.03234,-0.0176 0,-0.0337 -0.29906,-0.29381 -0.461103,-0.40092 -0.08982,-0.0593 -0.263088,-0.20347 -0.385039,-0.32022 -0.54417,-0.52095 -1.110398,-0.89976 -1.58425,-1.05984 -0.186883,-0.0631 -0.233572,-0.0715 -0.403467,-0.0721 -0.171839,-5.4e-4 -0.212988,0.006 -0.389713,0.068 -0.22186,0.0772 -0.467743,0.21854 -0.830283,0.47713 -0.402663,0.28719 -0.884312,0.60776 -1.059559,0.70521 l -0.166174,0.0924 0.123889,0.14393 c 0.354932,0.41218 0.629134,0.94019 0.763294,1.4698 0.0824,0.32527 0.110565,0.54157 0.121691,0.93467 0.01828,0.64495 -0.05051,1.16133 -0.245818,1.84525 -0.134126,0.46969 -0.193462,0.58399 -0.357048,0.68774 -0.294517,0.18679 -0.683806,0.0521 -0.797128,-0.27581 -0.0509,-0.14724 -0.04432,-0.2082 0.0587,-0.54262 0.185785,-0.60308 0.257294,-1.03118 0.258041,-1.54478 8.17e-4,-0.56168 -0.08839,-0.96355 -0.308448,-1.38962 -0.158241,-0.30639 -0.431768,-0.631 -0.710268,-0.84293 l -0.09977,-0.0759 -0.149995,0.0218 c -0.572414,0.0833 -0.791392,0.23867 -1.272804,0.90336 -0.324528,0.44807 -0.496457,0.66453 -0.697244,0.8779 -0.407106,0.43256 -0.780675,0.72538 -1.417266,1.1109 -0.651935,0.39481 -0.925388,0.69615 -1.081788,1.19208 -0.02687,0.0852 -0.08452,0.33593 -0.12809,0.55717 -0.14751,0.74884 -0.245784,1.07695 -0.443435,1.48045 -0.140795,0.28741 -0.403844,0.68452 -0.622089,0.93912 -0.412003,0.48062 -0.484013,0.57068 -0.623813,0.78015 -0.258143,0.38676 -0.465858,0.86121 -0.587714,1.34243 -0.02549,0.10057 -0.106937,0.48553 -0.181011,0.85538 -0.212218,1.05949 -0.350081,1.47397 -0.683244,2.05423 l -0.128978,0.22464 0.0066,0.17738 0.0066,0.17736 0.133358,0.17217 c 0.07335,0.0947 0.224652,0.26296 0.33622,0.3739 0.395669,0.39348 0.79713,0.5993 1.27529,0.65381 0.165499,0.0188 0.448911,0.008 0.492781,-0.0194 0.01557,-0.009 0.0078,-0.0456 -0.02663,-0.1236 -0.07037,-0.1591 -0.156626,-0.43755 -0.206596,-0.66687 -0.03788,-0.17382 -0.04348,-0.25487 -0.04367,-0.6317 -1.93e-4,-0.36733 0.0062,-0.46599 0.04249,-0.6566 0.08474,-0.44503 0.241183,-0.88831 0.486268,-1.37789 0.67529,-1.34896 1.806946,-2.31428 3.278382,-2.7965 0.486095,-0.1593 1.037071,-0.27304 1.419574,-0.29305 0.19962,-0.0105 0.220042,-0.008 0.318668,0.037 0.346173,0.15848 0.446508,0.57474 0.204743,0.8494 -0.107223,0.12179 -0.201203,0.15991 -0.478828,0.19407 -1.8902,0.23263 -3.276419,1.2421 -3.94319,2.8715 -0.175225,0.4282 -0.249087,0.76893 -0.249899,1.15276 -5.45e-4,0.30416 0.01915,0.43836 0.103444,0.70126 0.242003,0.75483 0.951459,1.45061 2.006584,1.96789 0.169068,0.0829 0.378153,0.17851 0.464625,0.21247 0.1833,0.072 0.278192,0.15581 0.322006,0.28439 0.04011,0.11773 0.03735,0.17768 -0.01664,0.36158 -0.05518,0.18795 -0.08658,0.25097 -0.158289,0.31753 -0.154067,0.14302 -0.301934,0.14995 -0.599209,0.0283 -0.793369,-0.32493 -1.474933,-0.75318 -2.050501,-1.28837 l -0.19359,-0.18002 -0.175266,0.0455 c -0.592856,0.15398 -1.233372,0.1355 -1.766103,-0.0509 -0.341633,-0.11953 -0.714252,-0.3322 -1.030136,-0.58798 -0.101683,-0.0823 -0.122459,-0.0912 -0.230549,-0.0978 -0.100327,-0.006 -0.128977,-2.7e-4 -0.184277,0.0376 -0.141699,0.0973 -0.142165,0.0989 -0.16778,0.64658 -0.02526,0.54012 -0.04229,0.6979 -0.114405,1.06023 -0.09054,0.45487 -0.279509,1.0054 -0.488026,1.42173 -0.195574,0.39049 -0.324219,0.74468 -0.397767,1.09511 -0.02461,0.11728 -0.03411,0.24732 -0.03371,0.46111 5.45e-4,0.35224 0.03684,0.52033 0.17159,0.79733 0.116993,0.2405 0.235267,0.37108 0.509564,0.56258 0.12696,0.0887 0.227684,0.1669 0.223834,0.17393 -0.0039,0.008 -0.104799,0.17705 -0.224331,0.37781 -0.56135,0.94289 -0.979171,1.94549 -1.153927,2.76893 -0.05146,0.24248 -0.07108,0.68951 -0.03664,0.83556 0.03901,0.16552 0.09464,0.25571 0.380799,0.61738 0.421099,0.53223 0.594724,0.78073 0.815528,1.16726 0.150536,0.26353 0.456545,0.49229 0.744071,0.55621 0.130694,0.0291 0.444335,0.0239 0.610812,-0.0105 0.363726,-0.0742 0.83784,-0.28324 1.201571,-0.52992 0.39604,-0.26859 0.369389,-0.25525 0.526059,-0.26317 0.175816,-0.009 0.285381,0.0286 0.404505,0.13836 0.116271,0.10719 0.135105,0.15167 0.198055,0.46811 0.163141,0.81998 0.485276,1.54377 0.934745,2.10023 0.179654,0.22242 0.498081,0.518 0.710042,0.65911 0.563777,0.37533 1.189051,0.55063 1.963963,0.55063 1.13156,0 1.996414,-0.45137 2.496134,-1.30272 0.05456,-0.0929 0.127337,-0.19592 0.1617,-0.2288 0.277845,-0.26578 0.712505,-0.1843 0.874032,0.16386 0.04024,0.0867 0.04635,0.12436 0.04059,0.24977 -0.0063,0.13685 -0.0143,0.16133 -0.109812,0.33341 -0.197065,0.35535 -0.529905,0.7492 -0.862012,1.02005 -0.919455,0.74979 -2.250774,1.02423 -3.645977,0.75158 -0.958371,-0.1873 -1.83201,-0.72531 -2.476448,-1.5251 -0.394262,-0.48931 -0.765259,-1.18231 -0.971954,-1.81559 -0.02415,-0.0739 -0.04532,-0.1364 -0.04703,-0.13866 -0.0017,-0.002 -0.09781,0.042 -0.213537,0.0983 -0.393965,0.19198 -0.75752,0.30788 -1.147299,0.36576 -0.216766,0.0322 -0.521712,0.0375 -0.676953,0.012 -0.188031,-0.0312 -0.209039,0.012 -0.162809,0.3357 0.0196,0.13715 0.05391,0.4395 0.07627,0.67198 0.04518,0.4698 0.09941,0.73305 0.202877,0.98511 0.31772,0.77389 1.065111,1.44126 2.136465,1.90771 0.30476,0.13264 0.697001,0.26244 0.878847,0.29073 0.245017,0.0381 1.090569,0.0321 1.316063,-0.009 0.526642,-0.097 0.904092,-0.24105 1.271167,-0.48542 0.247442,-0.16474 0.306262,-0.18827 0.440082,-0.17613 0.13247,0.012 0.226602,0.0595 0.365751,0.18439 0.14191,0.12737 0.198774,0.25373 0.184598,0.41006 -0.0149,0.16461 -0.08195,0.26389 -0.273775,0.40553 -0.535477,0.3954 -1.279528,0.67641 -2.016641,0.76165 -0.0951,0.0105 -0.311243,0.0273 -0.480314,0.0361 -0.351924,0.0184 -0.409181,0.0376 -0.542334,0.18211 -0.128255,0.13911 -0.142196,0.21196 -0.15335,0.80077 -0.01099,0.57583 0.01114,0.81908 0.108367,1.19493 0.177871,0.68772 0.511856,1.10309 1.092341,1.35855 0.643393,0.28312 1.441177,0.40572 2.641895,0.406 1.04973,2.6e-4 1.955771,-0.0873 2.405964,-0.23275 l 0.230996,-0.0745 0.03535,-0.13971 c 0.123663,-0.48875 0.41767,-1.05916 0.767226,-1.48854 0.133961,-0.16455 0.142331,-0.17857 0.10656,-0.17857 -0.04149,0 -0.377305,-0.16851 -0.499303,-0.25055 -0.316592,-0.21291 -0.409615,-0.34373 -0.408299,-0.57426 8.16e-4,-0.16151 0.05567,-0.27966 0.18243,-0.39362 0.108608,-0.0977 0.232489,-0.14603 0.370939,-0.14483 0.130619,0.001 0.215706,0.0342 0.381221,0.14815 0.170822,0.11758 0.271948,0.16956 0.444567,0.22828 0.208476,0.0709 0.437039,0.10629 0.681477,0.10553 0.298284,-8.2e-4 0.40185,0.0303 0.532519,0.16046 0.124973,0.12451 0.170176,0.24829 0.157108,0.43031 -0.01542,0.21459 -0.0744,0.29678 -0.34565,0.48154 -0.500803,0.3411 -0.816607,0.83323 -0.899792,1.40213 -0.03405,0.23286 -0.014,0.59939 0.0453,0.82754 0.26178,1.00737 1.115463,1.67272 2.078641,1.62004 0.0951,-0.005 0.237505,-0.0224 0.316448,-0.0382 z m 7.983391,1.12478 c -0.600393,-0.0572 -1.142595,-0.2586 -1.851684,-0.68788 -0.87212,-0.52797 -1.312011,-1.05168 -1.464167,-1.74312 -0.03663,-0.16646 -0.0427,-0.26534 -0.05069,-0.82702 -0.0099,-0.69792 0.0036,-0.87939 0.08356,-1.12 0.09229,-0.27768 0.302511,-0.56079 0.535631,-0.72135 l 0.105627,-0.0727 -0.04846,-0.0592 c -0.347833,-0.42523 -0.527154,-0.78049 -0.626325,-1.24083 -0.05593,-0.2596 -0.06182,-0.82567 -0.01159,-1.11455 0.107841,-0.62039 0.347311,-1.03888 0.72768,-1.27163 0.06388,-0.0392 0.123603,-0.0736 0.132741,-0.0768 0.0092,-0.003 -0.005,-0.0793 -0.03122,-0.1691 -0.209287,-0.71464 -0.355782,-1.48494 -0.443947,-2.33434 -0.04279,-0.41222 -0.0491,-1.69545 -0.01009,-2.05573 0.150055,-1.38661 0.531658,-2.36549 1.150209,-2.95053 0.289375,-0.27369 0.688204,-0.5182 1.063108,-0.65174 0.06868,-0.0245 0.131943,-0.0506 0.14057,-0.0581 0.0086,-0.008 -0.02596,-0.0379 -0.07686,-0.0674 -0.05089,-0.0297 -0.196278,-0.123 -0.323083,-0.20743 -1.243851,-0.82857 -2.027363,-1.7278 -2.344067,-2.69027 -0.35231,-1.07066 -0.214554,-2.16972 0.392868,-3.13438 0.168185,-0.2671 0.279258,-0.40442 0.552328,-0.68287 l 0.23633,-0.24097 0.03068,-0.20091 c 0.03774,-0.24709 0.02737,-0.8178 -0.01987,-1.0943 -0.110339,-0.64578 -0.351478,-1.25985 -0.754455,-1.92127 -0.235557,-0.38663 -0.366805,-0.68621 -0.464693,-1.06071 -0.09595,-0.36706 -0.107584,-0.47128 -0.106876,-0.9566 8.17e-4,-0.48649 0.0149,-0.60451 0.123844,-1.02612 0.123979,-0.48005 0.3868,-1.07215 0.655464,-1.47664 l 0.07391,-0.11126 -0.09455,-0.17718 c -0.115608,-0.21663 -0.220558,-0.52613 -0.251457,-0.74157 -0.01415,-0.0988 -0.01912,-0.26573 -0.0128,-0.43228 0.02257,-0.59414 0.23743,-1.14097 0.838865,-2.13499 0.308228,-0.50942 0.377321,-0.64409 0.415996,-0.81087 0.0579,-0.24967 0.01355,-0.37928 -0.442162,-1.29021 -0.343832,-0.68739 -0.376065,-0.76226 -0.446651,-1.03747 -0.04583,-0.17869 -0.05239,-0.2407 -0.05205,-0.49262 5.45e-4,-0.38556 0.05894,-0.63278 0.230337,-0.97482 0.219629,-0.43827 0.607783,-0.87257 1.046537,-1.17092 0.07621,-0.0518 0.230273,-0.1815 0.342357,-0.28817 0.43874,-0.41752 1.042866,-0.85213 1.444019,-1.03882 0.749075,-0.34862 1.306605,-0.41158 1.910818,-0.21578 0.367476,0.11908 0.699298,0.30921 1.354285,0.776 0.22269,0.1587 0.481282,0.33579 0.574643,0.39354 0.40104,0.24808 0.81345,0.41882 1.164115,0.48198 0.655393,0.11803 0.803645,0.16064 1.081262,0.31086 0.430156,0.23278 0.618073,0.42851 1.271964,1.32484 0.439721,0.60274 0.887708,1.00372 1.585357,1.41898 0.719366,0.42816 1.13215,0.83258 1.392928,1.36469 0.158777,0.32397 0.218412,0.52133 0.336701,1.11432 0.05691,0.28531 0.126057,0.59654 0.153653,0.69165 0.147405,0.508 0.366998,0.88785 0.799732,1.38331 0.498252,0.57049 0.7627,0.97088 1.009751,1.52884 0.210608,0.47565 0.30845,0.83832 0.524861,1.94546 0.162884,0.8333 0.34009,1.30325 0.688108,1.82486 0.409325,0.6135 0.600075,1.10129 0.685115,1.75187 0.0178,0.1364 0.0373,0.5129 0.0479,0.9222 0.0292,1.13909 0.10674,1.49149 0.52889,2.40157 0.35184,0.75859 0.47867,1.21655 0.50284,1.81559 0.0274,0.67926 -0.15061,1.32781 -0.49365,1.79834 l -0.0902,0.12376 0.19471,0.38863 c 0.67012,1.33744 0.99643,2.51781 0.91587,3.31308 -0.0545,0.53859 -0.15025,0.74135 -0.64624,1.36957 -0.19608,0.24832 -0.41134,0.53363 -0.47838,0.63402 -0.41945,0.6281 -0.59211,1.2741 -0.73176,2.7378 -0.0348,0.36454 -0.0527,0.47469 -0.118782,0.73007 -0.332013,1.28282 -1.430763,2.36074 -3.055758,2.99783 -0.129445,0.0507 -0.235356,0.10177 -0.235356,0.11351 0,0.0121 0.0168,0.14212 0.03737,0.28975 0.173309,1.24529 0.0537,2.3263 -0.345486,3.12255 -0.265721,0.53002 -0.725191,0.98593 -1.266398,1.25659 -0.624777,0.31246 -1.433849,0.50104 -2.440909,0.56892 -0.639485,0.0431 -1.879482,0.005 -2.538568,-0.079 l -0.165818,-0.0211 -0.324105,0.26408 c -1.027944,0.83761 -1.784315,1.29282 -2.600799,1.56523 -0.561047,0.18719 -1.10555,0.25676 -1.623461,0.20744 z m 0.664623,-1.12245 c 0.912478,-0.18774 1.601746,-1.02932 1.645068,-2.0086 0.02108,-0.47648 -0.08753,-0.87091 -0.346031,-1.25658 -0.105943,-0.15806 -0.375834,-0.42053 -0.561142,-0.54572 -0.276446,-0.18674 -0.335593,-0.26834 -0.351101,-0.48438 -0.0131,-0.18202 0.03213,-0.30582 0.157108,-0.43031 0.130664,-0.13007 0.234234,-0.16136 0.532519,-0.16046 0.244437,8.2e-4 0.473,-0.0346 0.681477,-0.10553 0.172619,-0.0587 0.273745,-0.11066 0.444567,-0.22828 0.165515,-0.11397 0.250599,-0.14709 0.381221,-0.14815 0.138447,-0.001 0.262333,0.0471 0.370939,0.14483 0.12675,0.11397 0.181507,0.23211 0.18243,0.39362 0.0014,0.23053 -0.0917,0.36136 -0.408299,0.57427 -0.121992,0.0821 -0.457805,0.25054 -0.499302,0.25054 -0.01204,0 -0.02179,0.005 -0.02179,0.009 0,0.005 0.05777,0.0807 0.128361,0.16812 0.352738,0.4369 0.643793,1.0021 0.767209,1.48986 l 0.03535,0.13971 0.230996,0.0745 c 0.450038,0.14528 1.359183,0.23328 2.407683,0.23296 1.197927,-2.7e-4 1.997363,-0.1233 2.640176,-0.40621 0.580486,-0.25546 0.914472,-0.67083 1.092342,-1.35855 0.09721,-0.37584 0.119267,-0.61908 0.108367,-1.19493 -0.01114,-0.58879 -0.02511,-0.66163 -0.15335,-0.80075 -0.133148,-0.14453 -0.190409,-0.16368 -0.542332,-0.18211 -0.576414,-0.0301 -0.96614,-0.0967 -1.383308,-0.23569 -0.582678,-0.1943 -1.198556,-0.5513 -1.325878,-0.76857 -0.12008,-0.20491 -0.07421,-0.43196 0.123046,-0.60907 0.139155,-0.12496 0.233275,-0.17238 0.36575,-0.18439 0.133826,-0.012 0.19264,0.012 0.440082,0.17613 0.2844,0.18933 0.590635,0.32421 0.938538,0.41337 0.355809,0.0912 0.493551,0.10568 1.00507,0.10553 0.576771,-1.2e-4 0.704248,-0.0164 1.05089,-0.13384 0.988517,-0.33506 1.814904,-0.88452 2.282287,-1.51748 0.320909,-0.43458 0.459217,-0.82408 0.518517,-1.46016 0.0319,-0.34213 0.100448,-0.91132 0.118469,-0.98367 0.0072,-0.0288 -0.0042,-0.0569 -0.03552,-0.0884 -0.0419,-0.0419 -0.05546,-0.0447 -0.150737,-0.0312 -0.511629,0.0726 -1.189126,-0.0661 -1.821994,-0.37296 -0.112176,-0.0543 -0.209691,-0.10162 -0.2167,-0.10494 -0.0069,-0.003 -0.02723,0.0441 -0.04492,0.10554 -0.06153,0.21321 -0.244296,0.65115 -0.387296,0.92806 -0.750337,1.45298 -1.948233,2.32887 -3.426648,2.50556 -1.307731,0.1563 -2.450424,-0.12496 -3.290267,-0.80983 -0.33211,-0.27083 -0.664949,-0.66469 -0.862017,-1.02005 -0.09543,-0.17208 -0.103519,-0.19664 -0.109797,-0.33341 -0.0057,-0.12541 2.72e-4,-0.16302 0.04059,-0.24977 0.161528,-0.34816 0.596186,-0.42964 0.874035,-0.16386 0.03437,0.0328 0.107132,0.1358 0.1617,0.22879 0.499718,0.85136 1.364574,1.30273 2.496132,1.30273 0.772634,0 1.400439,-0.17547 1.959574,-0.54771 0.211432,-0.14077 0.536634,-0.4419 0.712968,-0.66021 0.453312,-0.56125 0.763078,-1.25804 0.936449,-2.10651 0.06445,-0.3154 0.08226,-0.35714 0.197816,-0.46365 0.119131,-0.10975 0.228689,-0.14724 0.404502,-0.13836 0.156673,0.008 0.130016,-0.006 0.526062,0.26315 0.363731,0.24668 0.837845,0.45577 1.201571,0.52993 0.166477,0.0339 0.480119,0.0391 0.610812,0.0105 0.287526,-0.064 0.593533,-0.29268 0.744071,-0.5562 0.220797,-0.38654 0.394419,-0.63504 0.815519,-1.16726 0.28617,-0.36167 0.34179,-0.45188 0.3808,-0.6174 0.0345,-0.14603 0.0151,-0.59308 -0.0366,-0.83556 -0.17451,-0.82227 -0.59323,-1.82699 -1.153946,-2.76893 -0.119523,-0.20076 -0.220457,-0.37078 -0.224308,-0.37781 -0.0038,-0.008 0.09688,-0.0854 0.223834,-0.17393 0.274299,-0.1915 0.39257,-0.32207 0.50956,-0.56258 0.13474,-0.277 0.17092,-0.44509 0.17158,-0.79732 2.8e-4,-0.2138 -0.009,-0.34386 -0.0337,-0.46111 -0.0736,-0.35044 -0.20219,-0.70463 -0.397751,-1.09511 -0.208522,-0.41632 -0.397496,-0.96686 -0.488031,-1.42174 -0.07211,-0.36233 -0.08914,-0.52011 -0.114405,-1.06023 -0.02562,-0.54762 -0.02609,-0.54938 -0.16778,-0.64657 -0.0553,-0.0379 -0.08395,-0.0438 -0.184277,-0.0376 -0.108096,0.006 -0.128857,0.0155 -0.230552,0.0979 -0.315881,0.25577 -0.6885,0.46845 -1.030133,0.58798 -0.53346,0.18664 -1.173327,0.20485 -1.768095,0.0503 l -0.177169,-0.0461 -0.172428,0.16397 c -0.554218,0.52703 -1.26898,0.9783 -2.067768,1.30546 -0.297276,0.1218 -0.445144,0.11472 -0.599211,-0.0283 -0.07171,-0.0666 -0.103113,-0.12963 -0.158287,-0.31755 -0.05399,-0.18389 -0.05674,-0.24386 -0.01664,-0.36158 0.04381,-0.12857 0.138704,-0.21239 0.322005,-0.28439 0.08648,-0.034 0.295554,-0.12962 0.464626,-0.21247 1.055126,-0.51728 1.764583,-1.21306 2.006584,-1.96789 0.08428,-0.26289 0.104076,-0.3971 0.103444,-0.70126 -5.45e-4,-0.21068 -0.01069,-0.32669 -0.04229,-0.47596 -0.160673,-0.76038 -0.577754,-1.54275 -1.129097,-2.11798 -0.761529,-0.79452 -1.782508,-1.27781 -3.021694,-1.43032 -0.277627,-0.0342 -0.371598,-0.0723 -0.478828,-0.19407 -0.241767,-0.27465 -0.141429,-0.69091 0.204739,-0.8494 0.09863,-0.0452 0.119057,-0.0476 0.31867,-0.037 0.382503,0.02 0.933479,0.13368 1.419575,0.29304 1.461477,0.47895 2.58399,1.43112 3.265729,2.77015 0.245613,0.48242 0.413202,0.95409 0.498922,1.40424 0.0363,0.19062 0.04268,0.28927 0.04249,0.6566 -1.96e-4,0.37684 -0.0059,0.45788 -0.04367,0.6317 -0.04997,0.22932 -0.136235,0.50777 -0.206598,0.66689 -0.03446,0.0778 -0.04221,0.11397 -0.02663,0.1236 0.04387,0.0271 0.327282,0.0382 0.49278,0.0194 0.477852,-0.0545 0.877507,-0.25929 1.275708,-0.65381 0.111996,-0.11096 0.263369,-0.2792 0.336396,-0.3739 l 0.132771,-0.17217 0.0066,-0.17736 0.0066,-0.17738 -0.127969,-0.22287 c -0.158114,-0.27537 -0.2564,-0.48754 -0.364678,-0.78722 -0.121104,-0.33517 -0.187,-0.59778 -0.327828,-1.3065 -0.06891,-0.34682 -0.146396,-0.71382 -0.172195,-0.81558 -0.123407,-0.48684 -0.32799,-0.95453 -0.587866,-1.34388 -0.140194,-0.21005 -0.21217,-0.30008 -0.624234,-0.78078 -0.346395,-0.40408 -0.654344,-0.93288 -0.812535,-1.39524 -0.09408,-0.275 -0.150783,-0.50493 -0.252872,-1.02554 -0.08311,-0.42379 -0.152893,-0.66384 -0.247451,-0.85116 -0.172061,-0.34085 -0.471834,-0.61143 -1.058612,-0.95557 -0.196464,-0.11517 -0.552205,-0.35993 -0.720474,-0.49561 -0.483605,-0.38993 -0.773323,-0.71012 -1.297972,-1.4345 -0.481412,-0.66469 -0.700394,-0.8201 -1.272808,-0.90336 l -0.149995,-0.0218 -0.09977,0.0759 c -0.279932,0.21302 -0.552024,0.53654 -0.712387,0.84703 -0.4,0.77447 -0.415862,1.73711 -0.04828,2.9303 0.103023,0.33442 0.109617,0.39531 0.0587,0.54261 -0.140661,0.40698 -0.690516,0.48871 -0.943,0.14017 -0.153671,-0.21213 -0.363558,-1.01993 -0.434012,-1.67039 -0.03237,-0.2989 -0.03681,-0.81489 -0.0092,-1.06631 0.08651,-0.78707 0.390245,-1.50714 0.871094,-2.06512 l 0.123979,-0.14392 -0.166174,-0.0924 c -0.175247,-0.0974 -0.656896,-0.41802 -1.059559,-0.70522 -0.362543,-0.25858 -0.608426,-0.39988 -0.830283,-0.47712 -0.176728,-0.0616 -0.217874,-0.0687 -0.389713,-0.0681 -0.169895,5.4e-4 -0.216584,0.009 -0.403467,0.0721 -0.473852,0.16008 -1.040083,0.53888 -1.58425,1.05984 -0.121947,0.11683 -0.295221,0.26086 -0.385042,0.32022 -0.16204,0.10704 -0.4611,0.36714 -0.4611,0.40092 0,0.009 0.0146,0.0176 0.03234,0.0176 0.01778,0 0.136656,0.0355 0.264172,0.0787 1.056571,0.3592 1.818032,1.13464 2.171025,2.21088 0.160688,0.48991 0.217425,0.87707 0.241644,1.64889 0.0095,0.30116 0.0257,0.58648 0.03613,0.63402 0.0887,0.40465 0.250218,0.69466 0.53584,0.96214 0.699183,0.65478 1.922641,0.73954 2.843899,0.19706 0.616154,-0.36284 1.010429,-0.95346 1.139366,-1.70676 0.05594,-0.32683 0.0839,-0.41356 0.163237,-0.50624 0.249713,-0.29173 0.707948,-0.24003 0.887368,0.10011 0.04676,0.0887 0.052,0.11834 0.05138,0.29084 -0.0017,0.4349 -0.216768,1.11717 -0.502049,1.59148 -0.481657,0.80079 -1.335068,1.39813 -2.266645,1.58652 -0.423422,0.0857 -0.918297,0.10403 -1.314334,0.0488 -1.293746,-0.18043 -2.267703,-1.0158 -2.563036,-2.19832 -0.07479,-0.29951 -0.08977,-0.44357 -0.106861,-1.0284 -0.0098,-0.335 -0.028,-0.62615 -0.04569,-0.73013 -0.174614,-1.0268 -0.656357,-1.68049 -1.488468,-2.01979 -0.201123,-0.0821 -0.396827,-0.13791 -0.415944,-0.11879 -0.02817,0.0282 0.101668,0.32845 0.402274,0.93043 0.480871,0.96296 0.543261,1.15324 0.524846,1.60063 -0.01751,0.42539 -0.1283,0.70195 -0.588564,1.4693 -0.147284,0.24555 -0.290021,0.50115 -0.317194,0.56803 -0.244175,0.60093 -0.05744,1.30439 0.448328,1.6889 0.161912,0.12315 0.327129,0.19802 0.600517,0.27235 0.621519,0.16899 1.132722,0.47499 1.591451,0.95263 0.223372,0.23256 0.380628,0.44952 0.645737,0.89083 0.472356,0.78632 0.761819,1.22489 1.014468,1.53701 0.784144,0.96874 1.425708,1.10856 2.574621,0.56105 0.283936,-0.13535 0.315326,-0.14589 0.432284,-0.14634 0.151925,-5.6e-4 0.28133,0.0516 0.39509,0.15954 0.04227,0.0401 0.117821,0.0879 0.167902,0.10629 0.143085,0.0525 0.226564,0.1973 0.198859,0.34497 -0.01971,0.10509 -0.08995,0.17181 -0.324396,0.30791 -0.533305,0.3096 -1.078761,0.51856 -1.560161,0.59774 -0.222894,0.0366 -0.668583,0.0367 -0.878192,2.1e-4 -0.82447,-0.14378 -1.519341,-0.69861 -2.262425,-1.80643 -0.202791,-0.30233 -0.293304,-0.44635 -0.639813,-1.01798 -0.298434,-0.49234 -0.44017,-0.68486 -0.652626,-0.88649 -0.355866,-0.33775 -0.693817,-0.48751 -1.100169,-0.48751 -0.601022,0 -1.123052,0.35367 -1.343742,0.91033 -0.124099,0.31303 -0.192192,0.80577 -0.16305,1.1798 0.02871,0.36843 0.103655,0.63996 0.268926,0.97429 0.162748,0.32923 0.132184,0.30562 0.363159,0.2805 0.284847,-0.031 0.91793,-0.0265 1.185928,0.009 1.426634,0.18582 2.492316,0.96124 3.15486,2.29556 0.220243,0.44356 0.434135,1.06867 0.457506,1.33707 0.01868,0.2144 -0.08449,0.4068 -0.27961,0.52151 -0.07651,0.045 -0.110761,0.0527 -0.233744,0.0522 -0.163128,-5.4e-4 -0.253387,-0.0373 -0.386609,-0.15767 -0.09909,-0.0896 -0.153171,-0.19798 -0.218143,-0.43747 -0.196167,-0.72309 -0.528591,-1.32164 -0.979623,-1.76384 -0.216063,-0.21182 -0.380668,-0.32264 -0.577773,-0.38893 -0.587587,-0.19766 -1.246062,0.18221 -1.385401,0.7992 -0.0277,0.1227 -0.02872,0.18169 -0.0087,0.50605 0.03737,0.60665 -0.01852,1.13338 -0.16375,1.54346 -0.04571,0.12902 -0.05808,0.14543 -0.177071,0.23418 -0.148941,0.11111 -0.376989,0.34112 -0.518612,0.5232 -0.230426,0.29622 -0.413148,0.67791 -0.504521,1.05392 -0.05852,0.24079 -0.06499,0.76768 -0.01234,1.00866 0.04244,0.19452 0.131672,0.48991 0.147977,0.48991 0.0068,0 0.04747,-0.0497 0.09033,-0.1105 0.110475,-0.15662 0.331593,-0.38849 0.498456,-0.52273 0.39574,-0.31836 0.829638,-0.48627 1.419677,-0.54941 0.354811,-0.0379 0.433627,-0.0507 0.999057,-0.16225 0.691625,-0.1364 0.89503,-0.15978 1.287242,-0.14814 0.271942,0.008 0.358772,0.0182 0.51874,0.0608 0.311501,0.0828 0.59193,0.23269 0.864537,0.46192 0.209743,0.17637 0.526843,0.60359 0.6918,0.93205 l 0.08398,0.16721 0.255745,-0.12797 c 0.566875,-0.2836 1.126248,-0.40214 1.715904,-0.36362 0.647407,0.0423 1.254771,0.29772 1.844413,0.77568 0.218134,0.1768 0.53032,0.49766 0.738341,0.75882 0.390588,0.49038 0.721686,0.76122 1.010179,0.82635 0.521856,0.11773 1.166262,-0.64153 1.684143,-1.98445 0.06663,-0.1728 0.16783,-0.29886 0.293714,-0.36587 0.112071,-0.0596 0.370767,-0.0592 0.483643,8.1e-4 0.117144,0.0623 0.232849,0.20374 0.269319,0.3292 0.04864,0.16734 0.02693,0.29481 -0.105251,0.61759 -0.456753,1.11544 -1.002027,1.87072 -1.621833,2.24649 -0.250522,0.15187 -0.574866,0.25115 -0.820586,0.25115 -0.08351,0 -0.11609,0.008 -0.11609,0.0254 0,0.0136 0.014,0.11562 0.031,0.22575 0.04616,0.29831 0.04148,0.81002 -0.01009,1.10135 -0.231894,1.3104 -1.226548,2.24966 -2.922586,2.75985 -0.378354,0.11382 -0.535419,0.10087 -0.717594,-0.059 -0.235878,-0.2071 -0.230288,-0.60816 0.01129,-0.81499 0.08446,-0.0723 0.114615,-0.0848 0.466646,-0.19319 1.155035,-0.35568 1.84651,-0.93699 2.059614,-1.73152 0.04553,-0.16974 0.05099,-0.22497 0.05203,-0.52588 0.0014,-0.43603 -0.05116,-0.70598 -0.231718,-1.18805 -0.0645,-0.17222 -0.07883,-0.19362 -0.23157,-0.34603 -0.08955,-0.0893 -0.254215,-0.27569 -0.365921,-0.41411 -0.765753,-0.94883 -1.502905,-1.32619 -2.328987,-1.19223 -0.422701,0.0685 -0.893222,0.29266 -1.264378,0.60219 -0.165468,0.13806 -0.25224,0.17424 -0.417253,0.17424 -0.1554,0 -0.271108,-0.0435 -0.371523,-0.13957 -0.08024,-0.0768 -0.110882,-0.13624 -0.224563,-0.43601 -0.355698,-0.93784 -0.725284,-1.3188 -1.317895,-1.35839 -0.213437,-0.0136 -0.434124,0.0135 -1.025544,0.12932 -0.619303,0.12119 -0.765936,0.14528 -1.109448,0.1823 -0.408656,0.0441 -0.575633,0.11006 -0.769529,0.30424 -0.112297,0.11246 -0.2048,0.27346 -0.255512,0.44479 -0.0462,0.1561 -0.04598,0.42637 5.45e-4,0.56678 0.101276,0.30616 0.241336,0.45774 0.712487,0.77108 0.703106,0.4676 1.5512,0.90012 2.238081,1.14141 0.831057,0.29195 1.344411,0.60029 1.82641,1.09704 0.283722,0.29241 0.421251,0.48574 0.601383,0.84539 0.26199,0.52309 0.379552,1.05487 0.379525,1.71672 -1.6e-5,0.39976 -0.02249,0.59983 -0.08002,0.71261 -0.104453,0.20473 -0.290736,0.32469 -0.527829,0.33991 -0.138267,0.009 -0.143642,0.008 -0.235663,-0.0601 -0.101231,-0.0744 -0.17485,-0.16858 -0.227412,-0.29122 -0.02603,-0.0607 -0.03128,-0.11713 -0.02505,-0.26898 0.01822,-0.44431 0.0056,-0.78238 -0.03747,-1.0041 -0.102586,-0.52787 -0.301293,-0.90412 -0.672692,-1.27371 -0.301381,-0.2999 -0.661326,-0.52343 -1.128076,-0.70051 -0.333527,-0.12646 -0.493862,-0.15101 -0.997034,-0.15228 -0.467863,-0.001 -0.662275,0.0239 -0.976267,0.12601 -0.430388,0.14002 -0.802586,0.4084 -1.019554,0.73527 -0.566268,0.85311 -0.761886,2.5788 -0.500073,4.41146 0.06284,0.43991 0.09292,0.58342 0.172524,0.82308 0.268318,0.80785 0.911849,1.4495 1.717922,1.7129 0.294615,0.0964 0.476245,0.12346 0.826393,0.12361 0.323435,1.5e-4 0.440996,-0.0154 0.672442,-0.0887 0.622463,-0.19736 1.041962,-0.75322 1.193426,-1.58141 0.05819,-0.31813 0.08562,-0.39834 0.168434,-0.49242 0.11466,-0.13023 0.229441,-0.18002 0.415304,-0.18002 0.134819,0 0.166501,0.008 0.257889,0.0577 0.151145,0.0836 0.252987,0.23544 0.280355,0.41792 0.02371,0.15823 -0.100313,0.73575 -0.230349,1.07244 -0.388632,1.0063 -1.08864,1.6263 -2.057545,1.8224 -0.279617,0.0566 -0.714302,0.0848 -1.089028,0.0708 -0.703725,-0.0265 -1.326747,-0.1506 -1.916438,-0.38176 -0.121119,-0.0474 -0.245122,-0.0823 -0.310312,-0.0872 -0.211881,-0.0158 -0.421927,0.0988 -0.525571,0.28673 -0.0526,0.0954 -0.05751,0.12104 -0.0639,0.33397 -0.0056,0.18417 0.0011,0.26429 0.03282,0.39788 0.08673,0.36516 0.302486,0.70017 0.592131,0.91937 0.225241,0.17047 0.332114,0.32674 0.372206,0.54427 0.03957,0.21469 -0.03652,0.47526 -0.18873,0.64629 -0.09334,0.10494 -0.213717,0.17317 -0.420446,0.23848 -0.08499,0.0268 -0.191226,0.0754 -0.236099,0.10794 -0.138508,0.10042 -0.148911,0.14604 -0.164095,0.71977 -0.01415,0.53606 5.45e-4,0.73408 0.06922,0.93875 0.131884,0.39236 0.580333,0.7762 1.361509,1.16538 0.55606,0.27701 1.032545,0.35778 1.519581,0.25758 z"
       id="path1" /><path
       id="rect1"
       style="fill:#272727;stroke-width:1.37003;stroke-linecap:square;paint-order:stroke markers fill;fill-opacity:1"
       d="m 96.320693,109.13406 v 25.0987 h 25.097917 v -25.0987 z m 1.371048,1.36791 H 120.0507 v 15.11359 c -0.83698,-0.52054 -1.70427,-0.99224 -2.59949,-1.40473 -2.20451,-1.01577 -4.54988,-1.69 -6.90615,-2.2728 -0.54995,-0.13599 -1.10861,-0.26766 -1.67502,-0.25539 -0.98661,0.0214 -1.91727,0.48135 -2.70917,1.07019 -0.79193,0.58885 -1.47568,1.30904 -2.22266,1.95394 -1.78704,1.5428 -3.952088,2.63643 -6.246469,3.18942 z m 16.949229,1.02162 a 3.9854009,3.9854009 0 0 0 -3.98543,3.98543 3.9854009,3.9854009 0 0 0 3.98543,3.98542 3.9854009,3.9854009 0 0 0 3.98542,-3.98542 3.9854009,3.9854009 0 0 0 -3.98542,-3.98543 z" /></g></svg>
