<?xml version="1.0" encoding="UTF-8" standalone="no"?>
<!-- Created with Inkscape (http://www.inkscape.org/) -->

<svg
   width="163.08203mm"
   height="163.08203mm"
   viewBox="0 0 163.08203 163.08203"
   version="1.1"
   id="svg5"
   sodipodi:docname="vector_icon.svg"
   inkscape:version="1.2.2 (b0a8486541, 2022-12-01)"
   xmlns:inkscape="http://www.inkscape.org/namespaces/inkscape"
   xmlns:sodipodi="http://sodipodi.sourceforge.net/DTD/sodipodi-0.dtd"
   xmlns="http://www.w3.org/2000/svg"
   xmlns:svg="http://www.w3.org/2000/svg">
  <sodipodi:namedview
     id="namedview7"
     pagecolor="#ffffff"
     bordercolor="#000000"
     borderopacity="0.25"
     inkscape:showpageshadow="2"
     inkscape:pageopacity="0.0"
     inkscape:pagecheckerboard="0"
     inkscape:deskcolor="#d1d1d1"
     inkscape:document-units="mm"
     showgrid="false"
     showguides="true"
     inkscape:zoom="0.3732674"
     inkscape:cx="-133.95223"
     inkscape:cy="486.24659"
     inkscape:window-width="1920"
     inkscape:window-height="988"
     inkscape:window-x="1920"
     inkscape:window-y="0"
     inkscape:window-maximized="1"
     inkscape:current-layer="layer1" />
  <defs
     id="defs2" />
  <g
     inkscape:label="Layer 1"
     inkscape:groupmode="layer"
     id="layer1"
     transform="translate(-27.439669,-77.199423)">
    <path
       id="path3036"
       style="fill:#ffffff;fill-opacity:1;stroke:none;stroke-width:1.04156;stroke-linecap:round;paint-order:fill markers stroke"
       d="m 108.98043,77.199422 c -45.010125,0 -81.540761,36.530648 -81.540761,81.540758 0,45.01013 36.530636,81.54128 81.540761,81.54128 45.01011,0 81.54127,-36.53115 81.54127,-81.54128 0,-45.01011 -36.53116,-81.540758 -81.54127,-81.540758 z m 0,3.999756 c 42.84837,0 77.541,34.692632 77.541,77.541002 0,42.84838 -34.69263,77.541 -77.541,77.541 -42.84837,0 -77.541005,-34.69262 -77.541005,-77.541 0,-42.84837 34.692635,-77.541002 77.541005,-77.541002 z m -6.55981,27.450002 v 4.94544 H 70.523344 a 6.3674536,6.3674536 0 0 0 -6.144845,-4.70204 6.3674536,6.3674536 0 0 0 -6.36757,6.36757 6.3674536,6.3674536 0 0 0 6.36757,6.36757 6.3674536,6.3674536 0 0 0 6.140711,-4.70101 h 21.024556 c -15.225195,6.16067 -26.462042,20.14097 -28.717627,36.94969 a 6.3674536,6.3674536 0 0 0 -5.119584,6.23992 6.3674536,6.3674536 0 0 0 6.367053,6.36757 6.3674536,6.3674536 0 0 0 6.36757,-6.36757 6.3674536,6.3674536 0 0 0 -4.283976,-6.0172 c 2.625765,-18.89969 17.439696,-33.87163 36.263418,-36.73006 v 4.40025 h 13.12013 v -4.40025 c 18.8255,2.85867 33.64128,17.83283 36.26549,36.73471 a 6.3674536,6.3674536 0 0 0 -4.2845,6.01255 6.3674536,6.3674536 0 0 0 6.36757,6.36757 6.3674536,6.3674536 0 0 0 6.36706,-6.36757 6.3674536,6.3674536 0 0 0 -5.12062,-6.24406 c -2.25707,-16.80683 -13.4938,-30.7854 -28.71814,-36.94555 h 21.02507 a 6.3674536,6.3674536 0 0 0 6.14071,4.70101 6.3674536,6.3674536 0 0 0 6.36757,-6.36757 6.3674536,6.3674536 0 0 0 -6.36757,-6.36757 6.3674536,6.3674536 0 0 0 -6.14123,4.70204 h -31.90141 v -4.94544 z m 4.69842,16.14579 a 0.32477861,0.32477861 0 0 0 -0.27492,0.19637 h 10e-4 l -19.760553,46.39303 a 4.4387798,4.4387798 0 0 0 -0.175183,2.99052 l 4.931999,16.78502 a 2.1261013,2.1261013 0 0 0 2.039668,1.52704 h 13.508219 16.69097 a 2.1261013,2.1261013 0 0 0 2.03967,-1.52704 l 4.932,-16.78502 a 4.4387804,4.4387804 0 0 0 -0.17518,-2.99052 l -19.76055,-46.39303 a 0.32477854,0.32477854 0 0 0 -0.62322,0.12764 v 47.23897 c 0,0.87884 0.70905,1.74612 1.48053,2.16215 1.54297,0.83206 2.67375,2.27642 3.11144,3.97391 0.21885,0.84879 0.2191,2.30026 5.1e-4,3.14917 -0.56988,2.21622 -2.31476,3.96112 -4.53099,4.53099 -0.8489,0.21828 -2.30026,0.21781 -3.14916,-5.2e-4 -2.21605,-0.56998 -3.96063,-2.31439 -4.53047,-4.53047 -0.21828,-0.84891 -0.21739,-2.30052 0.001,-3.14917 0.43825,-1.69624 1.56838,-3.13924 3.11041,-3.97081 0.7715,-0.41605 1.48104,-1.28331 1.48104,-2.16214 v -47.24208 a 0.32477861,0.32477861 0 0 0 -0.34778,-0.32401 z m -16.488913,70.48872 c -1.658124,0 -2.993099,1.33445 -2.993099,2.99258 0,1.65812 1.334975,2.9931 2.993099,2.9931 h 36.701123 c 1.65811,0 2.99309,-1.33498 2.99309,-2.9931 0,-1.65813 -1.33498,-2.99258 -2.99309,-2.99258 z m 2.447913,8.58294 c -2.113482,0 -3.814755,1.70126 -3.814755,3.81475 v 4.99608 c 0,2.11349 1.701273,3.81475 3.814755,3.81475 h 31.80529 c 2.11348,0 3.81476,-1.70126 3.81476,-3.81475 v -4.99608 c 0,-2.11349 -1.70128,-3.81475 -3.81476,-3.81475 z" />
  </g>
</svg>
